<svg width="86" height="24" viewBox="0 0 86 24" fill="none" xmlns="http://www.w3.org/2000/svg">
<g clip-path="url(#clip0_9_349)">
<path d="M9.31334 3.97274V10.7425H2.99819V3.97274H0V20.1328H2.99819V13.5829H9.31334V20.1328H12.3115V3.97274H9.31334Z" fill="#33475B"/>
<path d="M21.9069 14.909C21.9069 15.5567 21.6456 16.1778 21.1804 16.6357C20.7152 17.0937 20.0843 17.351 19.4265 17.351C18.7687 17.351 18.1378 17.0937 17.6726 16.6357C17.2075 16.1778 16.9461 15.5567 16.9461 14.909V7.98743H14.1022V14.909C14.1022 16.2979 14.6626 17.6299 15.6601 18.612C16.6577 19.5941 18.0106 20.1458 19.4214 20.1458C20.8321 20.1458 22.185 19.5941 23.1826 18.612C24.1801 17.6299 24.7405 16.2979 24.7405 14.909V7.98743H21.9069V14.909Z" fill="#33475B"/>
<path d="M42.9781 8.70043C42.9781 7.28169 43.9315 6.83191 44.9759 6.83191C45.8176 6.83191 46.9297 7.46246 47.6568 8.22751L49.5195 6.06686C48.5896 4.8289 46.7034 3.97274 45.1595 3.97274C42.0747 3.97274 39.8433 5.75159 39.8433 8.70043C39.8433 14.1715 46.6359 12.436 46.6359 15.4977C46.6359 16.442 45.7045 17.2765 44.638 17.2765C42.9561 17.2765 42.4111 16.4666 41.6384 15.6105L39.5715 17.7263C40.8936 19.3243 42.5242 20.1357 44.4779 20.1357C47.4085 20.1357 49.7663 18.3351 49.7663 15.5208C49.7663 9.44667 42.9737 11.334 42.9737 8.70043" fill="#33475B"/>
<path d="M84.9996 17.5513C83.3191 17.5513 82.8416 16.8354 82.8416 15.7392V10.8871H85.4535V8.42853H82.8416V5.18466L79.958 6.45878V16.3422C79.958 18.8702 81.7296 20.1443 84.1593 20.1443C84.5404 20.1512 84.9212 20.1212 85.2963 20.0547L85.9999 17.505C85.6826 17.5267 85.3183 17.5484 84.9996 17.5484" fill="#33475B"/>
<path d="M32.7318 8.06844C31.3231 8.06844 30.3403 8.47048 29.3899 9.38883V4.06964H26.5415V13.9285C26.5415 17.6193 29.2518 20.1473 32.297 20.1473C35.6757 20.1473 38.6474 17.5744 38.6474 14.1093C38.6474 10.6875 35.9122 8.06988 32.7318 8.06988V8.06844ZM32.7142 17.3257C32.075 17.3257 31.4502 17.1391 30.9187 16.7895C30.3873 16.4399 29.9731 15.943 29.7284 15.3616C29.4838 14.7802 29.4198 14.1405 29.5445 13.5233C29.6692 12.9061 29.977 12.3392 30.429 11.8942C30.881 11.4492 31.4568 11.1462 32.0837 11.0235C32.7106 10.9007 33.3604 10.9637 33.9509 11.2045C34.5415 11.4453 35.0462 11.8531 35.4013 12.3764C35.7564 12.8996 35.946 13.5147 35.946 14.144C35.946 14.9878 35.6055 15.7971 34.9994 16.3938C34.3933 16.9905 33.5713 17.3257 32.7142 17.3257Z" fill="#33475B"/>
<path d="M63.6596 13.9618C63.6596 10.4909 60.6938 7.92383 57.3092 7.92383C54.2641 7.92383 51.5538 10.4518 51.5538 14.1426V24.0072H54.4021V18.6808C55.3511 19.5977 56.3353 20.0012 57.7426 20.0012C60.9229 20.0012 63.6582 17.385 63.6582 13.9618H63.6596ZM60.9626 13.9271C60.9626 14.5564 60.7731 15.1715 60.4179 15.6947C60.0628 16.218 59.5581 16.6258 58.9676 16.8666C58.3771 17.1074 57.7273 17.1704 57.1004 17.0476C56.4735 16.9249 55.8976 16.6218 55.4456 16.1769C54.9937 15.7319 54.6859 15.165 54.5612 14.5478C54.4365 13.9306 54.5005 13.2909 54.7451 12.7095C54.9897 12.1281 55.4039 11.6312 55.9354 11.2816C56.4668 10.932 57.0917 10.7454 57.7308 10.7454C58.588 10.7454 59.41 11.0806 60.016 11.6773C60.6221 12.274 60.9626 13.0832 60.9626 13.9271Z" fill="#33475B"/>
<path d="M72.8615 7.78788V4.97065C73.2397 4.79669 73.5599 4.52056 73.7848 4.1744C74.0098 3.82824 74.1302 3.4263 74.1322 3.01536V2.95028C74.1322 2.37494 73.9 1.82316 73.4868 1.41634C73.0735 1.00951 72.5131 0.780954 71.9287 0.780954H71.8626C71.2782 0.780954 70.7177 1.00951 70.3045 1.41634C69.8913 1.82316 69.6591 2.37494 69.6591 2.95028V3.01536C69.6611 3.4263 69.7815 3.82824 70.0065 4.1744C70.2314 4.52056 70.5516 4.79669 70.9298 4.97065V7.78788C69.8429 7.95159 68.8192 8.39512 67.9624 9.07357L60.1152 3.05586C60.1707 2.85741 60.2003 2.65281 60.2033 2.447C60.2042 1.96354 60.0594 1.49068 59.7873 1.08824C59.5151 0.685806 59.1279 0.371862 58.6745 0.186123C58.2211 0.00038428 57.722 -0.0488052 57.2402 0.0447766C56.7584 0.138358 56.3156 0.370507 55.9679 0.711859C55.6201 1.05321 55.383 1.48843 55.2865 1.96247C55.1901 2.43651 55.2385 2.92807 55.4259 3.37497C55.6132 3.82188 55.9309 4.20405 56.3389 4.47315C56.7468 4.74226 57.2267 4.8862 57.7178 4.88677C58.1472 4.88488 58.5686 4.77218 58.94 4.55992L66.6683 10.4793C65.9739 11.5119 65.6115 12.7265 65.6286 13.9647C65.6456 15.203 66.0412 16.4075 66.7638 17.4211L64.4134 19.7351C64.2233 19.6753 64.0253 19.6437 63.8258 19.6411C63.4227 19.6414 63.0287 19.7593 62.6936 19.98C62.3585 20.2007 62.0974 20.5142 61.9433 20.8809C61.7891 21.2477 61.7489 21.6512 61.8276 22.0404C61.9063 22.4297 62.1005 22.7872 62.3855 23.0679C62.6706 23.3485 63.0338 23.5397 63.4291 23.6172C63.8245 23.6947 64.2344 23.655 64.6069 23.5033C64.9794 23.3515 65.2978 23.0945 65.522 22.7646C65.7461 22.4347 65.8659 22.0468 65.8662 21.6499C65.8637 21.4535 65.8315 21.2585 65.7707 21.0714L68.0961 18.782C68.8544 19.3565 69.7361 19.7525 70.6738 19.9397C71.6115 20.1269 72.5803 20.1003 73.506 19.8619C74.4316 19.6236 75.2896 19.1799 76.0142 18.5647C76.7387 17.9496 77.3107 17.1793 77.6862 16.3129C78.0618 15.4466 78.2309 14.5071 78.1807 13.5664C78.1305 12.6257 77.8622 11.7089 77.3966 10.886C76.9309 10.0632 76.2801 9.35615 75.494 8.81915C74.7079 8.28214 73.8074 7.92938 72.8615 7.78788ZM71.8978 17.0524C71.2618 17.0518 70.6401 16.8656 70.1115 16.5173C69.5829 16.169 69.171 15.6742 68.9279 15.0955C68.6848 14.5168 68.6214 13.8802 68.7458 13.266C68.8701 12.6519 69.1766 12.0878 69.6265 11.6451C70.0764 11.2024 70.6495 10.9009 71.2733 10.7787C71.8972 10.6566 72.5439 10.7193 73.1316 10.9589C73.7193 11.1985 74.2216 11.6042 74.5752 12.1248C74.9287 12.6454 75.1176 13.2575 75.1178 13.8837C75.1178 14.7237 74.7789 15.5293 74.1756 16.1233C73.5723 16.7172 72.754 17.0509 71.9008 17.0509" fill="#FF7A59"/>
</g>
<defs>
<clipPath id="clip0_9_349">
<rect width="86" height="24" fill="white"/>
</clipPath>
</defs>
</svg>
