<svg width="606" height="358" viewBox="0 0 606 358" fill="none" xmlns="http://www.w3.org/2000/svg">
<rect width="606" height="358" rx="20" fill="#EBECFD"/>
<g filter="url(#filter0_d_61_167)">
<rect x="24" y="24" width="130" height="100" rx="12" fill="white"/>
<path d="M53.956 52.21C53.1767 52.21 52.4883 52.049 51.891 51.727C51.2937 51.405 50.8247 50.9547 50.484 50.376C50.148 49.7927 49.98 49.109 49.98 48.325V41.927L51.24 41.92V48.22C51.24 48.696 51.3193 49.1113 51.478 49.466C51.6413 49.816 51.856 50.1077 52.122 50.341C52.388 50.5743 52.6797 50.7493 52.997 50.866C53.319 50.978 53.6387 51.034 53.956 51.034C54.278 51.034 54.6 50.9757 54.922 50.859C55.244 50.7423 55.5357 50.5697 55.797 50.341C56.063 50.1077 56.2753 49.8137 56.434 49.459C56.5927 49.1043 56.672 48.6913 56.672 48.22V41.92H57.932V48.325C57.932 49.1043 57.7617 49.7857 57.421 50.369C57.085 50.9523 56.6183 51.405 56.021 51.727C55.4237 52.049 54.7353 52.21 53.956 52.21ZM62.7481 52.203C61.8474 52.203 61.1078 52.007 60.5291 51.615C59.9551 51.2183 59.6028 50.6653 59.4721 49.956L60.7461 49.753C60.8488 50.1637 61.0844 50.4903 61.4531 50.733C61.8218 50.971 62.2791 51.09 62.8251 51.09C63.3431 51.09 63.7491 50.9827 64.0431 50.768C64.3371 50.5533 64.4841 50.2617 64.4841 49.893C64.4841 49.6783 64.4351 49.5057 64.3371 49.375C64.2391 49.2397 64.0361 49.1137 63.7281 48.997C63.4248 48.8803 62.9651 48.7403 62.3491 48.577C61.6818 48.3997 61.1568 48.2153 60.7741 48.024C60.3914 47.8327 60.1184 47.611 59.9551 47.359C59.7918 47.107 59.7101 46.8013 59.7101 46.442C59.7101 45.9987 59.8314 45.6113 60.0741 45.28C60.3168 44.944 60.6551 44.685 61.0891 44.503C61.5278 44.321 62.0364 44.23 62.6151 44.23C63.1891 44.23 63.7024 44.321 64.1551 44.503C64.6078 44.685 64.9718 44.944 65.2471 45.28C65.5271 45.6113 65.6928 45.9987 65.7441 46.442L64.4701 46.673C64.4094 46.267 64.2134 45.9473 63.8821 45.714C63.5554 45.4807 63.1331 45.357 62.6151 45.343C62.1251 45.3243 61.7261 45.4107 61.4181 45.602C61.1148 45.7933 60.9631 46.0523 60.9631 46.379C60.9631 46.561 61.0191 46.7173 61.1311 46.848C61.2478 46.9787 61.4601 47.1023 61.7681 47.219C62.0808 47.3357 62.5334 47.4687 63.1261 47.618C63.7934 47.786 64.3184 47.9703 64.7011 48.171C65.0884 48.367 65.3638 48.6003 65.5271 48.871C65.6904 49.137 65.7721 49.466 65.7721 49.858C65.7721 50.586 65.5038 51.16 64.9671 51.58C64.4304 51.9953 63.6908 52.203 62.7481 52.203ZM70.5919 52.21C69.8499 52.21 69.2013 52.0467 68.6459 51.72C68.0953 51.3887 67.6659 50.929 67.3579 50.341C67.0499 49.7483 66.8959 49.0577 66.8959 48.269C66.8959 47.443 67.0476 46.729 67.3509 46.127C67.6543 45.5203 68.0766 45.0537 68.6179 44.727C69.1639 44.3957 69.8033 44.23 70.5359 44.23C71.2966 44.23 71.9429 44.405 72.4749 44.755C73.0116 45.105 73.4129 45.6043 73.6789 46.253C73.9496 46.9017 74.0663 47.674 74.0289 48.57H72.7689V48.122C72.7549 47.1933 72.5659 46.5003 72.2019 46.043C71.8379 45.581 71.2966 45.35 70.5779 45.35C69.8079 45.35 69.2223 45.5973 68.8209 46.092C68.4196 46.5867 68.2189 47.296 68.2189 48.22C68.2189 49.1113 68.4196 49.802 68.8209 50.292C69.2223 50.782 69.7939 51.027 70.5359 51.027C71.0353 51.027 71.4693 50.9127 71.8379 50.684C72.2066 50.4553 72.4959 50.1263 72.7059 49.697L73.9029 50.11C73.6089 50.7773 73.1656 51.2953 72.5729 51.664C71.9849 52.028 71.3246 52.21 70.5919 52.21ZM67.7989 48.57V47.569H73.3849V48.57H67.7989ZM75.5874 52V44.44H76.7004V46.267L76.5184 46.029C76.6071 45.7957 76.7214 45.581 76.8614 45.385C77.0061 45.189 77.1671 45.028 77.3444 44.902C77.5404 44.7433 77.7621 44.622 78.0094 44.538C78.2568 44.454 78.5088 44.405 78.7654 44.391C79.0221 44.3723 79.2624 44.3887 79.4864 44.44V45.609C79.2251 45.539 78.9381 45.5203 78.6254 45.553C78.3128 45.5857 78.0234 45.7 77.7574 45.896C77.5148 46.0687 77.3258 46.2787 77.1904 46.526C77.0598 46.7733 76.9688 47.0417 76.9174 47.331C76.8661 47.6157 76.8404 47.9073 76.8404 48.206V52H75.5874Z" fill="#030D03"/>
<path d="M55.624 84.324C54.76 84.324 53.944 84.156 53.176 83.82C52.408 83.484 51.74 83.008 51.172 82.392C50.612 81.776 50.208 81.048 49.96 80.208L52.756 79.452C52.956 80.14 53.32 80.672 53.848 81.048C54.384 81.416 54.972 81.596 55.612 81.588C56.18 81.588 56.688 81.456 57.136 81.192C57.584 80.928 57.936 80.572 58.192 80.124C58.448 79.668 58.576 79.16 58.576 78.6C58.576 77.744 58.3 77.028 57.748 76.452C57.196 75.876 56.484 75.588 55.612 75.588C55.348 75.588 55.088 75.624 54.832 75.696C54.584 75.768 54.344 75.868 54.112 75.996L52.792 73.716L58.6 68.748L58.852 69.444H50.632V66.72H61.228V69.456L56.56 73.944L56.536 73.092C57.584 73.164 58.476 73.456 59.212 73.968C59.956 74.48 60.524 75.14 60.916 75.948C61.316 76.756 61.516 77.64 61.516 78.6C61.516 79.688 61.248 80.664 60.712 81.528C60.184 82.392 59.472 83.076 58.576 83.58C57.688 84.076 56.704 84.324 55.624 84.324ZM65.1053 84V81.036H68.0693V84H65.1053ZM76.8584 84.324C75.9944 84.324 75.1784 84.156 74.4104 83.82C73.6424 83.484 72.9744 83.008 72.4064 82.392C71.8464 81.776 71.4424 81.048 71.1944 80.208L73.9904 79.452C74.1904 80.14 74.5544 80.672 75.0824 81.048C75.6184 81.416 76.2064 81.596 76.8464 81.588C77.4144 81.588 77.9224 81.456 78.3704 81.192C78.8184 80.928 79.1704 80.572 79.4264 80.124C79.6824 79.668 79.8104 79.16 79.8104 78.6C79.8104 77.744 79.5344 77.028 78.9824 76.452C78.4304 75.876 77.7184 75.588 76.8464 75.588C76.5824 75.588 76.3224 75.624 76.0664 75.696C75.8184 75.768 75.5784 75.868 75.3464 75.996L74.0264 73.716L79.8344 68.748L80.0864 69.444H71.8664V66.72H82.4624V69.456L77.7944 73.944L77.7704 73.092C78.8184 73.164 79.7104 73.456 80.4464 73.968C81.1904 74.48 81.7584 75.14 82.1504 75.948C82.5504 76.756 82.7504 77.64 82.7504 78.6C82.7504 79.688 82.4824 80.664 81.9464 81.528C81.4184 82.392 80.7064 83.076 79.8104 83.58C78.9224 84.076 77.9384 84.324 76.8584 84.324ZM85.8597 84V66.72H88.7517V74.736L95.6517 66.72H99.2037L91.7757 75.192L99.7077 84H96.0357L88.7517 75.936V84H85.8597Z" fill="#030D03"/>
<path d="M57.346 107V99.542L55.72 100.526V99.332L57.346 98.36H58.432V107H57.346ZM63.631 107.18C63.071 107.18 62.571 107.054 62.131 106.802C61.695 106.546 61.349 106.2 61.093 105.764C60.841 105.324 60.715 104.824 60.715 104.264V101.096C60.715 100.536 60.841 100.036 61.093 99.596C61.349 99.156 61.695 98.81 62.131 98.558C62.571 98.306 63.071 98.18 63.631 98.18C64.191 98.18 64.691 98.306 65.131 98.558C65.571 98.81 65.917 99.156 66.169 99.596C66.421 100.036 66.547 100.536 66.547 101.096V104.264C66.547 104.824 66.421 105.324 66.169 105.764C65.917 106.2 65.571 106.546 65.131 106.802C64.691 107.054 64.191 107.18 63.631 107.18ZM63.631 106.154C63.971 106.154 64.279 106.072 64.555 105.908C64.831 105.744 65.051 105.524 65.215 105.248C65.379 104.968 65.461 104.66 65.461 104.324V101.03C65.461 100.69 65.379 100.382 65.215 100.106C65.051 99.83 64.831 99.61 64.555 99.446C64.279 99.282 63.971 99.2 63.631 99.2C63.295 99.2 62.987 99.282 62.707 99.446C62.431 99.61 62.211 99.83 62.047 100.106C61.883 100.382 61.801 100.69 61.801 101.03V104.324C61.801 104.66 61.883 104.968 62.047 105.248C62.211 105.524 62.431 105.744 62.707 105.908C62.987 106.072 63.295 106.154 63.631 106.154ZM68.4187 107V105.824H69.5947V107H68.4187ZM71.5257 107V99.542L69.8997 100.526V99.332L71.5257 98.36H72.6117V107H71.5257ZM75.8547 107L75.1347 106.28L83.0667 98.36L83.7867 99.08L75.8547 107ZM81.9867 107.18C81.5907 107.18 81.2287 107.084 80.9007 106.892C80.5767 106.696 80.3167 106.436 80.1207 106.112C79.9247 105.784 79.8267 105.42 79.8267 105.02C79.8267 104.628 79.9267 104.268 80.1267 103.94C80.3267 103.612 80.5907 103.35 80.9187 103.154C81.2467 102.958 81.6027 102.86 81.9867 102.86C82.3827 102.86 82.7447 102.958 83.0727 103.154C83.4007 103.346 83.6607 103.606 83.8527 103.934C84.0487 104.258 84.1467 104.62 84.1467 105.02C84.1467 105.42 84.0487 105.784 83.8527 106.112C83.6607 106.436 83.4007 106.696 83.0727 106.892C82.7447 107.084 82.3827 107.18 81.9867 107.18ZM81.9867 106.238C82.2067 106.238 82.4087 106.182 82.5927 106.07C82.7807 105.958 82.9287 105.81 83.0367 105.626C83.1487 105.442 83.2047 105.24 83.2047 105.02C83.2047 104.8 83.1487 104.598 83.0367 104.414C82.9287 104.226 82.7807 104.078 82.5927 103.97C82.4087 103.858 82.2067 103.802 81.9867 103.802C81.7667 103.802 81.5647 103.858 81.3807 103.97C81.1967 104.078 81.0487 104.226 80.9367 104.414C80.8247 104.598 80.7687 104.8 80.7687 105.02C80.7687 105.24 80.8247 105.442 80.9367 105.626C81.0487 105.81 81.1967 105.958 81.3807 106.07C81.5647 106.182 81.7667 106.238 81.9867 106.238ZM76.9347 102.5C76.5387 102.5 76.1767 102.404 75.8487 102.212C75.5207 102.016 75.2587 101.756 75.0627 101.432C74.8707 101.104 74.7747 100.74 74.7747 100.34C74.7747 99.948 74.8747 99.588 75.0747 99.26C75.2747 98.932 75.5387 98.67 75.8667 98.474C76.1947 98.278 76.5507 98.18 76.9347 98.18C77.3307 98.18 77.6907 98.278 78.0147 98.474C78.3427 98.666 78.6047 98.926 78.8007 99.254C78.9967 99.578 79.0947 99.94 79.0947 100.34C79.0947 100.74 78.9967 101.104 78.8007 101.432C78.6047 101.756 78.3427 102.016 78.0147 102.212C77.6907 102.404 77.3307 102.5 76.9347 102.5ZM76.9347 101.558C77.1547 101.558 77.3567 101.502 77.5407 101.39C77.7287 101.278 77.8767 101.13 77.9847 100.946C78.0967 100.762 78.1527 100.56 78.1527 100.34C78.1527 100.12 78.0967 99.918 77.9847 99.734C77.8767 99.546 77.7287 99.398 77.5407 99.29C77.3567 99.178 77.1547 99.122 76.9347 99.122C76.7147 99.122 76.5127 99.178 76.3287 99.29C76.1447 99.398 75.9967 99.546 75.8847 99.734C75.7727 99.918 75.7167 100.12 75.7167 100.34C75.7167 100.56 75.7727 100.762 75.8847 100.946C75.9967 101.13 76.1447 101.278 76.3287 101.39C76.5127 101.502 76.7147 101.558 76.9347 101.558Z" fill="#A2D95E"/>
<path d="M49.1768 98.8232C49.0791 98.7256 48.9209 98.7256 48.8232 98.8232L47.2322 100.414C47.1346 100.512 47.1346 100.67 47.2322 100.768C47.3299 100.865 47.4882 100.865 47.5858 100.768L49 99.3536L50.4142 100.768C50.5118 100.865 50.6701 100.865 50.7678 100.768C50.8654 100.67 50.8654 100.512 50.7678 100.414L49.1768 98.8232ZM49.25 107L49.25 99L48.75 99L48.75 107L49.25 107Z" fill="#A2D95E"/>
</g>
<rect x="164" y="24" width="130" height="100" rx="12" fill="white"/>
<path d="M183.98 52V41.92H185.24L190.497 49.795V41.92H191.757V52H190.497L185.24 44.118V52H183.98ZM196.99 52.21C196.248 52.21 195.6 52.0467 195.044 51.72C194.494 51.3887 194.064 50.929 193.756 50.341C193.448 49.7483 193.294 49.0577 193.294 48.269C193.294 47.443 193.446 46.729 193.749 46.127C194.053 45.5203 194.475 45.0537 195.016 44.727C195.562 44.3957 196.202 44.23 196.934 44.23C197.695 44.23 198.341 44.405 198.873 44.755C199.41 45.105 199.811 45.6043 200.077 46.253C200.348 46.9017 200.465 47.674 200.427 48.57H199.167V48.122C199.153 47.1933 198.964 46.5003 198.6 46.043C198.236 45.581 197.695 45.35 196.976 45.35C196.206 45.35 195.621 45.5973 195.219 46.092C194.818 46.5867 194.617 47.296 194.617 48.22C194.617 49.1113 194.818 49.802 195.219 50.292C195.621 50.782 196.192 51.027 196.934 51.027C197.434 51.027 197.868 50.9127 198.236 50.684C198.605 50.4553 198.894 50.1263 199.104 49.697L200.301 50.11C200.007 50.7773 199.564 51.2953 198.971 51.664C198.383 52.028 197.723 52.21 196.99 52.21ZM194.197 48.57V47.569H199.783V48.57H194.197ZM203.322 52L201.012 44.433L202.251 44.44L203.938 49.97L205.639 44.44H206.738L208.432 49.97L210.126 44.44H211.358L209.048 52H208.012L206.185 46.253L204.358 52H203.322ZM219.401 52.21C218.622 52.21 217.934 52.049 217.336 51.727C216.739 51.405 216.27 50.9547 215.929 50.376C215.593 49.7927 215.425 49.109 215.425 48.325V41.927L216.685 41.92V48.22C216.685 48.696 216.765 49.1113 216.923 49.466C217.087 49.816 217.301 50.1077 217.567 50.341C217.833 50.5743 218.125 50.7493 218.442 50.866C218.764 50.978 219.084 51.034 219.401 51.034C219.723 51.034 220.045 50.9757 220.367 50.859C220.689 50.7423 220.981 50.5697 221.242 50.341C221.508 50.1077 221.721 49.8137 221.879 49.459C222.038 49.1043 222.117 48.6913 222.117 48.22V41.92H223.377V48.325C223.377 49.1043 223.207 49.7857 222.866 50.369C222.53 50.9523 222.064 51.405 221.466 51.727C220.869 52.049 220.181 52.21 219.401 52.21ZM228.193 52.203C227.293 52.203 226.553 52.007 225.974 51.615C225.4 51.2183 225.048 50.6653 224.917 49.956L226.191 49.753C226.294 50.1637 226.53 50.4903 226.898 50.733C227.267 50.971 227.724 51.09 228.27 51.09C228.788 51.09 229.194 50.9827 229.488 50.768C229.782 50.5533 229.929 50.2617 229.929 49.893C229.929 49.6783 229.88 49.5057 229.782 49.375C229.684 49.2397 229.481 49.1137 229.173 48.997C228.87 48.8803 228.41 48.7403 227.794 48.577C227.127 48.3997 226.602 48.2153 226.219 48.024C225.837 47.8327 225.564 47.611 225.4 47.359C225.237 47.107 225.155 46.8013 225.155 46.442C225.155 45.9987 225.277 45.6113 225.519 45.28C225.762 44.944 226.1 44.685 226.534 44.503C226.973 44.321 227.482 44.23 228.06 44.23C228.634 44.23 229.148 44.321 229.6 44.503C230.053 44.685 230.417 44.944 230.692 45.28C230.972 45.6113 231.138 45.9987 231.189 46.442L229.915 46.673C229.855 46.267 229.659 45.9473 229.327 45.714C229.001 45.4807 228.578 45.357 228.06 45.343C227.57 45.3243 227.171 45.4107 226.863 45.602C226.56 45.7933 226.408 46.0523 226.408 46.379C226.408 46.561 226.464 46.7173 226.576 46.848C226.693 46.9787 226.905 47.1023 227.213 47.219C227.526 47.3357 227.979 47.4687 228.571 47.618C229.239 47.786 229.764 47.9703 230.146 48.171C230.534 48.367 230.809 48.6003 230.972 48.871C231.136 49.137 231.217 49.466 231.217 49.858C231.217 50.586 230.949 51.16 230.412 51.58C229.876 51.9953 229.136 52.203 228.193 52.203ZM236.037 52.21C235.295 52.21 234.647 52.0467 234.091 51.72C233.541 51.3887 233.111 50.929 232.803 50.341C232.495 49.7483 232.341 49.0577 232.341 48.269C232.341 47.443 232.493 46.729 232.796 46.127C233.1 45.5203 233.522 45.0537 234.063 44.727C234.609 44.3957 235.249 44.23 235.981 44.23C236.742 44.23 237.388 44.405 237.92 44.755C238.457 45.105 238.858 45.6043 239.124 46.253C239.395 46.9017 239.512 47.674 239.474 48.57H238.214V48.122C238.2 47.1933 238.011 46.5003 237.647 46.043C237.283 45.581 236.742 45.35 236.023 45.35C235.253 45.35 234.668 45.5973 234.266 46.092C233.865 46.5867 233.664 47.296 233.664 48.22C233.664 49.1113 233.865 49.802 234.266 50.292C234.668 50.782 235.239 51.027 235.981 51.027C236.481 51.027 236.915 50.9127 237.283 50.684C237.652 50.4553 237.941 50.1263 238.151 49.697L239.348 50.11C239.054 50.7773 238.611 51.2953 238.018 51.664C237.43 52.028 236.77 52.21 236.037 52.21ZM233.244 48.57V47.569H238.83V48.57H233.244ZM241.033 52V44.44H242.146V46.267L241.964 46.029C242.052 45.7957 242.167 45.581 242.307 45.385C242.451 45.189 242.612 45.028 242.79 44.902C242.986 44.7433 243.207 44.622 243.455 44.538C243.702 44.454 243.954 44.405 244.211 44.391C244.467 44.3723 244.708 44.3887 244.932 44.44V45.609C244.67 45.539 244.383 45.5203 244.071 45.553C243.758 45.5857 243.469 45.7 243.203 45.896C242.96 46.0687 242.771 46.2787 242.636 46.526C242.505 46.7733 242.414 47.0417 242.363 47.331C242.311 47.6157 242.286 47.9073 242.286 48.206V52H241.033Z" fill="#C7C7C7"/>
<path d="M187.68 84V69.876L184.44 71.856V68.664L187.68 66.72H190.632V84H187.68ZM194.723 84V81.036H197.687V84H194.723ZM206.476 84.324C205.612 84.324 204.796 84.156 204.028 83.82C203.26 83.484 202.592 83.008 202.024 82.392C201.464 81.776 201.06 81.048 200.812 80.208L203.608 79.452C203.808 80.14 204.172 80.672 204.7 81.048C205.236 81.416 205.824 81.596 206.464 81.588C207.032 81.588 207.54 81.456 207.988 81.192C208.436 80.928 208.788 80.572 209.044 80.124C209.3 79.668 209.428 79.16 209.428 78.6C209.428 77.744 209.152 77.028 208.6 76.452C208.048 75.876 207.336 75.588 206.464 75.588C206.2 75.588 205.94 75.624 205.684 75.696C205.436 75.768 205.196 75.868 204.964 75.996L203.644 73.716L209.452 68.748L209.704 69.444H201.484V66.72H212.08V69.456L207.412 73.944L207.388 73.092C208.436 73.164 209.328 73.456 210.064 73.968C210.808 74.48 211.376 75.14 211.768 75.948C212.168 76.756 212.368 77.64 212.368 78.6C212.368 79.688 212.1 80.664 211.564 81.528C211.036 82.392 210.324 83.076 209.428 83.58C208.54 84.076 207.556 84.324 206.476 84.324ZM215.477 84V66.72H218.369V74.736L225.269 66.72H228.821L221.393 75.192L229.325 84H225.653L218.369 75.936V84H215.477Z" fill="#C7C7C7"/>
<path d="M192.786 107.18C192.238 107.18 191.74 107.048 191.292 106.784C190.848 106.52 190.494 106.16 190.23 105.704C189.97 105.244 189.84 104.726 189.84 104.15V101.276C189.84 100.672 189.97 100.138 190.23 99.674C190.494 99.206 190.854 98.842 191.31 98.582C191.77 98.318 192.294 98.186 192.882 98.186C193.358 98.186 193.8 98.284 194.208 98.48C194.62 98.672 194.966 98.95 195.246 99.314L194.448 100.022C194.276 99.77 194.052 99.57 193.776 99.422C193.5 99.274 193.202 99.2 192.882 99.2C192.502 99.2 192.164 99.292 191.868 99.476C191.576 99.656 191.346 99.896 191.178 100.196C191.01 100.492 190.926 100.812 190.926 101.156V102.89L190.692 102.626C190.944 102.266 191.264 101.978 191.652 101.762C192.04 101.546 192.46 101.438 192.912 101.438C193.448 101.438 193.928 101.564 194.352 101.816C194.78 102.068 195.116 102.41 195.36 102.842C195.608 103.27 195.732 103.752 195.732 104.288C195.732 104.824 195.598 105.31 195.33 105.746C195.062 106.182 194.704 106.53 194.256 106.79C193.812 107.05 193.322 107.18 192.786 107.18ZM192.786 106.148C193.13 106.148 193.444 106.066 193.728 105.902C194.012 105.734 194.236 105.51 194.4 105.23C194.568 104.946 194.652 104.632 194.652 104.288C194.652 103.944 194.568 103.63 194.4 103.346C194.236 103.062 194.012 102.838 193.728 102.674C193.448 102.506 193.136 102.422 192.792 102.422C192.448 102.422 192.134 102.506 191.85 102.674C191.57 102.838 191.346 103.062 191.178 103.346C191.01 103.63 190.926 103.944 190.926 104.288C190.926 104.628 191.008 104.94 191.172 105.224C191.34 105.504 191.564 105.728 191.844 105.896C192.128 106.064 192.442 106.148 192.786 106.148ZM197.485 107V105.824H198.661V107H197.485ZM200.288 106.994L200.294 106.034L204.128 102.584C204.448 102.296 204.662 102.024 204.77 101.768C204.882 101.508 204.938 101.242 204.938 100.97C204.938 100.638 204.862 100.338 204.71 100.07C204.558 99.802 204.35 99.59 204.086 99.434C203.826 99.278 203.53 99.2 203.198 99.2C202.854 99.2 202.548 99.282 202.28 99.446C202.012 99.606 201.8 99.82 201.644 100.088C201.492 100.356 201.418 100.648 201.422 100.964H200.33C200.33 100.42 200.456 99.94 200.708 99.524C200.96 99.104 201.302 98.776 201.734 98.54C202.17 98.3 202.664 98.18 203.215 98.18C203.752 98.18 204.232 98.304 204.656 98.552C205.08 98.796 205.414 99.13 205.658 99.554C205.906 99.974 206.03 100.45 206.03 100.982C206.03 101.358 205.982 101.684 205.885 101.96C205.793 102.236 205.65 102.492 205.454 102.728C205.258 102.96 205.012 103.208 204.716 103.472L201.53 106.334L201.392 105.974H206.03V106.994H200.288ZM208.425 107L207.705 106.28L215.637 98.36L216.357 99.08L208.425 107ZM214.557 107.18C214.161 107.18 213.799 107.084 213.471 106.892C213.147 106.696 212.887 106.436 212.691 106.112C212.495 105.784 212.397 105.42 212.397 105.02C212.397 104.628 212.497 104.268 212.697 103.94C212.897 103.612 213.161 103.35 213.489 103.154C213.817 102.958 214.173 102.86 214.557 102.86C214.953 102.86 215.315 102.958 215.643 103.154C215.971 103.346 216.231 103.606 216.423 103.934C216.619 104.258 216.717 104.62 216.717 105.02C216.717 105.42 216.619 105.784 216.423 106.112C216.231 106.436 215.971 106.696 215.643 106.892C215.315 107.084 214.953 107.18 214.557 107.18ZM214.557 106.238C214.777 106.238 214.979 106.182 215.163 106.07C215.351 105.958 215.499 105.81 215.607 105.626C215.719 105.442 215.775 105.24 215.775 105.02C215.775 104.8 215.719 104.598 215.607 104.414C215.499 104.226 215.351 104.078 215.163 103.97C214.979 103.858 214.777 103.802 214.557 103.802C214.337 103.802 214.135 103.858 213.951 103.97C213.767 104.078 213.619 104.226 213.507 104.414C213.395 104.598 213.339 104.8 213.339 105.02C213.339 105.24 213.395 105.442 213.507 105.626C213.619 105.81 213.767 105.958 213.951 106.07C214.135 106.182 214.337 106.238 214.557 106.238ZM209.505 102.5C209.109 102.5 208.747 102.404 208.419 102.212C208.091 102.016 207.829 101.756 207.633 101.432C207.441 101.104 207.345 100.74 207.345 100.34C207.345 99.948 207.445 99.588 207.645 99.26C207.845 98.932 208.109 98.67 208.437 98.474C208.765 98.278 209.121 98.18 209.505 98.18C209.901 98.18 210.261 98.278 210.585 98.474C210.913 98.666 211.175 98.926 211.371 99.254C211.567 99.578 211.665 99.94 211.665 100.34C211.665 100.74 211.567 101.104 211.371 101.432C211.175 101.756 210.913 102.016 210.585 102.212C210.261 102.404 209.901 102.5 209.505 102.5ZM209.505 101.558C209.725 101.558 209.927 101.502 210.111 101.39C210.299 101.278 210.447 101.13 210.555 100.946C210.667 100.762 210.723 100.56 210.723 100.34C210.723 100.12 210.667 99.918 210.555 99.734C210.447 99.546 210.299 99.398 210.111 99.29C209.927 99.178 209.725 99.122 209.505 99.122C209.285 99.122 209.083 99.178 208.899 99.29C208.715 99.398 208.567 99.546 208.455 99.734C208.343 99.918 208.287 100.12 208.287 100.34C208.287 100.56 208.343 100.762 208.455 100.946C208.567 101.13 208.715 101.278 208.899 101.39C209.083 101.502 209.285 101.558 209.505 101.558Z" fill="#FF94D5"/>
<path d="M183.177 107.177C183.079 107.274 182.921 107.274 182.823 107.177L181.232 105.586C181.135 105.488 181.135 105.33 181.232 105.232C181.33 105.135 181.488 105.135 181.586 105.232L183 106.646L184.414 105.232C184.512 105.135 184.67 105.135 184.768 105.232C184.865 105.33 184.865 105.488 184.768 105.586L183.177 107.177ZM183.25 99L183.25 107L182.75 107L182.75 99L183.25 99Z" fill="#FF94D5"/>
<rect x="304" y="24" width="130" height="100" rx="12" fill="white"/>
<path d="M324.98 52V41.92H328.963C329.061 41.92 329.178 41.9247 329.313 41.934C329.448 41.9387 329.579 41.9527 329.705 41.976C330.251 42.06 330.708 42.2467 331.077 42.536C331.45 42.8253 331.73 43.1917 331.917 43.635C332.104 44.0737 332.197 44.5613 332.197 45.098C332.197 45.8773 331.994 46.554 331.588 47.128C331.182 47.6973 330.587 48.0543 329.803 48.199L329.327 48.276H326.226V52H324.98ZM330.979 52L328.991 47.898L330.223 47.52L332.407 52H330.979ZM326.226 47.093H328.921C329.01 47.093 329.11 47.0883 329.222 47.079C329.339 47.0697 329.448 47.0533 329.551 47.03C329.873 46.9553 330.134 46.82 330.335 46.624C330.54 46.4233 330.69 46.19 330.783 45.924C330.876 45.6533 330.923 45.378 330.923 45.098C330.923 44.818 330.876 44.545 330.783 44.279C330.69 44.0083 330.54 43.7727 330.335 43.572C330.134 43.3713 329.873 43.236 329.551 43.166C329.448 43.138 329.339 43.1217 329.222 43.117C329.11 43.1077 329.01 43.103 328.921 43.103H326.226V47.093ZM337.225 52.21C336.483 52.21 335.834 52.0467 335.279 51.72C334.728 51.3887 334.299 50.929 333.991 50.341C333.683 49.7483 333.529 49.0577 333.529 48.269C333.529 47.443 333.68 46.729 333.984 46.127C334.287 45.5203 334.709 45.0537 335.251 44.727C335.797 44.3957 336.436 44.23 337.169 44.23C337.929 44.23 338.576 44.405 339.108 44.755C339.644 45.105 340.046 45.6043 340.312 46.253C340.582 46.9017 340.699 47.674 340.662 48.57H339.402V48.122C339.388 47.1933 339.199 46.5003 338.835 46.043C338.471 45.581 337.929 45.35 337.211 45.35C336.441 45.35 335.855 45.5973 335.454 46.092C335.052 46.5867 334.852 47.296 334.852 48.22C334.852 49.1113 335.052 49.802 335.454 50.292C335.855 50.782 336.427 51.027 337.169 51.027C337.668 51.027 338.102 50.9127 338.471 50.684C338.839 50.4553 339.129 50.1263 339.339 49.697L340.536 50.11C340.242 50.7773 339.798 51.2953 339.206 51.664C338.618 52.028 337.957 52.21 337.225 52.21ZM334.432 48.57V47.569H340.018V48.57H334.432ZM343.991 52L341.247 44.44H342.507L344.628 50.411L346.742 44.44H348.009L345.265 52H343.991ZM352.277 52.21C351.535 52.21 350.887 52.0467 350.331 51.72C349.781 51.3887 349.351 50.929 349.043 50.341C348.735 49.7483 348.581 49.0577 348.581 48.269C348.581 47.443 348.733 46.729 349.036 46.127C349.34 45.5203 349.762 45.0537 350.303 44.727C350.849 44.3957 351.489 44.23 352.221 44.23C352.982 44.23 353.628 44.405 354.16 44.755C354.697 45.105 355.098 45.6043 355.364 46.253C355.635 46.9017 355.752 47.674 355.714 48.57H354.454V48.122C354.44 47.1933 354.251 46.5003 353.887 46.043C353.523 45.581 352.982 45.35 352.263 45.35C351.493 45.35 350.908 45.5973 350.506 46.092C350.105 46.5867 349.904 47.296 349.904 48.22C349.904 49.1113 350.105 49.802 350.506 50.292C350.908 50.782 351.479 51.027 352.221 51.027C352.721 51.027 353.155 50.9127 353.523 50.684C353.892 50.4553 354.181 50.1263 354.391 49.697L355.588 50.11C355.294 50.7773 354.851 51.2953 354.258 51.664C353.67 52.028 353.01 52.21 352.277 52.21ZM349.484 48.57V47.569H355.07V48.57H349.484ZM362.451 52V48.213C362.451 47.8537 362.418 47.5083 362.353 47.177C362.292 46.8457 362.183 46.5493 362.024 46.288C361.87 46.022 361.66 45.812 361.394 45.658C361.133 45.504 360.801 45.427 360.4 45.427C360.087 45.427 359.803 45.4807 359.546 45.588C359.294 45.6907 359.077 45.8493 358.895 46.064C358.713 46.2787 358.571 46.5493 358.468 46.876C358.37 47.198 358.321 47.5783 358.321 48.017L357.502 47.765C357.502 47.0323 357.633 46.4047 357.894 45.882C358.16 45.3547 358.531 44.951 359.007 44.671C359.488 44.3863 360.052 44.244 360.701 44.244C361.191 44.244 361.609 44.321 361.954 44.475C362.299 44.629 362.586 44.8343 362.815 45.091C363.044 45.343 363.223 45.6277 363.354 45.945C363.485 46.2577 363.576 46.5773 363.627 46.904C363.683 47.226 363.711 47.5317 363.711 47.821V52H362.451ZM357.061 52V44.44H358.181V46.463H358.321V52H357.061ZM368.401 52.196C367.915 52.196 367.498 52.119 367.148 51.965C366.802 51.811 366.515 51.6057 366.287 51.349C366.058 51.0923 365.878 50.8077 365.748 50.495C365.617 50.1823 365.524 49.8627 365.468 49.536C365.416 49.2093 365.391 48.9037 365.391 48.619V44.44H366.651V48.227C366.651 48.5817 366.683 48.9247 366.749 49.256C366.814 49.5873 366.924 49.886 367.078 50.152C367.236 50.418 367.446 50.628 367.708 50.782C367.974 50.936 368.305 51.013 368.702 51.013C369.014 51.013 369.299 50.9593 369.556 50.852C369.812 50.7447 370.032 50.586 370.214 50.376C370.396 50.1613 370.536 49.8907 370.634 49.564C370.732 49.2373 370.781 48.857 370.781 48.423L371.6 48.675C371.6 49.403 371.467 50.0307 371.201 50.558C370.939 51.0853 370.568 51.4913 370.088 51.776C369.612 52.056 369.049 52.196 368.401 52.196ZM370.921 52V49.977H370.781V44.44H372.034V52H370.921ZM377.27 52.21C376.528 52.21 375.879 52.0467 375.324 51.72C374.773 51.3887 374.344 50.929 374.036 50.341C373.728 49.7483 373.574 49.0577 373.574 48.269C373.574 47.443 373.725 46.729 374.029 46.127C374.332 45.5203 374.754 45.0537 375.296 44.727C375.842 44.3957 376.481 44.23 377.214 44.23C377.974 44.23 378.621 44.405 379.153 44.755C379.689 45.105 380.091 45.6043 380.357 46.253C380.627 46.9017 380.744 47.674 380.707 48.57H379.447V48.122C379.433 47.1933 379.244 46.5003 378.88 46.043C378.516 45.581 377.974 45.35 377.256 45.35C376.486 45.35 375.9 45.5973 375.499 46.092C375.097 46.5867 374.897 47.296 374.897 48.22C374.897 49.1113 375.097 49.802 375.499 50.292C375.9 50.782 376.472 51.027 377.214 51.027C377.713 51.027 378.147 50.9127 378.516 50.684C378.884 50.4553 379.174 50.1263 379.384 49.697L380.581 50.11C380.287 50.7773 379.843 51.2953 379.251 51.664C378.663 52.028 378.002 52.21 377.27 52.21ZM374.477 48.57V47.569H380.063V48.57H374.477Z" fill="#C7C7C7"/>
<path d="M330.204 86.388V83.544H333.096V86.388H330.204ZM330.204 67.188V64.344H333.096V67.188H330.204ZM331.716 84.36C330.5 84.36 329.412 84.136 328.452 83.688C327.492 83.24 326.704 82.608 326.088 81.792C325.48 80.976 325.092 80.008 324.924 78.888L327.78 78.432C328.004 79.416 328.484 80.2 329.22 80.784C329.964 81.36 330.852 81.648 331.884 81.648C332.876 81.648 333.692 81.416 334.332 80.952C334.972 80.48 335.292 79.884 335.292 79.164C335.292 78.66 335.14 78.252 334.836 77.94C334.532 77.62 334.044 77.356 333.372 77.148L329.208 75.852C326.784 75.1 325.572 73.628 325.572 71.436C325.572 70.412 325.816 69.52 326.304 68.76C326.8 67.992 327.496 67.404 328.392 66.996C329.288 66.58 330.344 66.376 331.56 66.384C332.688 66.392 333.692 66.596 334.572 66.996C335.46 67.396 336.196 67.972 336.78 68.724C337.372 69.476 337.792 70.38 338.04 71.436L335.076 71.976C334.964 71.408 334.744 70.908 334.416 70.476C334.088 70.044 333.676 69.708 333.18 69.468C332.684 69.228 332.132 69.1 331.524 69.084C330.94 69.076 330.416 69.168 329.952 69.36C329.488 69.544 329.12 69.808 328.848 70.152C328.576 70.488 328.44 70.868 328.44 71.292C328.44 71.764 328.628 72.168 329.004 72.504C329.388 72.84 329.992 73.128 330.816 73.368L333.924 74.268C335.42 74.7 336.496 75.288 337.152 76.032C337.816 76.768 338.148 77.748 338.148 78.972C338.148 80.044 337.88 80.984 337.344 81.792C336.808 82.6 336.056 83.232 335.088 83.688C334.12 84.136 332.996 84.36 331.716 84.36ZM346.402 84.36C345.258 84.36 344.242 84.128 343.354 83.664C342.466 83.2 341.77 82.556 341.266 81.732C340.762 80.908 340.51 79.964 340.51 78.9C340.51 77.948 340.73 77.064 341.17 76.248C341.61 75.432 342.254 74.78 343.102 74.292L343.042 75.216C342.378 74.712 341.862 74.132 341.494 73.476C341.134 72.812 340.954 72.068 340.954 71.244C340.954 70.252 341.186 69.392 341.65 68.664C342.122 67.936 342.766 67.372 343.582 66.972C344.398 66.564 345.338 66.36 346.402 66.36C347.466 66.36 348.406 66.564 349.222 66.972C350.046 67.372 350.69 67.936 351.154 68.664C351.626 69.392 351.862 70.252 351.862 71.244C351.862 72.068 351.686 72.808 351.334 73.464C350.99 74.12 350.466 74.712 349.762 75.24L349.75 74.304C350.582 74.776 351.218 75.424 351.658 76.248C352.106 77.064 352.33 77.948 352.33 78.9C352.33 79.964 352.074 80.908 351.562 81.732C351.058 82.556 350.358 83.2 349.462 83.664C348.574 84.128 347.554 84.36 346.402 84.36ZM346.402 81.636C347.25 81.636 347.938 81.404 348.466 80.94C349.002 80.476 349.27 79.796 349.27 78.9C349.27 78.004 349.006 77.324 348.478 76.86C347.95 76.388 347.258 76.152 346.402 76.152C345.554 76.152 344.87 76.388 344.35 76.86C343.83 77.324 343.57 78.004 343.57 78.9C343.57 79.796 343.83 80.476 344.35 80.94C344.87 81.404 345.554 81.636 346.402 81.636ZM346.402 73.404C347.114 73.404 347.69 73.228 348.13 72.876C348.578 72.516 348.802 71.972 348.802 71.244C348.802 70.516 348.578 69.976 348.13 69.624C347.69 69.264 347.114 69.084 346.402 69.084C345.698 69.084 345.122 69.264 344.674 69.624C344.234 69.976 344.014 70.516 344.014 71.244C344.014 71.972 344.234 72.516 344.674 72.876C345.122 73.228 345.698 73.404 346.402 73.404ZM362.622 84V81.144H354.966V78.444L360.498 66.72H363.798L358.266 78.444H362.622V73.944H365.55V78.444H367.17V81.144H365.55V84H362.622ZM370.047 84V66.72H372.939V74.736L379.839 66.72H383.391L375.963 75.192L383.895 84H380.223L372.939 75.936V84H370.047Z" fill="#C7C7C7"/>
<path d="M331.296 107L334.404 99.386H330.48V98.36H335.55V99.386L332.448 107H331.296ZM336.587 107V105.824H337.763V107H336.587ZM342.575 107.18C342.027 107.18 341.529 107.048 341.081 106.784C340.637 106.52 340.283 106.16 340.019 105.704C339.759 105.244 339.629 104.726 339.629 104.15V101.276C339.629 100.672 339.759 100.138 340.019 99.674C340.283 99.206 340.643 98.842 341.099 98.582C341.559 98.318 342.083 98.186 342.671 98.186C343.147 98.186 343.589 98.284 343.997 98.48C344.409 98.672 344.755 98.95 345.035 99.314L344.237 100.022C344.065 99.77 343.841 99.57 343.565 99.422C343.289 99.274 342.991 99.2 342.671 99.2C342.291 99.2 341.953 99.292 341.657 99.476C341.365 99.656 341.135 99.896 340.967 100.196C340.799 100.492 340.715 100.812 340.715 101.156V102.89L340.481 102.626C340.733 102.266 341.053 101.978 341.441 101.762C341.829 101.546 342.249 101.438 342.701 101.438C343.237 101.438 343.717 101.564 344.141 101.816C344.569 102.068 344.905 102.41 345.149 102.842C345.397 103.27 345.521 103.752 345.521 104.288C345.521 104.824 345.387 105.31 345.119 105.746C344.851 106.182 344.493 106.53 344.045 106.79C343.601 107.05 343.111 107.18 342.575 107.18ZM342.575 106.148C342.919 106.148 343.233 106.066 343.517 105.902C343.801 105.734 344.025 105.51 344.189 105.23C344.357 104.946 344.441 104.632 344.441 104.288C344.441 103.944 344.357 103.63 344.189 103.346C344.025 103.062 343.801 102.838 343.517 102.674C343.237 102.506 342.925 102.422 342.581 102.422C342.237 102.422 341.923 102.506 341.639 102.674C341.359 102.838 341.135 103.062 340.967 103.346C340.799 103.63 340.715 103.944 340.715 104.288C340.715 104.628 340.797 104.94 340.961 105.224C341.129 105.504 341.353 105.728 341.633 105.896C341.917 106.064 342.231 106.148 342.575 106.148ZM348.042 107L347.322 106.28L355.254 98.36L355.974 99.08L348.042 107ZM354.174 107.18C353.778 107.18 353.416 107.084 353.088 106.892C352.764 106.696 352.504 106.436 352.308 106.112C352.112 105.784 352.014 105.42 352.014 105.02C352.014 104.628 352.114 104.268 352.314 103.94C352.514 103.612 352.778 103.35 353.106 103.154C353.434 102.958 353.79 102.86 354.174 102.86C354.57 102.86 354.932 102.958 355.26 103.154C355.588 103.346 355.848 103.606 356.04 103.934C356.236 104.258 356.334 104.62 356.334 105.02C356.334 105.42 356.236 105.784 356.04 106.112C355.848 106.436 355.588 106.696 355.26 106.892C354.932 107.084 354.57 107.18 354.174 107.18ZM354.174 106.238C354.394 106.238 354.596 106.182 354.78 106.07C354.968 105.958 355.116 105.81 355.224 105.626C355.336 105.442 355.392 105.24 355.392 105.02C355.392 104.8 355.336 104.598 355.224 104.414C355.116 104.226 354.968 104.078 354.78 103.97C354.596 103.858 354.394 103.802 354.174 103.802C353.954 103.802 353.752 103.858 353.568 103.97C353.384 104.078 353.236 104.226 353.124 104.414C353.012 104.598 352.956 104.8 352.956 105.02C352.956 105.24 353.012 105.442 353.124 105.626C353.236 105.81 353.384 105.958 353.568 106.07C353.752 106.182 353.954 106.238 354.174 106.238ZM349.122 102.5C348.726 102.5 348.364 102.404 348.036 102.212C347.708 102.016 347.446 101.756 347.25 101.432C347.058 101.104 346.962 100.74 346.962 100.34C346.962 99.948 347.062 99.588 347.262 99.26C347.462 98.932 347.726 98.67 348.054 98.474C348.382 98.278 348.738 98.18 349.122 98.18C349.518 98.18 349.878 98.278 350.202 98.474C350.53 98.666 350.792 98.926 350.988 99.254C351.184 99.578 351.282 99.94 351.282 100.34C351.282 100.74 351.184 101.104 350.988 101.432C350.792 101.756 350.53 102.016 350.202 102.212C349.878 102.404 349.518 102.5 349.122 102.5ZM349.122 101.558C349.342 101.558 349.544 101.502 349.728 101.39C349.916 101.278 350.064 101.13 350.172 100.946C350.284 100.762 350.34 100.56 350.34 100.34C350.34 100.12 350.284 99.918 350.172 99.734C350.064 99.546 349.916 99.398 349.728 99.29C349.544 99.178 349.342 99.122 349.122 99.122C348.902 99.122 348.7 99.178 348.516 99.29C348.332 99.398 348.184 99.546 348.072 99.734C347.96 99.918 347.904 100.12 347.904 100.34C347.904 100.56 347.96 100.762 348.072 100.946C348.184 101.13 348.332 101.278 348.516 101.39C348.7 101.502 348.902 101.558 349.122 101.558Z" fill="#A2D95E"/>
<path d="M324.177 98.8232C324.079 98.7256 323.921 98.7256 323.823 98.8232L322.232 100.414C322.135 100.512 322.135 100.67 322.232 100.768C322.33 100.865 322.488 100.865 322.586 100.768L324 99.3536L325.414 100.768C325.512 100.865 325.67 100.865 325.768 100.768C325.865 100.67 325.865 100.512 325.768 100.414L324.177 98.8232ZM324.25 107L324.25 99L323.75 99L323.75 107L324.25 107Z" fill="#A2D95E"/>
<rect x="444" y="24" width="137" height="100" rx="12" fill="white"/>
<path d="M463.124 52.21C462.121 52.21 461.269 51.9883 460.569 51.545C459.869 51.1017 459.335 50.4857 458.966 49.697C458.602 48.9083 458.42 47.996 458.42 46.96C458.42 45.924 458.602 45.0117 458.966 44.223C459.335 43.4343 459.869 42.8183 460.569 42.375C461.269 41.9317 462.121 41.71 463.124 41.71C464.291 41.71 465.25 42.0063 466.001 42.599C466.757 43.1917 467.277 43.9897 467.562 44.993L466.295 45.329C466.09 44.5777 465.723 43.985 465.196 43.551C464.669 43.117 463.978 42.9 463.124 42.9C462.373 42.9 461.747 43.0703 461.248 43.411C460.749 43.7517 460.373 44.2277 460.121 44.839C459.869 45.4457 459.741 46.1527 459.736 46.96C459.731 47.7627 459.855 48.4697 460.107 49.081C460.359 49.6877 460.737 50.1637 461.241 50.509C461.745 50.8497 462.373 51.02 463.124 51.02C463.978 51.02 464.669 50.803 465.196 50.369C465.723 49.9303 466.09 49.3377 466.295 48.591L467.562 48.927C467.277 49.9257 466.757 50.7237 466.001 51.321C465.25 51.9137 464.291 52.21 463.124 52.21ZM472.317 52.21C471.566 52.21 470.917 52.0397 470.371 51.699C469.83 51.3583 469.412 50.887 469.118 50.285C468.824 49.683 468.677 48.9923 468.677 48.213C468.677 47.4197 468.827 46.7243 469.125 46.127C469.424 45.5297 469.846 45.0653 470.392 44.734C470.938 44.398 471.58 44.23 472.317 44.23C473.073 44.23 473.724 44.4003 474.27 44.741C474.816 45.077 475.234 45.546 475.523 46.148C475.817 46.7453 475.964 47.4337 475.964 48.213C475.964 49.0017 475.817 49.697 475.523 50.299C475.229 50.8963 474.809 51.3653 474.263 51.706C473.717 52.042 473.069 52.21 472.317 52.21ZM472.317 51.027C473.101 51.027 473.685 50.7657 474.067 50.243C474.45 49.7203 474.641 49.0437 474.641 48.213C474.641 47.359 474.448 46.68 474.06 46.176C473.673 45.6673 473.092 45.413 472.317 45.413C471.79 45.413 471.356 45.532 471.015 45.77C470.675 46.008 470.42 46.337 470.252 46.757C470.084 47.177 470 47.6623 470 48.213C470 49.0623 470.196 49.7437 470.588 50.257C470.98 50.7703 471.557 51.027 472.317 51.027ZM482.888 52V48.213C482.888 47.8537 482.856 47.5083 482.79 47.177C482.73 46.8457 482.62 46.5493 482.461 46.288C482.307 46.022 482.097 45.812 481.831 45.658C481.57 45.504 481.239 45.427 480.837 45.427C480.525 45.427 480.24 45.4807 479.983 45.588C479.731 45.6907 479.514 45.8493 479.332 46.064C479.15 46.2787 479.008 46.5493 478.905 46.876C478.807 47.198 478.758 47.5783 478.758 48.017L477.939 47.765C477.939 47.0323 478.07 46.4047 478.331 45.882C478.597 45.3547 478.968 44.951 479.444 44.671C479.925 44.3863 480.49 44.244 481.138 44.244C481.628 44.244 482.046 44.321 482.391 44.475C482.737 44.629 483.024 44.8343 483.252 45.091C483.481 45.343 483.661 45.6277 483.791 45.945C483.922 46.2577 484.013 46.5773 484.064 46.904C484.12 47.226 484.148 47.5317 484.148 47.821V52H482.888ZM477.498 52V44.44H478.618V46.463H478.758V52H477.498ZM488.012 52L485.268 44.44H486.528L488.649 50.411L490.763 44.44H492.03L489.286 52H488.012ZM496.299 52.21C495.557 52.21 494.908 52.0467 494.353 51.72C493.802 51.3887 493.373 50.929 493.065 50.341C492.757 49.7483 492.603 49.0577 492.603 48.269C492.603 47.443 492.755 46.729 493.058 46.127C493.361 45.5203 493.784 45.0537 494.325 44.727C494.871 44.3957 495.51 44.23 496.243 44.23C497.004 44.23 497.65 44.405 498.182 44.755C498.719 45.105 499.12 45.6043 499.386 46.253C499.657 46.9017 499.773 47.674 499.736 48.57H498.476V48.122C498.462 47.1933 498.273 46.5003 497.909 46.043C497.545 45.581 497.004 45.35 496.285 45.35C495.515 45.35 494.929 45.5973 494.528 46.092C494.127 46.5867 493.926 47.296 493.926 48.22C493.926 49.1113 494.127 49.802 494.528 50.292C494.929 50.782 495.501 51.027 496.243 51.027C496.742 51.027 497.176 50.9127 497.545 50.684C497.914 50.4553 498.203 50.1263 498.413 49.697L499.61 50.11C499.316 50.7773 498.873 51.2953 498.28 51.664C497.692 52.028 497.032 52.21 496.299 52.21ZM493.506 48.57V47.569H499.092V48.57H493.506ZM501.294 52V44.44H502.407V46.267L502.225 46.029C502.314 45.7957 502.428 45.581 502.568 45.385C502.713 45.189 502.874 45.028 503.051 44.902C503.247 44.7433 503.469 44.622 503.716 44.538C503.964 44.454 504.216 44.405 504.472 44.391C504.729 44.3723 504.969 44.3887 505.193 44.44V45.609C504.932 45.539 504.645 45.5203 504.332 45.553C504.02 45.5857 503.73 45.7 503.464 45.896C503.222 46.0687 503.033 46.2787 502.897 46.526C502.767 46.7733 502.676 47.0417 502.624 47.331C502.573 47.6157 502.547 47.9073 502.547 48.206V52H501.294ZM509.1 52.203C508.199 52.203 507.459 52.007 506.881 51.615C506.307 51.2183 505.954 50.6653 505.824 49.956L507.098 49.753C507.2 50.1637 507.436 50.4903 507.805 50.733C508.173 50.971 508.631 51.09 509.177 51.09C509.695 51.09 510.101 50.9827 510.395 50.768C510.689 50.5533 510.836 50.2617 510.836 49.893C510.836 49.6783 510.787 49.5057 510.689 49.375C510.591 49.2397 510.388 49.1137 510.08 48.997C509.776 48.8803 509.317 48.7403 508.701 48.577C508.033 48.3997 507.508 48.2153 507.126 48.024C506.743 47.8327 506.47 47.611 506.307 47.359C506.143 47.107 506.062 46.8013 506.062 46.442C506.062 45.9987 506.183 45.6113 506.426 45.28C506.668 44.944 507.007 44.685 507.441 44.503C507.879 44.321 508.388 44.23 508.967 44.23C509.541 44.23 510.054 44.321 510.507 44.503C510.959 44.685 511.323 44.944 511.599 45.28C511.879 45.6113 512.044 45.9987 512.096 46.442L510.822 46.673C510.761 46.267 510.565 45.9473 510.234 45.714C509.907 45.4807 509.485 45.357 508.967 45.343C508.477 45.3243 508.078 45.4107 507.77 45.602C507.466 45.7933 507.315 46.0523 507.315 46.379C507.315 46.561 507.371 46.7173 507.483 46.848C507.599 46.9787 507.812 47.1023 508.12 47.219C508.432 47.3357 508.885 47.4687 509.478 47.618C510.145 47.786 510.67 47.9703 511.053 48.171C511.44 48.367 511.715 48.6003 511.879 48.871C512.042 49.137 512.124 49.466 512.124 49.858C512.124 50.586 511.855 51.16 511.319 51.58C510.782 51.9953 510.042 52.203 509.1 52.203ZM513.808 43.103V41.815H515.054V43.103H513.808ZM513.808 52V44.44H515.054V52H513.808ZM520.374 52.21C519.622 52.21 518.974 52.0397 518.428 51.699C517.886 51.3583 517.469 50.887 517.175 50.285C516.881 49.683 516.734 48.9923 516.734 48.213C516.734 47.4197 516.883 46.7243 517.182 46.127C517.48 45.5297 517.903 45.0653 518.449 44.734C518.995 44.398 519.636 44.23 520.374 44.23C521.13 44.23 521.781 44.4003 522.327 44.741C522.873 45.077 523.29 45.546 523.58 46.148C523.874 46.7453 524.021 47.4337 524.021 48.213C524.021 49.0017 523.874 49.697 523.58 50.299C523.286 50.8963 522.866 51.3653 522.32 51.706C521.774 52.042 521.125 52.21 520.374 52.21ZM520.374 51.027C521.158 51.027 521.741 50.7657 522.124 50.243C522.506 49.7203 522.698 49.0437 522.698 48.213C522.698 47.359 522.504 46.68 522.117 46.176C521.729 45.6673 521.148 45.413 520.374 45.413C519.846 45.413 519.412 45.532 519.072 45.77C518.731 46.008 518.477 46.337 518.309 46.757C518.141 47.177 518.057 47.6623 518.057 48.213C518.057 49.0623 518.253 49.7437 518.645 50.257C519.037 50.7703 519.613 51.027 520.374 51.027ZM530.945 52V48.213C530.945 47.8537 530.912 47.5083 530.847 47.177C530.786 46.8457 530.677 46.5493 530.518 46.288C530.364 46.022 530.154 45.812 529.888 45.658C529.627 45.504 529.295 45.427 528.894 45.427C528.581 45.427 528.297 45.4807 528.04 45.588C527.788 45.6907 527.571 45.8493 527.389 46.064C527.207 46.2787 527.065 46.5493 526.962 46.876C526.864 47.198 526.815 47.5783 526.815 48.017L525.996 47.765C525.996 47.0323 526.127 46.4047 526.388 45.882C526.654 45.3547 527.025 44.951 527.501 44.671C527.982 44.3863 528.546 44.244 529.195 44.244C529.685 44.244 530.103 44.321 530.448 44.475C530.793 44.629 531.08 44.8343 531.309 45.091C531.538 45.343 531.717 45.6277 531.848 45.945C531.979 46.2577 532.07 46.5773 532.121 46.904C532.177 47.226 532.205 47.5317 532.205 47.821V52H530.945ZM525.555 52V44.44H526.675V46.463H526.815V52H525.555ZM536.828 52V41.92H540.811C540.909 41.92 541.025 41.9247 541.161 41.934C541.296 41.9387 541.427 41.9527 541.553 41.976C542.099 42.06 542.556 42.2467 542.925 42.536C543.298 42.8253 543.578 43.1917 543.765 43.635C543.951 44.0737 544.045 44.5613 544.045 45.098C544.045 45.8773 543.842 46.554 543.436 47.128C543.03 47.6973 542.435 48.0543 541.651 48.199L541.175 48.276H538.074V52H536.828ZM542.827 52L540.839 47.898L542.071 47.52L544.255 52H542.827ZM538.074 47.093H540.769C540.857 47.093 540.958 47.0883 541.07 47.079C541.186 47.0697 541.296 47.0533 541.399 47.03C541.721 46.9553 541.982 46.82 542.183 46.624C542.388 46.4233 542.537 46.19 542.631 45.924C542.724 45.6533 542.771 45.378 542.771 45.098C542.771 44.818 542.724 44.545 542.631 44.279C542.537 44.0083 542.388 43.7727 542.183 43.572C541.982 43.3713 541.721 43.236 541.399 43.166C541.296 43.138 541.186 43.1217 541.07 43.117C540.958 43.1077 540.857 43.103 540.769 43.103H538.074V47.093ZM547.945 52.21C547.381 52.21 546.907 52.1073 546.524 51.902C546.146 51.692 545.859 51.4167 545.663 51.076C545.472 50.7353 545.376 50.362 545.376 49.956C545.376 49.5593 545.451 49.2163 545.6 48.927C545.754 48.633 545.969 48.3903 546.244 48.199C546.52 48.003 546.849 47.849 547.231 47.737C547.591 47.639 547.992 47.555 548.435 47.485C548.883 47.4103 549.336 47.3427 549.793 47.282C550.251 47.2213 550.678 47.163 551.074 47.107L550.626 47.366C550.64 46.694 550.505 46.197 550.22 45.875C549.94 45.553 549.455 45.392 548.764 45.392C548.307 45.392 547.906 45.497 547.56 45.707C547.22 45.9123 546.979 46.2483 546.839 46.715L545.656 46.358C545.838 45.6953 546.191 45.175 546.713 44.797C547.236 44.419 547.924 44.23 548.778 44.23C549.464 44.23 550.052 44.3537 550.542 44.601C551.037 44.8437 551.392 45.2123 551.606 45.707C551.714 45.9403 551.781 46.1947 551.809 46.47C551.837 46.7407 551.851 47.0253 551.851 47.324V52H550.745V50.187L551.004 50.355C550.72 50.9663 550.321 51.4283 549.807 51.741C549.299 52.0537 548.678 52.21 547.945 52.21ZM548.134 51.167C548.582 51.167 548.97 51.0877 549.296 50.929C549.628 50.7657 549.894 50.5533 550.094 50.292C550.295 50.026 550.426 49.7367 550.486 49.424C550.556 49.1907 550.594 48.9317 550.598 48.647C550.608 48.3577 550.612 48.136 550.612 47.982L551.046 48.171C550.64 48.227 550.241 48.2807 549.849 48.332C549.457 48.3833 549.086 48.4393 548.736 48.5C548.386 48.556 548.071 48.6237 547.791 48.703C547.586 48.7683 547.392 48.8523 547.21 48.955C547.033 49.0577 546.888 49.1907 546.776 49.354C546.669 49.5127 546.615 49.711 546.615 49.949C546.615 50.1543 546.667 50.3503 546.769 50.537C546.877 50.7237 547.04 50.8753 547.259 50.992C547.483 51.1087 547.775 51.167 548.134 51.167ZM557.892 52C557.444 52.0887 557.001 52.1237 556.562 52.105C556.128 52.091 555.741 52.0047 555.4 51.846C555.06 51.6827 554.801 51.4307 554.623 51.09C554.474 50.7913 554.392 50.4903 554.378 50.187C554.369 49.879 554.364 49.5313 554.364 49.144V42.34H555.61V49.088C555.61 49.396 555.613 49.6597 555.617 49.879C555.627 50.0983 555.676 50.2873 555.764 50.446C555.932 50.7447 556.198 50.9197 556.562 50.971C556.931 51.0223 557.374 51.0083 557.892 50.929V52ZM552.831 45.469V44.44H557.892V45.469H552.831ZM562.389 52.21C561.647 52.21 560.998 52.0467 560.443 51.72C559.892 51.3887 559.463 50.929 559.155 50.341C558.847 49.7483 558.693 49.0577 558.693 48.269C558.693 47.443 558.844 46.729 559.148 46.127C559.451 45.5203 559.873 45.0537 560.415 44.727C560.961 44.3957 561.6 44.23 562.333 44.23C563.093 44.23 563.74 44.405 564.272 44.755C564.808 45.105 565.21 45.6043 565.476 46.253C565.746 46.9017 565.863 47.674 565.826 48.57H564.566V48.122C564.552 47.1933 564.363 46.5003 563.999 46.043C563.635 45.581 563.093 45.35 562.375 45.35C561.605 45.35 561.019 45.5973 560.618 46.092C560.216 46.5867 560.016 47.296 560.016 48.22C560.016 49.1113 560.216 49.802 560.618 50.292C561.019 50.782 561.591 51.027 562.333 51.027C562.832 51.027 563.266 50.9127 563.635 50.684C564.003 50.4553 564.293 50.1263 564.503 49.697L565.7 50.11C565.406 50.7773 564.962 51.2953 564.37 51.664C563.782 52.028 563.121 52.21 562.389 52.21ZM559.596 48.57V47.569H565.182V48.57H559.596Z" fill="#C7C7C7"/>
<path d="M465.896 84.36C464.672 84.36 463.592 84.1 462.656 83.58C461.72 83.052 460.988 82.32 460.46 81.384C459.94 80.448 459.68 79.368 459.68 78.144V72.576C459.68 71.352 459.94 70.272 460.46 69.336C460.988 68.4 461.72 67.672 462.656 67.152C463.592 66.624 464.672 66.36 465.896 66.36C467.12 66.36 468.196 66.624 469.124 67.152C470.06 67.672 470.792 68.4 471.32 69.336C471.848 70.272 472.112 71.352 472.112 72.576V78.144C472.112 79.368 471.848 80.448 471.32 81.384C470.792 82.32 470.06 83.052 469.124 83.58C468.196 84.1 467.12 84.36 465.896 84.36ZM465.896 81.612C466.504 81.612 467.056 81.468 467.552 81.18C468.048 80.884 468.44 80.492 468.728 80.004C469.016 79.508 469.16 78.956 469.16 78.348V72.36C469.16 71.744 469.016 71.192 468.728 70.704C468.44 70.208 468.048 69.816 467.552 69.528C467.056 69.232 466.504 69.084 465.896 69.084C465.288 69.084 464.736 69.232 464.24 69.528C463.744 69.816 463.352 70.208 463.064 70.704C462.776 71.192 462.632 71.744 462.632 72.36V78.348C462.632 78.956 462.776 79.508 463.064 80.004C463.352 80.492 463.744 80.884 464.24 81.18C464.736 81.468 465.288 81.612 465.896 81.612ZM475.957 84V81.036H478.921V84H475.957ZM483.642 84L489.594 69.456H482.046V66.72H492.69V69.456L486.762 84H483.642ZM497.963 84L496.043 82.08L511.415 66.72L513.335 68.652L497.963 84ZM509.735 84.36C508.943 84.36 508.219 84.168 507.563 83.784C506.915 83.392 506.395 82.872 506.003 82.224C505.611 81.568 505.415 80.84 505.415 80.04C505.415 79.256 505.615 78.536 506.015 77.88C506.415 77.224 506.943 76.7 507.599 76.308C508.255 75.916 508.967 75.72 509.735 75.72C510.527 75.72 511.251 75.916 511.907 76.308C512.563 76.692 513.083 77.212 513.467 77.868C513.859 78.516 514.055 79.24 514.055 80.04C514.055 80.84 513.859 81.568 513.467 82.224C513.083 82.872 512.563 83.392 511.907 83.784C511.251 84.168 510.527 84.36 509.735 84.36ZM509.735 81.888C510.063 81.888 510.367 81.804 510.647 81.636C510.935 81.468 511.163 81.244 511.331 80.964C511.499 80.684 511.583 80.376 511.583 80.04C511.583 79.704 511.499 79.396 511.331 79.116C511.163 78.836 510.935 78.612 510.647 78.444C510.367 78.276 510.063 78.192 509.735 78.192C509.399 78.192 509.091 78.276 508.811 78.444C508.531 78.612 508.303 78.836 508.127 79.116C507.959 79.396 507.875 79.704 507.875 80.04C507.875 80.376 507.959 80.684 508.127 80.964C508.303 81.244 508.531 81.468 508.811 81.636C509.091 81.804 509.399 81.888 509.735 81.888ZM499.643 75C498.851 75 498.127 74.808 497.471 74.424C496.815 74.032 496.291 73.512 495.899 72.864C495.515 72.208 495.323 71.48 495.323 70.68C495.323 69.896 495.523 69.176 495.923 68.52C496.323 67.864 496.851 67.34 497.507 66.948C498.163 66.556 498.875 66.36 499.643 66.36C500.435 66.36 501.155 66.556 501.803 66.948C502.459 67.332 502.983 67.852 503.375 68.508C503.767 69.156 503.963 69.88 503.963 70.68C503.963 71.48 503.767 72.208 503.375 72.864C502.983 73.512 502.459 74.032 501.803 74.424C501.155 74.808 500.435 75 499.643 75ZM499.643 72.528C499.979 72.528 500.287 72.444 500.567 72.276C500.847 72.108 501.071 71.884 501.239 71.604C501.407 71.324 501.491 71.016 501.491 70.68C501.491 70.344 501.407 70.036 501.239 69.756C501.071 69.476 500.847 69.252 500.567 69.084C500.287 68.916 499.979 68.832 499.643 68.832C499.307 68.832 498.999 68.916 498.719 69.084C498.439 69.252 498.215 69.476 498.047 69.756C497.879 70.036 497.795 70.344 497.795 70.68C497.795 71.016 497.879 71.324 498.047 71.604C498.215 71.884 498.439 72.108 498.719 72.276C498.999 72.444 499.307 72.528 499.643 72.528Z" fill="#C7C7C7"/>
<path d="M467.666 98.186C468.218 98.186 468.716 98.318 469.16 98.582C469.604 98.846 469.956 99.206 470.216 99.662C470.48 100.118 470.612 100.636 470.612 101.216V104.09C470.612 104.694 470.482 105.228 470.222 105.692C469.962 106.156 469.602 106.52 469.142 106.784C468.686 107.048 468.162 107.18 467.57 107.18C467.098 107.18 466.656 107.082 466.244 106.886C465.836 106.69 465.49 106.412 465.206 106.052L466.004 105.344C466.18 105.592 466.406 105.792 466.682 105.944C466.958 106.092 467.254 106.166 467.57 106.166C467.954 106.166 468.292 106.074 468.584 105.89C468.88 105.706 469.11 105.466 469.274 105.17C469.442 104.874 469.526 104.554 469.526 104.21V102.476L469.76 102.74C469.512 103.1 469.194 103.388 468.806 103.604C468.418 103.82 467.996 103.928 467.54 103.928C467.004 103.928 466.524 103.802 466.1 103.55C465.676 103.298 465.34 102.958 465.092 102.53C464.844 102.098 464.72 101.614 464.72 101.078C464.72 100.542 464.854 100.056 465.122 99.62C465.39 99.18 465.746 98.832 466.19 98.576C466.638 98.316 467.13 98.186 467.666 98.186ZM467.666 99.218C467.322 99.218 467.008 99.302 466.724 99.47C466.444 99.634 466.22 99.858 466.052 100.142C465.884 100.422 465.8 100.734 465.8 101.078C465.8 101.422 465.882 101.736 466.046 102.02C466.214 102.3 466.438 102.524 466.718 102.692C467.002 102.86 467.316 102.944 467.66 102.944C468.004 102.944 468.318 102.86 468.602 102.692C468.886 102.524 469.11 102.3 469.274 102.02C469.442 101.736 469.526 101.422 469.526 101.078C469.526 100.738 469.442 100.428 469.274 100.148C469.11 99.864 468.886 99.638 468.602 99.47C468.322 99.302 468.01 99.218 467.666 99.218ZM472.298 107V105.824H473.474V107H472.298ZM478.286 107.18C477.738 107.18 477.24 107.048 476.792 106.784C476.348 106.52 475.994 106.16 475.73 105.704C475.47 105.244 475.34 104.726 475.34 104.15V101.276C475.34 100.672 475.47 100.138 475.73 99.674C475.994 99.206 476.354 98.842 476.81 98.582C477.27 98.318 477.794 98.186 478.382 98.186C478.858 98.186 479.3 98.284 479.708 98.48C480.12 98.672 480.466 98.95 480.746 99.314L479.948 100.022C479.776 99.77 479.552 99.57 479.276 99.422C479 99.274 478.702 99.2 478.382 99.2C478.002 99.2 477.664 99.292 477.368 99.476C477.076 99.656 476.846 99.896 476.678 100.196C476.51 100.492 476.426 100.812 476.426 101.156V102.89L476.192 102.626C476.444 102.266 476.764 101.978 477.152 101.762C477.54 101.546 477.96 101.438 478.412 101.438C478.948 101.438 479.428 101.564 479.852 101.816C480.28 102.068 480.616 102.41 480.86 102.842C481.108 103.27 481.232 103.752 481.232 104.288C481.232 104.824 481.098 105.31 480.83 105.746C480.562 106.182 480.204 106.53 479.756 106.79C479.312 107.05 478.822 107.18 478.286 107.18ZM478.286 106.148C478.63 106.148 478.944 106.066 479.228 105.902C479.512 105.734 479.736 105.51 479.9 105.23C480.068 104.946 480.152 104.632 480.152 104.288C480.152 103.944 480.068 103.63 479.9 103.346C479.736 103.062 479.512 102.838 479.228 102.674C478.948 102.506 478.636 102.422 478.292 102.422C477.948 102.422 477.634 102.506 477.35 102.674C477.07 102.838 476.846 103.062 476.678 103.346C476.51 103.63 476.426 103.944 476.426 104.288C476.426 104.628 476.508 104.94 476.672 105.224C476.84 105.504 477.064 105.728 477.344 105.896C477.628 106.064 477.942 106.148 478.286 106.148ZM483.753 107L483.033 106.28L490.965 98.36L491.685 99.08L483.753 107ZM489.885 107.18C489.489 107.18 489.127 107.084 488.799 106.892C488.475 106.696 488.215 106.436 488.019 106.112C487.823 105.784 487.725 105.42 487.725 105.02C487.725 104.628 487.825 104.268 488.025 103.94C488.225 103.612 488.489 103.35 488.817 103.154C489.145 102.958 489.501 102.86 489.885 102.86C490.281 102.86 490.643 102.958 490.971 103.154C491.299 103.346 491.559 103.606 491.751 103.934C491.947 104.258 492.045 104.62 492.045 105.02C492.045 105.42 491.947 105.784 491.751 106.112C491.559 106.436 491.299 106.696 490.971 106.892C490.643 107.084 490.281 107.18 489.885 107.18ZM489.885 106.238C490.105 106.238 490.307 106.182 490.491 106.07C490.679 105.958 490.827 105.81 490.935 105.626C491.047 105.442 491.103 105.24 491.103 105.02C491.103 104.8 491.047 104.598 490.935 104.414C490.827 104.226 490.679 104.078 490.491 103.97C490.307 103.858 490.105 103.802 489.885 103.802C489.665 103.802 489.463 103.858 489.279 103.97C489.095 104.078 488.947 104.226 488.835 104.414C488.723 104.598 488.667 104.8 488.667 105.02C488.667 105.24 488.723 105.442 488.835 105.626C488.947 105.81 489.095 105.958 489.279 106.07C489.463 106.182 489.665 106.238 489.885 106.238ZM484.833 102.5C484.437 102.5 484.075 102.404 483.747 102.212C483.419 102.016 483.157 101.756 482.961 101.432C482.769 101.104 482.673 100.74 482.673 100.34C482.673 99.948 482.773 99.588 482.973 99.26C483.173 98.932 483.437 98.67 483.765 98.474C484.093 98.278 484.449 98.18 484.833 98.18C485.229 98.18 485.589 98.278 485.913 98.474C486.241 98.666 486.503 98.926 486.699 99.254C486.895 99.578 486.993 99.94 486.993 100.34C486.993 100.74 486.895 101.104 486.699 101.432C486.503 101.756 486.241 102.016 485.913 102.212C485.589 102.404 485.229 102.5 484.833 102.5ZM484.833 101.558C485.053 101.558 485.255 101.502 485.439 101.39C485.627 101.278 485.775 101.13 485.883 100.946C485.995 100.762 486.051 100.56 486.051 100.34C486.051 100.12 485.995 99.918 485.883 99.734C485.775 99.546 485.627 99.398 485.439 99.29C485.255 99.178 485.053 99.122 484.833 99.122C484.613 99.122 484.411 99.178 484.227 99.29C484.043 99.398 483.895 99.546 483.783 99.734C483.671 99.918 483.615 100.12 483.615 100.34C483.615 100.56 483.671 100.762 483.783 100.946C483.895 101.13 484.043 101.278 484.227 101.39C484.411 101.502 484.613 101.558 484.833 101.558Z" fill="#FF94D5"/>
<path d="M458.177 107.177C458.079 107.274 457.921 107.274 457.823 107.177L456.232 105.586C456.135 105.488 456.135 105.33 456.232 105.232C456.33 105.135 456.488 105.135 456.586 105.232L458 106.646L459.414 105.232C459.512 105.135 459.67 105.135 459.768 105.232C459.865 105.33 459.865 105.488 459.768 105.586L458.177 107.177ZM458.25 99L458.25 107L457.75 107L457.75 99L458.25 99Z" fill="#FF94D5"/>
<rect x="25" y="140" width="557" height="194" rx="12" fill="white"/>
<line x1="55" y1="173.5" x2="541" y2="173.5" stroke="#E6E6E6"/>
<line x1="55" y1="211.5" x2="541" y2="211.5" stroke="#E6E6E6"/>
<line x1="55" y1="249.5" x2="541" y2="249.5" stroke="#E6E6E6"/>
<line x1="55" y1="287.5" x2="541" y2="287.5" stroke="#E6E6E6"/>
<path d="M52 258L157.015 240.267C169.628 238.137 175.934 237.072 182.307 236.907C188.679 236.742 195.032 237.48 207.738 238.954L293.872 248.952C313.39 251.217 323.148 252.35 332.847 251.374C342.545 250.399 351.883 247.347 370.558 241.241L538 186.5" stroke="#9498FF" stroke-width="2" stroke-linecap="round"/>
<path d="M52 265.5L152.174 234.828C163.249 231.437 168.787 229.742 174.498 229.665C180.21 229.588 185.791 231.135 196.953 234.227L306.301 264.519C324.02 269.427 332.879 271.882 341.641 270.405C350.403 268.929 357.966 263.709 373.09 253.27C387.6 243.255 405.205 231.104 421.209 220.058C428.823 214.803 432.63 212.175 436.897 210.492C441.164 208.808 445.742 208.128 454.896 206.769L537.512 194.5" stroke="#9498FF" stroke-linecap="round" stroke-linejoin="round" stroke-dasharray="2 2"/>
<path d="M58.21 303.168C57.782 303.168 57.384 303.09 57.016 302.934C56.648 302.774 56.33 302.55 56.062 302.262C55.798 301.97 55.604 301.624 55.48 301.224L56.506 300.93C56.638 301.33 56.858 301.634 57.166 301.842C57.474 302.05 57.82 302.152 58.204 302.148C58.556 302.14 58.86 302.06 59.116 301.908C59.376 301.752 59.576 301.54 59.716 301.272C59.86 301.004 59.932 300.694 59.932 300.342C59.932 299.806 59.772 299.372 59.452 299.04C59.132 298.704 58.712 298.536 58.192 298.536C58.048 298.536 57.896 298.556 57.736 298.596C57.58 298.636 57.434 298.692 57.298 298.764L56.782 297.918L59.986 295.02L60.124 295.38H55.822V294.36H60.916V295.386L58.186 298.002L58.174 297.624C58.746 297.584 59.246 297.678 59.674 297.906C60.102 298.134 60.434 298.46 60.67 298.884C60.91 299.308 61.03 299.794 61.03 300.342C61.03 300.894 60.906 301.382 60.658 301.806C60.41 302.23 60.074 302.564 59.65 302.808C59.226 303.048 58.746 303.168 58.21 303.168ZM65.506 303.18C64.946 303.18 64.446 303.054 64.006 302.802C63.57 302.546 63.224 302.2 62.968 301.764C62.716 301.324 62.59 300.824 62.59 300.264V297.096C62.59 296.536 62.716 296.036 62.968 295.596C63.224 295.156 63.57 294.81 64.006 294.558C64.446 294.306 64.946 294.18 65.506 294.18C66.066 294.18 66.566 294.306 67.006 294.558C67.446 294.81 67.792 295.156 68.044 295.596C68.296 296.036 68.422 296.536 68.422 297.096V300.264C68.422 300.824 68.296 301.324 68.044 301.764C67.792 302.2 67.446 302.546 67.006 302.802C66.566 303.054 66.066 303.18 65.506 303.18ZM65.506 302.154C65.846 302.154 66.154 302.072 66.43 301.908C66.706 301.744 66.926 301.524 67.09 301.248C67.254 300.968 67.336 300.66 67.336 300.324V297.03C67.336 296.69 67.254 296.382 67.09 296.106C66.926 295.83 66.706 295.61 66.43 295.446C66.154 295.282 65.846 295.2 65.506 295.2C65.17 295.2 64.862 295.282 64.582 295.446C64.306 295.61 64.086 295.83 63.922 296.106C63.758 296.382 63.676 296.69 63.676 297.03V300.324C63.676 300.66 63.758 300.968 63.922 301.248C64.086 301.524 64.306 301.744 64.582 301.908C64.862 302.072 65.17 302.154 65.506 302.154Z" fill="#C7C7C7"/>
<path d="M55.84 315V306.36H58.504C58.592 306.36 58.746 306.362 58.966 306.366C59.186 306.37 59.396 306.386 59.596 306.414C60.264 306.502 60.822 306.746 61.27 307.146C61.722 307.542 62.062 308.046 62.29 308.658C62.518 309.27 62.632 309.944 62.632 310.68C62.632 311.416 62.518 312.09 62.29 312.702C62.062 313.314 61.722 313.82 61.27 314.22C60.822 314.616 60.264 314.858 59.596 314.946C59.396 314.97 59.184 314.986 58.96 314.994C58.74 314.998 58.588 315 58.504 315H55.84ZM56.938 313.98H58.504C58.656 313.98 58.826 313.976 59.014 313.968C59.202 313.956 59.366 313.938 59.506 313.914C59.978 313.826 60.36 313.628 60.652 313.32C60.944 313.012 61.158 312.628 61.294 312.168C61.43 311.708 61.498 311.212 61.498 310.68C61.498 310.136 61.428 309.634 61.288 309.174C61.152 308.714 60.938 308.332 60.646 308.028C60.354 307.724 59.974 307.53 59.506 307.446C59.366 307.418 59.2 307.4 59.008 307.392C58.816 307.384 58.648 307.38 58.504 307.38H56.938V313.98ZM66.816 315.18C66.18 315.18 65.624 315.04 65.148 314.76C64.676 314.476 64.308 314.082 64.044 313.578C63.78 313.07 63.648 312.478 63.648 311.802C63.648 311.094 63.778 310.482 64.038 309.966C64.298 309.446 64.66 309.046 65.124 308.766C65.592 308.482 66.14 308.34 66.768 308.34C67.42 308.34 67.974 308.49 68.43 308.79C68.89 309.09 69.234 309.518 69.462 310.074C69.694 310.63 69.794 311.292 69.762 312.06H68.682V311.676C68.67 310.88 68.508 310.286 68.196 309.894C67.884 309.498 67.42 309.3 66.804 309.3C66.144 309.3 65.642 309.512 65.298 309.936C64.954 310.36 64.782 310.968 64.782 311.76C64.782 312.524 64.954 313.116 65.298 313.536C65.642 313.956 66.132 314.166 66.768 314.166C67.196 314.166 67.568 314.068 67.884 313.872C68.2 313.676 68.448 313.394 68.628 313.026L69.654 313.38C69.402 313.952 69.022 314.396 68.514 314.712C68.01 315.024 67.444 315.18 66.816 315.18ZM64.422 312.06V311.202H69.21V312.06H64.422ZM73.8278 315.18C73.1718 315.18 72.6138 315.034 72.1538 314.742C71.6978 314.446 71.3498 314.04 71.1098 313.524C70.8698 313.008 70.7458 312.42 70.7378 311.76C70.7458 311.084 70.8718 310.49 71.1158 309.978C71.3638 309.462 71.7178 309.06 72.1778 308.772C72.6378 308.484 73.1918 308.34 73.8398 308.34C74.5238 308.34 75.1118 308.508 75.6038 308.844C76.0998 309.18 76.4318 309.64 76.5998 310.224L75.5438 310.542C75.4078 310.166 75.1858 309.874 74.8778 309.666C74.5738 309.458 74.2238 309.354 73.8278 309.354C73.3838 309.354 73.0178 309.458 72.7298 309.666C72.4418 309.87 72.2278 310.154 72.0878 310.518C71.9478 310.878 71.8758 311.292 71.8718 311.76C71.8798 312.48 72.0458 313.062 72.3698 313.506C72.6978 313.946 73.1838 314.166 73.8278 314.166C74.2518 314.166 74.6038 314.07 74.8838 313.878C75.1638 313.682 75.3758 313.4 75.5198 313.032L76.5998 313.314C76.3758 313.918 76.0258 314.38 75.5498 314.7C75.0738 315.02 74.4998 315.18 73.8278 315.18Z" fill="#C7C7C7"/>
<path d="M142.256 303.18C141.696 303.18 141.196 303.054 140.756 302.802C140.32 302.546 139.974 302.2 139.718 301.764C139.466 301.324 139.34 300.824 139.34 300.264V297.096C139.34 296.536 139.466 296.036 139.718 295.596C139.974 295.156 140.32 294.81 140.756 294.558C141.196 294.306 141.696 294.18 142.256 294.18C142.816 294.18 143.316 294.306 143.756 294.558C144.196 294.81 144.542 295.156 144.794 295.596C145.046 296.036 145.172 296.536 145.172 297.096V300.264C145.172 300.824 145.046 301.324 144.794 301.764C144.542 302.2 144.196 302.546 143.756 302.802C143.316 303.054 142.816 303.18 142.256 303.18ZM142.256 302.154C142.596 302.154 142.904 302.072 143.18 301.908C143.456 301.744 143.676 301.524 143.84 301.248C144.004 300.968 144.086 300.66 144.086 300.324V297.03C144.086 296.69 144.004 296.382 143.84 296.106C143.676 295.83 143.456 295.61 143.18 295.446C142.904 295.282 142.596 295.2 142.256 295.2C141.92 295.2 141.612 295.282 141.332 295.446C141.056 295.61 140.836 295.83 140.672 296.106C140.508 296.382 140.426 296.69 140.426 297.03V300.324C140.426 300.66 140.508 300.968 140.672 301.248C140.836 301.524 141.056 301.744 141.332 301.908C141.612 302.072 141.92 302.154 142.256 302.154ZM148.358 303V295.542L146.732 296.526V295.332L148.358 294.36H149.444V303H148.358Z" fill="#C7C7C7"/>
<path d="M140.9 315.174C140.296 315.174 139.784 315.01 139.364 314.682C138.944 314.354 138.656 313.914 138.5 313.362L139.562 313.11C139.626 313.402 139.78 313.65 140.024 313.854C140.272 314.058 140.556 314.16 140.876 314.16C141.084 314.16 141.296 314.11 141.512 314.01C141.728 313.906 141.894 313.738 142.01 313.506C142.09 313.346 142.136 313.17 142.148 312.978C142.16 312.782 142.166 312.552 142.166 312.288V306.36H143.246V312.288C143.246 312.536 143.244 312.758 143.24 312.954C143.24 313.15 143.22 313.338 143.18 313.518C143.144 313.694 143.072 313.874 142.964 314.058C142.748 314.438 142.458 314.72 142.094 314.904C141.734 315.084 141.336 315.174 140.9 315.174ZM146.889 315.18C146.405 315.18 145.999 315.092 145.671 314.916C145.347 314.736 145.101 314.5 144.933 314.208C144.769 313.916 144.687 313.596 144.687 313.248C144.687 312.908 144.751 312.614 144.879 312.366C145.011 312.114 145.195 311.906 145.431 311.742C145.667 311.574 145.949 311.442 146.277 311.346C146.585 311.262 146.929 311.19 147.309 311.13C147.693 311.066 148.081 311.008 148.473 310.956C148.865 310.904 149.231 310.854 149.571 310.806L149.187 311.028C149.199 310.452 149.083 310.026 148.839 309.75C148.599 309.474 148.183 309.336 147.591 309.336C147.199 309.336 146.855 309.426 146.559 309.606C146.267 309.782 146.061 310.07 145.941 310.47L144.927 310.164C145.083 309.596 145.385 309.15 145.833 308.826C146.281 308.502 146.871 308.34 147.603 308.34C148.191 308.34 148.695 308.446 149.115 308.658C149.539 308.866 149.843 309.182 150.027 309.606C150.119 309.806 150.177 310.024 150.201 310.26C150.225 310.492 150.237 310.736 150.237 310.992V315H149.289V313.446L149.511 313.59C149.267 314.114 148.925 314.51 148.485 314.778C148.049 315.046 147.517 315.18 146.889 315.18ZM147.051 314.286C147.435 314.286 147.767 314.218 148.047 314.082C148.331 313.942 148.559 313.76 148.731 313.536C148.903 313.308 149.015 313.06 149.067 312.792C149.127 312.592 149.159 312.37 149.163 312.126C149.171 311.878 149.175 311.688 149.175 311.556L149.547 311.718C149.199 311.766 148.857 311.812 148.521 311.856C148.185 311.9 147.867 311.948 147.567 312C147.267 312.048 146.997 312.106 146.757 312.174C146.581 312.23 146.415 312.302 146.259 312.39C146.107 312.478 145.983 312.592 145.887 312.732C145.795 312.868 145.749 313.038 145.749 313.242C145.749 313.418 145.793 313.586 145.881 313.746C145.973 313.906 146.113 314.036 146.301 314.136C146.493 314.236 146.743 314.286 147.051 314.286ZM156.411 315V311.754C156.411 311.446 156.383 311.15 156.327 310.866C156.275 310.582 156.181 310.328 156.045 310.104C155.913 309.876 155.733 309.696 155.505 309.564C155.281 309.432 154.997 309.366 154.653 309.366C154.385 309.366 154.141 309.412 153.921 309.504C153.705 309.592 153.519 309.728 153.363 309.912C153.207 310.096 153.085 310.328 152.997 310.608C152.913 310.884 152.871 311.21 152.871 311.586L152.169 311.37C152.169 310.742 152.281 310.204 152.505 309.756C152.733 309.304 153.051 308.958 153.459 308.718C153.871 308.474 154.355 308.352 154.911 308.352C155.331 308.352 155.689 308.418 155.985 308.55C156.281 308.682 156.527 308.858 156.723 309.078C156.919 309.294 157.073 309.538 157.185 309.81C157.297 310.078 157.375 310.352 157.419 310.632C157.467 310.908 157.491 311.17 157.491 311.418V315H156.411ZM151.791 315V308.52H152.751V310.254H152.871V315H151.791Z" fill="#C7C7C7"/>
<path d="M223.756 303.18C223.196 303.18 222.696 303.054 222.256 302.802C221.82 302.546 221.474 302.2 221.218 301.764C220.966 301.324 220.84 300.824 220.84 300.264V297.096C220.84 296.536 220.966 296.036 221.218 295.596C221.474 295.156 221.82 294.81 222.256 294.558C222.696 294.306 223.196 294.18 223.756 294.18C224.316 294.18 224.816 294.306 225.256 294.558C225.696 294.81 226.042 295.156 226.294 295.596C226.546 296.036 226.672 296.536 226.672 297.096V300.264C226.672 300.824 226.546 301.324 226.294 301.764C226.042 302.2 225.696 302.546 225.256 302.802C224.816 303.054 224.316 303.18 223.756 303.18ZM223.756 302.154C224.096 302.154 224.404 302.072 224.68 301.908C224.956 301.744 225.176 301.524 225.34 301.248C225.504 300.968 225.586 300.66 225.586 300.324V297.03C225.586 296.69 225.504 296.382 225.34 296.106C225.176 295.83 224.956 295.61 224.68 295.446C224.404 295.282 224.096 295.2 223.756 295.2C223.42 295.2 223.112 295.282 222.832 295.446C222.556 295.61 222.336 295.83 222.172 296.106C222.008 296.382 221.926 296.69 221.926 297.03V300.324C221.926 300.66 222.008 300.968 222.172 301.248C222.336 301.524 222.556 301.744 222.832 301.908C223.112 302.072 223.42 302.154 223.756 302.154ZM228.112 302.994L228.118 302.034L231.952 298.584C232.272 298.296 232.486 298.024 232.594 297.768C232.706 297.508 232.762 297.242 232.762 296.97C232.762 296.638 232.686 296.338 232.534 296.07C232.382 295.802 232.174 295.59 231.91 295.434C231.65 295.278 231.354 295.2 231.022 295.2C230.678 295.2 230.372 295.282 230.104 295.446C229.836 295.606 229.624 295.82 229.468 296.088C229.316 296.356 229.242 296.648 229.246 296.964H228.154C228.154 296.42 228.28 295.94 228.532 295.524C228.784 295.104 229.126 294.776 229.558 294.54C229.994 294.3 230.488 294.18 231.04 294.18C231.576 294.18 232.056 294.304 232.48 294.552C232.904 294.796 233.238 295.13 233.482 295.554C233.73 295.974 233.854 296.45 233.854 296.982C233.854 297.358 233.806 297.684 233.71 297.96C233.618 298.236 233.474 298.492 233.278 298.728C233.082 298.96 232.836 299.208 232.54 299.472L229.354 302.334L229.216 301.974H233.854V302.994H228.112Z" fill="#C7C7C7"/>
<path d="M300.256 303.18C299.696 303.18 299.196 303.054 298.756 302.802C298.32 302.546 297.974 302.2 297.718 301.764C297.466 301.324 297.34 300.824 297.34 300.264V297.096C297.34 296.536 297.466 296.036 297.718 295.596C297.974 295.156 298.32 294.81 298.756 294.558C299.196 294.306 299.696 294.18 300.256 294.18C300.816 294.18 301.316 294.306 301.756 294.558C302.196 294.81 302.542 295.156 302.794 295.596C303.046 296.036 303.172 296.536 303.172 297.096V300.264C303.172 300.824 303.046 301.324 302.794 301.764C302.542 302.2 302.196 302.546 301.756 302.802C301.316 303.054 300.816 303.18 300.256 303.18ZM300.256 302.154C300.596 302.154 300.904 302.072 301.18 301.908C301.456 301.744 301.676 301.524 301.84 301.248C302.004 300.968 302.086 300.66 302.086 300.324V297.03C302.086 296.69 302.004 296.382 301.84 296.106C301.676 295.83 301.456 295.61 301.18 295.446C300.904 295.282 300.596 295.2 300.256 295.2C299.92 295.2 299.612 295.282 299.332 295.446C299.056 295.61 298.836 295.83 298.672 296.106C298.508 296.382 298.426 296.69 298.426 297.03V300.324C298.426 300.66 298.508 300.968 298.672 301.248C298.836 301.524 299.056 301.744 299.332 301.908C299.612 302.072 299.92 302.154 300.256 302.154ZM307.222 303.168C306.794 303.168 306.396 303.09 306.028 302.934C305.66 302.774 305.342 302.55 305.074 302.262C304.81 301.97 304.616 301.624 304.492 301.224L305.518 300.93C305.65 301.33 305.87 301.634 306.178 301.842C306.486 302.05 306.832 302.152 307.216 302.148C307.568 302.14 307.872 302.06 308.128 301.908C308.388 301.752 308.588 301.54 308.728 301.272C308.872 301.004 308.944 300.694 308.944 300.342C308.944 299.806 308.784 299.372 308.464 299.04C308.144 298.704 307.724 298.536 307.204 298.536C307.06 298.536 306.908 298.556 306.748 298.596C306.592 298.636 306.446 298.692 306.31 298.764L305.794 297.918L308.998 295.02L309.136 295.38H304.834V294.36H309.928V295.386L307.198 298.002L307.186 297.624C307.758 297.584 308.258 297.678 308.686 297.906C309.114 298.134 309.446 298.46 309.682 298.884C309.922 299.308 310.042 299.794 310.042 300.342C310.042 300.894 309.918 301.382 309.67 301.806C309.422 302.23 309.086 302.564 308.662 302.808C308.238 303.048 307.758 303.168 307.222 303.168Z" fill="#C7C7C7"/>
<path d="M376.756 303.18C376.196 303.18 375.696 303.054 375.256 302.802C374.82 302.546 374.474 302.2 374.218 301.764C373.966 301.324 373.84 300.824 373.84 300.264V297.096C373.84 296.536 373.966 296.036 374.218 295.596C374.474 295.156 374.82 294.81 375.256 294.558C375.696 294.306 376.196 294.18 376.756 294.18C377.316 294.18 377.816 294.306 378.256 294.558C378.696 294.81 379.042 295.156 379.294 295.596C379.546 296.036 379.672 296.536 379.672 297.096V300.264C379.672 300.824 379.546 301.324 379.294 301.764C379.042 302.2 378.696 302.546 378.256 302.802C377.816 303.054 377.316 303.18 376.756 303.18ZM376.756 302.154C377.096 302.154 377.404 302.072 377.68 301.908C377.956 301.744 378.176 301.524 378.34 301.248C378.504 300.968 378.586 300.66 378.586 300.324V297.03C378.586 296.69 378.504 296.382 378.34 296.106C378.176 295.83 377.956 295.61 377.68 295.446C377.404 295.282 377.096 295.2 376.756 295.2C376.42 295.2 376.112 295.282 375.832 295.446C375.556 295.61 375.336 295.83 375.172 296.106C375.008 296.382 374.926 296.69 374.926 297.03V300.324C374.926 300.66 375.008 300.968 375.172 301.248C375.336 301.524 375.556 301.744 375.832 301.908C376.112 302.072 376.42 302.154 376.756 302.154ZM385.084 303V301.41H381.112V300.396L383.962 294.36H385.174L382.324 300.396H385.084V297.966H386.164V300.396H387.064V301.41H386.164V303H385.084Z" fill="#C7C7C7"/>
<path d="M453.256 303.18C452.696 303.18 452.196 303.054 451.756 302.802C451.32 302.546 450.974 302.2 450.718 301.764C450.466 301.324 450.34 300.824 450.34 300.264V297.096C450.34 296.536 450.466 296.036 450.718 295.596C450.974 295.156 451.32 294.81 451.756 294.558C452.196 294.306 452.696 294.18 453.256 294.18C453.816 294.18 454.316 294.306 454.756 294.558C455.196 294.81 455.542 295.156 455.794 295.596C456.046 296.036 456.172 296.536 456.172 297.096V300.264C456.172 300.824 456.046 301.324 455.794 301.764C455.542 302.2 455.196 302.546 454.756 302.802C454.316 303.054 453.816 303.18 453.256 303.18ZM453.256 302.154C453.596 302.154 453.904 302.072 454.18 301.908C454.456 301.744 454.676 301.524 454.84 301.248C455.004 300.968 455.086 300.66 455.086 300.324V297.03C455.086 296.69 455.004 296.382 454.84 296.106C454.676 295.83 454.456 295.61 454.18 295.446C453.904 295.282 453.596 295.2 453.256 295.2C452.92 295.2 452.612 295.282 452.332 295.446C452.056 295.61 451.836 295.83 451.672 296.106C451.508 296.382 451.426 296.69 451.426 297.03V300.324C451.426 300.66 451.508 300.968 451.672 301.248C451.836 301.524 452.056 301.744 452.332 301.908C452.612 302.072 452.92 302.154 453.256 302.154ZM460.408 303.18C459.964 303.18 459.55 303.088 459.166 302.904C458.786 302.72 458.46 302.468 458.188 302.148C457.92 301.824 457.728 301.452 457.612 301.032L458.638 300.756C458.71 301.04 458.838 301.286 459.022 301.494C459.206 301.698 459.42 301.858 459.664 301.974C459.912 302.086 460.17 302.142 460.438 302.142C460.79 302.142 461.106 302.058 461.386 301.89C461.67 301.718 461.894 301.492 462.058 301.212C462.222 300.928 462.304 300.618 462.304 300.282C462.304 299.934 462.218 299.62 462.046 299.34C461.878 299.056 461.652 298.832 461.368 298.668C461.084 298.504 460.774 298.422 460.438 298.422C460.058 298.422 459.732 298.502 459.46 298.662C459.192 298.818 458.98 299.01 458.824 299.238L457.876 298.878L458.14 294.36H462.778V295.374H458.656L459.13 294.93L458.908 298.548L458.674 298.242C458.914 297.986 459.2 297.788 459.532 297.648C459.868 297.508 460.21 297.438 460.558 297.438C461.094 297.438 461.574 297.564 461.998 297.816C462.422 298.064 462.758 298.404 463.006 298.836C463.254 299.264 463.378 299.746 463.378 300.282C463.378 300.814 463.242 301.3 462.97 301.74C462.698 302.176 462.336 302.526 461.884 302.79C461.436 303.05 460.944 303.18 460.408 303.18Z" fill="#C7C7C7"/>
<path d="M529.756 303.18C529.196 303.18 528.696 303.054 528.256 302.802C527.82 302.546 527.474 302.2 527.218 301.764C526.966 301.324 526.84 300.824 526.84 300.264V297.096C526.84 296.536 526.966 296.036 527.218 295.596C527.474 295.156 527.82 294.81 528.256 294.558C528.696 294.306 529.196 294.18 529.756 294.18C530.316 294.18 530.816 294.306 531.256 294.558C531.696 294.81 532.042 295.156 532.294 295.596C532.546 296.036 532.672 296.536 532.672 297.096V300.264C532.672 300.824 532.546 301.324 532.294 301.764C532.042 302.2 531.696 302.546 531.256 302.802C530.816 303.054 530.316 303.18 529.756 303.18ZM529.756 302.154C530.096 302.154 530.404 302.072 530.68 301.908C530.956 301.744 531.176 301.524 531.34 301.248C531.504 300.968 531.586 300.66 531.586 300.324V297.03C531.586 296.69 531.504 296.382 531.34 296.106C531.176 295.83 530.956 295.61 530.68 295.446C530.404 295.282 530.096 295.2 529.756 295.2C529.42 295.2 529.112 295.282 528.832 295.446C528.556 295.61 528.336 295.83 528.172 296.106C528.008 296.382 527.926 296.69 527.926 297.03V300.324C527.926 300.66 528.008 300.968 528.172 301.248C528.336 301.524 528.556 301.744 528.832 301.908C529.112 302.072 529.42 302.154 529.756 302.154ZM537.298 303.18C536.75 303.18 536.252 303.048 535.804 302.784C535.36 302.52 535.006 302.16 534.742 301.704C534.482 301.244 534.352 300.726 534.352 300.15V297.276C534.352 296.672 534.482 296.138 534.742 295.674C535.006 295.206 535.366 294.842 535.822 294.582C536.282 294.318 536.806 294.186 537.394 294.186C537.87 294.186 538.312 294.284 538.72 294.48C539.132 294.672 539.478 294.95 539.758 295.314L538.96 296.022C538.788 295.77 538.564 295.57 538.288 295.422C538.012 295.274 537.714 295.2 537.394 295.2C537.014 295.2 536.676 295.292 536.38 295.476C536.088 295.656 535.858 295.896 535.69 296.196C535.522 296.492 535.438 296.812 535.438 297.156V298.89L535.204 298.626C535.456 298.266 535.776 297.978 536.164 297.762C536.552 297.546 536.972 297.438 537.424 297.438C537.96 297.438 538.44 297.564 538.864 297.816C539.292 298.068 539.628 298.41 539.872 298.842C540.12 299.27 540.244 299.752 540.244 300.288C540.244 300.824 540.11 301.31 539.842 301.746C539.574 302.182 539.216 302.53 538.768 302.79C538.324 303.05 537.834 303.18 537.298 303.18ZM537.298 302.148C537.642 302.148 537.956 302.066 538.24 301.902C538.524 301.734 538.748 301.51 538.912 301.23C539.08 300.946 539.164 300.632 539.164 300.288C539.164 299.944 539.08 299.63 538.912 299.346C538.748 299.062 538.524 298.838 538.24 298.674C537.96 298.506 537.648 298.422 537.304 298.422C536.96 298.422 536.646 298.506 536.362 298.674C536.082 298.838 535.858 299.062 535.69 299.346C535.522 299.63 535.438 299.944 535.438 300.288C535.438 300.628 535.52 300.94 535.684 301.224C535.852 301.504 536.076 301.728 536.356 301.896C536.64 302.064 536.954 302.148 537.298 302.148Z" fill="#C7C7C7"/>
<path d="M549.524 177.12C549.159 177.12 548.827 177.032 548.528 176.856C548.232 176.68 547.996 176.44 547.82 176.136C547.647 175.829 547.56 175.484 547.56 175.1V173.184C547.56 172.781 547.647 172.425 547.82 172.116C547.996 171.804 548.236 171.561 548.54 171.388C548.847 171.212 549.196 171.124 549.588 171.124C549.905 171.124 550.2 171.189 550.472 171.32C550.747 171.448 550.977 171.633 551.164 171.876L550.632 172.348C550.517 172.18 550.368 172.047 550.184 171.948C550 171.849 549.801 171.8 549.588 171.8C549.335 171.8 549.109 171.861 548.912 171.984C548.717 172.104 548.564 172.264 548.452 172.464C548.34 172.661 548.284 172.875 548.284 173.104V174.26L548.128 174.084C548.296 173.844 548.509 173.652 548.768 173.508C549.027 173.364 549.307 173.292 549.608 173.292C549.965 173.292 550.285 173.376 550.568 173.544C550.853 173.712 551.077 173.94 551.24 174.228C551.405 174.513 551.488 174.835 551.488 175.192C551.488 175.549 551.399 175.873 551.22 176.164C551.041 176.455 550.803 176.687 550.504 176.86C550.208 177.033 549.881 177.12 549.524 177.12ZM549.524 176.432C549.753 176.432 549.963 176.377 550.152 176.268C550.341 176.156 550.491 176.007 550.6 175.82C550.712 175.631 550.768 175.421 550.768 175.192C550.768 174.963 550.712 174.753 550.6 174.564C550.491 174.375 550.341 174.225 550.152 174.116C549.965 174.004 549.757 173.948 549.528 173.948C549.299 173.948 549.089 174.004 548.9 174.116C548.713 174.225 548.564 174.375 548.452 174.564C548.34 174.753 548.284 174.963 548.284 175.192C548.284 175.419 548.339 175.627 548.448 175.816C548.56 176.003 548.709 176.152 548.896 176.264C549.085 176.376 549.295 176.432 549.524 176.432ZM554.473 177.12C554.099 177.12 553.766 177.036 553.473 176.868C553.182 176.697 552.951 176.467 552.781 176.176C552.613 175.883 552.529 175.549 552.529 175.176V173.064C552.529 172.691 552.613 172.357 552.781 172.064C552.951 171.771 553.182 171.54 553.473 171.372C553.766 171.204 554.099 171.12 554.473 171.12C554.846 171.12 555.179 171.204 555.473 171.372C555.766 171.54 555.997 171.771 556.165 172.064C556.333 172.357 556.417 172.691 556.417 173.064V175.176C556.417 175.549 556.333 175.883 556.165 176.176C555.997 176.467 555.766 176.697 555.473 176.868C555.179 177.036 554.846 177.12 554.473 177.12ZM554.473 176.436C554.699 176.436 554.905 176.381 555.089 176.272C555.273 176.163 555.419 176.016 555.529 175.832C555.638 175.645 555.693 175.44 555.693 175.216V173.02C555.693 172.793 555.638 172.588 555.529 172.404C555.419 172.22 555.273 172.073 555.089 171.964C554.905 171.855 554.699 171.8 554.473 171.8C554.249 171.8 554.043 171.855 553.857 171.964C553.673 172.073 553.526 172.22 553.417 172.404C553.307 172.588 553.253 172.793 553.253 173.02V175.216C553.253 175.44 553.307 175.645 553.417 175.832C553.526 176.016 553.673 176.163 553.857 176.272C554.043 176.381 554.249 176.436 554.473 176.436ZM559.481 177.12C559.107 177.12 558.774 177.036 558.481 176.868C558.19 176.697 557.959 176.467 557.789 176.176C557.621 175.883 557.537 175.549 557.537 175.176V173.064C557.537 172.691 557.621 172.357 557.789 172.064C557.959 171.771 558.19 171.54 558.481 171.372C558.774 171.204 559.107 171.12 559.481 171.12C559.854 171.12 560.187 171.204 560.481 171.372C560.774 171.54 561.005 171.771 561.173 172.064C561.341 172.357 561.425 172.691 561.425 173.064V175.176C561.425 175.549 561.341 175.883 561.173 176.176C561.005 176.467 560.774 176.697 560.481 176.868C560.187 177.036 559.854 177.12 559.481 177.12ZM559.481 176.436C559.707 176.436 559.913 176.381 560.097 176.272C560.281 176.163 560.427 176.016 560.537 175.832C560.646 175.645 560.701 175.44 560.701 175.216V173.02C560.701 172.793 560.646 172.588 560.537 172.404C560.427 172.22 560.281 172.073 560.097 171.964C559.913 171.855 559.707 171.8 559.481 171.8C559.257 171.8 559.051 171.855 558.865 171.964C558.681 172.073 558.534 172.22 558.425 172.404C558.315 172.588 558.261 172.793 558.261 173.02V175.216C558.261 175.44 558.315 175.645 558.425 175.832C558.534 176.016 558.681 176.163 558.865 176.272C559.051 176.381 559.257 176.436 559.481 176.436Z" fill="#C7C7C7"/>
<path d="M550.048 215V213.94H547.4V213.264L549.3 209.24H550.108L548.208 213.264H550.048V211.644H550.768V213.264H551.368V213.94H550.768V215H550.048ZM554.27 215.12C553.896 215.12 553.563 215.036 553.27 214.868C552.979 214.697 552.748 214.467 552.578 214.176C552.41 213.883 552.326 213.549 552.326 213.176V211.064C552.326 210.691 552.41 210.357 552.578 210.064C552.748 209.771 552.979 209.54 553.27 209.372C553.563 209.204 553.896 209.12 554.27 209.12C554.643 209.12 554.976 209.204 555.27 209.372C555.563 209.54 555.794 209.771 555.962 210.064C556.13 210.357 556.214 210.691 556.214 211.064V213.176C556.214 213.549 556.13 213.883 555.962 214.176C555.794 214.467 555.563 214.697 555.27 214.868C554.976 215.036 554.643 215.12 554.27 215.12ZM554.27 214.436C554.496 214.436 554.702 214.381 554.886 214.272C555.07 214.163 555.216 214.016 555.326 213.832C555.435 213.645 555.49 213.44 555.49 213.216V211.02C555.49 210.793 555.435 210.588 555.326 210.404C555.216 210.22 555.07 210.073 554.886 209.964C554.702 209.855 554.496 209.8 554.27 209.8C554.046 209.8 553.84 209.855 553.654 209.964C553.47 210.073 553.323 210.22 553.214 210.404C553.104 210.588 553.05 210.793 553.05 211.02V213.216C553.05 213.44 553.104 213.645 553.214 213.832C553.323 214.016 553.47 214.163 553.654 214.272C553.84 214.381 554.046 214.436 554.27 214.436ZM559.277 215.12C558.904 215.12 558.571 215.036 558.277 214.868C557.987 214.697 557.756 214.467 557.585 214.176C557.417 213.883 557.333 213.549 557.333 213.176V211.064C557.333 210.691 557.417 210.357 557.585 210.064C557.756 209.771 557.987 209.54 558.277 209.372C558.571 209.204 558.904 209.12 559.277 209.12C559.651 209.12 559.984 209.204 560.277 209.372C560.571 209.54 560.801 209.771 560.969 210.064C561.137 210.357 561.221 210.691 561.221 211.064V213.176C561.221 213.549 561.137 213.883 560.969 214.176C560.801 214.467 560.571 214.697 560.277 214.868C559.984 215.036 559.651 215.12 559.277 215.12ZM559.277 214.436C559.504 214.436 559.709 214.381 559.893 214.272C560.077 214.163 560.224 214.016 560.333 213.832C560.443 213.645 560.497 213.44 560.497 213.216V211.02C560.497 210.793 560.443 210.588 560.333 210.404C560.224 210.22 560.077 210.073 559.893 209.964C559.709 209.855 559.504 209.8 559.277 209.8C559.053 209.8 558.848 209.855 558.661 209.964C558.477 210.073 558.331 210.22 558.221 210.404C558.112 210.588 558.057 210.793 558.057 211.02V213.216C558.057 213.44 558.112 213.645 558.221 213.832C558.331 214.016 558.477 214.163 558.661 214.272C558.848 214.381 559.053 214.436 559.277 214.436Z" fill="#C7C7C7"/>
<path d="M547.4 252.996L547.404 252.356L549.96 250.056C550.173 249.864 550.316 249.683 550.388 249.512C550.463 249.339 550.5 249.161 550.5 248.98C550.5 248.759 550.449 248.559 550.348 248.38C550.247 248.201 550.108 248.06 549.932 247.956C549.759 247.852 549.561 247.8 549.34 247.8C549.111 247.8 548.907 247.855 548.728 247.964C548.549 248.071 548.408 248.213 548.304 248.392C548.203 248.571 548.153 248.765 548.156 248.976H547.428C547.428 248.613 547.512 248.293 547.68 248.016C547.848 247.736 548.076 247.517 548.364 247.36C548.655 247.2 548.984 247.12 549.352 247.12C549.709 247.12 550.029 247.203 550.312 247.368C550.595 247.531 550.817 247.753 550.98 248.036C551.145 248.316 551.228 248.633 551.228 248.988C551.228 249.239 551.196 249.456 551.132 249.64C551.071 249.824 550.975 249.995 550.844 250.152C550.713 250.307 550.549 250.472 550.352 250.648L548.228 252.556L548.136 252.316H551.228V252.996H547.4ZM554.129 253.12C553.756 253.12 553.422 253.036 553.129 252.868C552.838 252.697 552.608 252.467 552.437 252.176C552.269 251.883 552.185 251.549 552.185 251.176V249.064C552.185 248.691 552.269 248.357 552.437 248.064C552.608 247.771 552.838 247.54 553.129 247.372C553.422 247.204 553.756 247.12 554.129 247.12C554.502 247.12 554.836 247.204 555.129 247.372C555.422 247.54 555.653 247.771 555.821 248.064C555.989 248.357 556.073 248.691 556.073 249.064V251.176C556.073 251.549 555.989 251.883 555.821 252.176C555.653 252.467 555.422 252.697 555.129 252.868C554.836 253.036 554.502 253.12 554.129 253.12ZM554.129 252.436C554.356 252.436 554.561 252.381 554.745 252.272C554.929 252.163 555.076 252.016 555.185 251.832C555.294 251.645 555.349 251.44 555.349 251.216V249.02C555.349 248.793 555.294 248.588 555.185 248.404C555.076 248.22 554.929 248.073 554.745 247.964C554.561 247.855 554.356 247.8 554.129 247.8C553.905 247.8 553.7 247.855 553.513 247.964C553.329 248.073 553.182 248.22 553.073 248.404C552.964 248.588 552.909 248.793 552.909 249.02V251.216C552.909 251.44 552.964 251.645 553.073 251.832C553.182 252.016 553.329 252.163 553.513 252.272C553.7 252.381 553.905 252.436 554.129 252.436ZM559.137 253.12C558.763 253.12 558.43 253.036 558.137 252.868C557.846 252.697 557.615 252.467 557.445 252.176C557.277 251.883 557.193 251.549 557.193 251.176V249.064C557.193 248.691 557.277 248.357 557.445 248.064C557.615 247.771 557.846 247.54 558.137 247.372C558.43 247.204 558.763 247.12 559.137 247.12C559.51 247.12 559.843 247.204 560.137 247.372C560.43 247.54 560.661 247.771 560.829 248.064C560.997 248.357 561.081 248.691 561.081 249.064V251.176C561.081 251.549 560.997 251.883 560.829 252.176C560.661 252.467 560.43 252.697 560.137 252.868C559.843 253.036 559.51 253.12 559.137 253.12ZM559.137 252.436C559.363 252.436 559.569 252.381 559.753 252.272C559.937 252.163 560.083 252.016 560.193 251.832C560.302 251.645 560.357 251.44 560.357 251.216V249.02C560.357 248.793 560.302 248.588 560.193 248.404C560.083 248.22 559.937 248.073 559.753 247.964C559.569 247.855 559.363 247.8 559.137 247.8C558.913 247.8 558.707 247.855 558.521 247.964C558.337 248.073 558.19 248.22 558.081 248.404C557.971 248.588 557.917 248.793 557.917 249.02V251.216C557.917 251.44 557.971 251.645 558.081 251.832C558.19 252.016 558.337 252.163 558.521 252.272C558.707 252.381 558.913 252.436 559.137 252.436Z" fill="#C7C7C7"/>
<path d="M549.504 291.12C549.131 291.12 548.797 291.036 548.504 290.868C548.213 290.697 547.983 290.467 547.812 290.176C547.644 289.883 547.56 289.549 547.56 289.176V287.064C547.56 286.691 547.644 286.357 547.812 286.064C547.983 285.771 548.213 285.54 548.504 285.372C548.797 285.204 549.131 285.12 549.504 285.12C549.877 285.12 550.211 285.204 550.504 285.372C550.797 285.54 551.028 285.771 551.196 286.064C551.364 286.357 551.448 286.691 551.448 287.064V289.176C551.448 289.549 551.364 289.883 551.196 290.176C551.028 290.467 550.797 290.697 550.504 290.868C550.211 291.036 549.877 291.12 549.504 291.12ZM549.504 290.436C549.731 290.436 549.936 290.381 550.12 290.272C550.304 290.163 550.451 290.016 550.56 289.832C550.669 289.645 550.724 289.44 550.724 289.216V287.02C550.724 286.793 550.669 286.588 550.56 286.404C550.451 286.22 550.304 286.073 550.12 285.964C549.936 285.855 549.731 285.8 549.504 285.8C549.28 285.8 549.075 285.855 548.888 285.964C548.704 286.073 548.557 286.22 548.448 286.404C548.339 286.588 548.284 286.793 548.284 287.02V289.216C548.284 289.44 548.339 289.645 548.448 289.832C548.557 290.016 548.704 290.163 548.888 290.272C549.075 290.381 549.28 290.436 549.504 290.436Z" fill="#C7C7C7"/>
<defs>
<filter id="filter0_d_61_167" x="20" y="24" width="138" height="108" filterUnits="userSpaceOnUse" color-interpolation-filters="sRGB">
<feFlood flood-opacity="0" result="BackgroundImageFix"/>
<feColorMatrix in="SourceAlpha" type="matrix" values="0 0 0 0 0 0 0 0 0 0 0 0 0 0 0 0 0 0 127 0" result="hardAlpha"/>
<feOffset dy="4"/>
<feGaussianBlur stdDeviation="2"/>
<feComposite in2="hardAlpha" operator="out"/>
<feColorMatrix type="matrix" values="0 0 0 0 0.553003 0 0 0 0 0.296913 0 0 0 0 0.970833 0 0 0 0.13 0"/>
<feBlend mode="normal" in2="BackgroundImageFix" result="effect1_dropShadow_61_167"/>
<feBlend mode="normal" in="SourceGraphic" in2="effect1_dropShadow_61_167" result="shape"/>
</filter>
</defs>
</svg>
