<svg width="686" height="429" viewBox="0 0 686 429" fill="none" xmlns="http://www.w3.org/2000/svg">
<g clip-path="url(#clip0_5_6)">
<path d="M77.3443 33.0591C180.663 -5.36301 285.673 28.6053 356.886 102.587C428.099 176.57 577.578 51.5246 656.846 125.386C710.947 175.793 686.164 305.39 611.988 361.523C511.166 437.819 135.559 440.109 73.2427 413.929C-33.2621 369.188 72.5574 286.341 22.8426 206.915C-35.8008 113.219 31.6891 50.0313 77.3443 33.0531V33.0591Z" fill="#E7F3FE"/>
<path d="M658.909 391.868C607.191 389.335 431.265 393.627 377.745 395.299C324.225 396.971 262.129 393.091 229.869 387.387C197.609 381.682 11.1007 387.872 19.5765 403.213C28.0523 418.553 102.666 410.073 187.289 416.239C271.913 422.405 462.242 415.468 505.183 416.239C548.123 417.01 587.484 414.697 642.811 411.622C698.139 408.548 688.885 393.338 658.907 391.868H658.909Z" fill="#CCE2FF"/>
<path opacity="0.5" d="M546.752 54.2422C546.96 52.3902 547.064 50.5281 547.065 48.6644C547.065 47.6609 547.033 46.6834 546.975 45.7039L537.777 42.7214C537.221 38.9051 536.124 35.1879 534.519 31.6823L540.619 24.1636C539.211 21.6882 537.595 19.3379 535.788 17.1387L526.589 20.1494C523.898 17.394 520.832 15.0331 517.482 13.1365L518.004 3.45424C515.415 2.27298 512.728 1.31871 509.974 0.602134L504.293 8.45395C500.498 7.8135 496.632 7.71215 492.809 8.15289L487.55 0C484.761 0.567774 482.027 1.377 479.378 2.41857L479.39 12.1149C475.945 13.8312 472.759 16.0266 469.927 18.636L460.91 15.1477C458.987 17.251 457.248 19.516 455.712 21.9177L461.407 29.7454C459.618 33.1606 458.325 36.8143 457.568 40.5958L448.226 43.0847C448.019 44.936 447.914 46.7975 447.914 48.6604C447.914 49.664 447.946 50.6434 448.004 51.6229L457.201 54.6055C457.757 58.4217 458.854 62.1389 460.459 65.6446L454.36 73.1612C455.766 75.6411 457.382 77.9954 459.191 80.1982L468.39 77.1875C471.078 79.9449 474.142 82.3079 477.491 84.2064L476.968 93.8887C479.558 95.0692 482.245 96.0228 484.999 96.7388L490.68 88.8869C494.474 89.5274 498.34 89.6287 502.163 89.188L507.423 97.3309C510.211 96.7634 512.944 95.9541 515.592 94.9123L515.58 85.2159C519.026 83.5001 522.213 81.3047 525.046 78.6948L534.062 82.1832C535.985 80.0794 537.724 77.8144 539.26 75.4132L533.566 67.5855C535.353 64.1685 536.646 60.5136 537.403 56.731L546.752 54.2422ZM497.484 68.1455C493.638 68.1474 489.877 67.0068 486.678 64.8677C483.479 62.7286 480.985 59.6872 479.511 56.1282C478.038 52.5691 477.651 48.6523 478.4 44.8732C479.149 41.094 481 37.6222 483.719 34.8969C486.438 32.1717 489.903 30.3153 493.675 29.5627C497.448 28.81 501.358 29.1949 504.912 30.6686C508.466 32.1424 511.504 34.6387 513.642 37.842C515.779 41.0452 516.92 44.8115 516.92 48.6644C516.92 53.829 514.873 58.7823 511.228 62.4353C507.584 66.0884 502.64 68.1423 497.484 68.1455Z" fill="#9EC8FF"/>
<path d="M524.018 71.1561C523.828 71.1557 523.642 71.1012 523.482 70.999C523.321 70.8967 523.193 70.7509 523.113 70.5786C523.032 70.4063 523.002 70.2145 523.026 70.0257C523.05 69.8369 523.127 69.6588 523.248 69.5123C526.821 65.2002 529.227 60.0401 530.233 54.5278C531.24 49.0156 530.814 43.3366 528.997 38.0368C528.954 37.9121 528.936 37.7802 528.944 37.6485C528.952 37.5169 528.986 37.3882 529.044 37.2696C529.101 37.1511 529.182 37.0451 529.28 36.9577C529.379 36.8703 529.494 36.8032 529.618 36.7602C529.743 36.7173 529.874 36.6993 530.006 36.7073C530.137 36.7153 530.266 36.7492 530.384 36.807C530.502 36.8647 530.608 36.9453 530.695 37.044C530.783 37.1428 530.85 37.2578 530.893 37.3824C532.821 43.0085 533.273 49.0369 532.204 54.8883C531.135 60.7397 528.582 66.2174 524.789 70.7948C524.695 70.9081 524.577 70.9992 524.444 71.0617C524.31 71.1241 524.165 71.1563 524.018 71.1561Z" fill="white"/>
<path d="M521.192 25.1812C520.937 25.1813 520.691 25.0837 520.505 24.9083C517.277 21.856 513.458 19.5005 509.284 17.9877C509.159 17.9438 509.044 17.8755 508.946 17.7868C508.847 17.6981 508.767 17.5906 508.71 17.4707C508.654 17.3508 508.621 17.2208 508.615 17.0882C508.609 16.9557 508.629 16.8232 508.674 16.6984C508.719 16.5737 508.788 16.4591 508.878 16.3614C508.968 16.2637 509.076 16.1848 509.196 16.1293C509.317 16.0737 509.447 16.0426 509.579 16.0378C509.711 16.0329 509.844 16.0544 509.968 16.1011C514.395 17.7081 518.446 20.2084 521.87 23.4471C522.016 23.5849 522.117 23.7636 522.161 23.9599C522.204 24.1562 522.188 24.3611 522.114 24.548C522.04 24.7349 521.912 24.8952 521.745 25.0081C521.579 25.121 521.383 25.1813 521.182 25.1812H521.192Z" fill="white"/>
<path d="M489.934 17.0605C489.69 17.0607 489.453 16.9713 489.27 16.8092C489.087 16.647 488.969 16.4233 488.939 16.1803C488.909 15.9372 488.969 15.6914 489.107 15.4894C489.245 15.2874 489.452 15.143 489.69 15.0834C492.465 14.3849 495.316 14.0323 498.178 14.0337C498.443 14.0337 498.698 14.1395 498.886 14.3277C499.074 14.5159 499.18 14.7711 499.18 15.0373C499.18 15.3034 499.074 15.5587 498.886 15.7469C498.698 15.9351 498.443 16.0408 498.178 16.0408C495.481 16.0396 492.795 16.3719 490.181 17.0303C490.1 17.0501 490.017 17.0602 489.934 17.0605Z" fill="white"/>
<path opacity="0.5" d="M467.486 0.142517H157.628V186.579H467.486V0.142517Z" fill="#9EC8FF"/>
<path d="M464.248 4.69061H172.724V175.843H464.248V4.69061Z" fill="white"/>
<path d="M421.306 93.144C435.2 79.8971 458.944 80.1982 458.443 100.37C457.942 120.541 459.606 122.448 465.322 133.019C485.159 169.735 441.678 167.574 423.544 168.778C405.41 169.982 406.913 135.761 410.119 116.794C413.325 97.8266 417.242 97.0198 421.306 93.144Z" fill="#303C60"/>
<path d="M427.798 208.8C423.344 246.269 415.251 273.965 414.349 291.726C413.447 309.487 409.843 379.424 409.843 379.424C409.843 379.424 419.759 378.73 420.663 377.217C421.567 375.703 439.298 336.271 438.396 311.889C437.494 287.507 456.107 250.425 456.107 250.425L451.621 214.046L427.798 208.8Z" fill="#4476BD"/>
<path d="M432.066 225.118L425.101 228.038C423.208 239.918 421.106 250.6 419.262 260.073C430.347 267.253 436.074 291.168 438.526 305.789C439.777 289.429 447.483 269.661 452.264 258.727L432.066 225.118Z" fill="#3E6BAB"/>
<path d="M464.226 205.026C464.226 205.026 479.238 224.206 478.767 245.972C478.052 279.089 474.445 288.556 480.721 323.291C483.172 336.858 475.311 381.235 475.311 381.235C475.311 381.235 468.596 381.763 464.99 379.964C465.29 376.703 460.65 323.661 451.613 299.278C447.234 287.471 441.085 254.401 437.787 235.436C434.489 216.471 433.88 212.555 435.082 212.555C436.284 212.555 464.226 205.026 464.226 205.026Z" fill="#4476BD"/>
<path d="M378.707 151.752C378.707 151.752 379.374 141.827 378.306 138.76C377.238 135.693 368.019 133.019 368.019 133.019C368.019 133.019 367.618 147.202 368.554 148.942C369.489 150.682 374.966 155.631 374.966 155.631L378.707 151.752Z" fill="#F09959"/>
<path d="M430.533 144.512C409.428 167.273 402.551 176.849 400.948 176.849C395.939 167.991 379.308 149.257 379.308 149.257L372.194 153.825C372.194 153.825 388.589 196.733 399.008 197.179C409.428 197.624 430.605 182.382 430.868 180.632C431.13 178.882 430.533 144.512 430.533 144.512Z" fill="#A2DFF2"/>
<path d="M370.495 129.647L347.288 134.313L350.246 149.076L373.453 144.41L370.495 129.647Z" fill="black"/>
<path d="M373.116 150.547C373.437 144.442 370.415 136.114 368.68 136.124C366.945 136.134 369.213 141.582 368.279 145.194C367.772 147.153 373.116 150.547 373.116 150.547Z" fill="#F09959"/>
<path d="M408.522 194.951C418.846 190.736 430.674 181.935 430.874 180.63C431.144 178.88 430.533 144.52 430.533 144.52C425.925 149.48 421.917 153.879 418.429 157.727C414.648 171.831 414.896 187.187 408.522 194.951Z" fill="#96CFE0"/>
<path d="M451.973 129.539C451.973 129.539 472.169 139.681 476.577 157.639C480.985 175.596 467.941 197.763 466.338 209.597C464.735 221.431 427.866 223.514 427.866 210.845C427.866 198.702 418.629 172.923 419.15 166.357C420.384 150.935 442.86 132.068 442.86 132.068L451.973 129.539Z" fill="#A2DFF2"/>
<path d="M446.112 106.287L454.783 133.071C454.783 133.071 445.525 140.229 429.682 157.442C430.297 145.987 439.879 133.499 439.879 133.499L433.32 108.209L446.112 106.287Z" fill="#F09959"/>
<path d="M450.16 118.779L446.114 106.287L433.323 108.205L439.881 133.495C439.881 133.495 439.24 134.519 438.296 136.124C444.475 131.532 448.264 125.814 450.16 118.779Z" fill="#E38540"/>
<path d="M441.323 112.332C438.985 120.854 429.93 125.545 423.49 123.773C417.05 122 415.676 114.438 418.016 105.909C420.356 97.3811 427.468 91.9137 433.902 93.684C440.336 95.4542 443.662 103.81 441.323 112.332Z" fill="#F09959"/>
<path d="M426.255 198.828C429.061 216.648 418.641 254.775 418.641 254.775C418.641 254.775 424.853 256.18 443.488 254.373C462.122 252.567 470.338 233.939 473.143 233.419C475.948 232.899 477.389 250.754 478.771 252.165C480.154 253.576 480.374 229.616 476.75 220.196C470.338 203.499 471.592 196.416 473.99 186.298C478.252 168.318 426.255 198.828 426.255 198.828Z" fill="#A2DFF2"/>
<path d="M410.286 370.653C411.965 377.477 408.65 382.897 404.216 386.851C400.609 390.062 389.523 391.427 390.056 393.033C390.589 394.638 403.681 395.148 408.089 394.478C412.498 393.807 413.7 391.668 419.188 391.668C422.785 391.668 423.452 388.739 421.849 385.117C420.246 381.494 419.685 379.497 421.134 376.247C422.582 372.998 410.286 370.653 410.286 370.653Z" fill="#4476BD"/>
<path d="M475.708 370.653C475.439 377.746 474.618 383.029 476.355 386.309C483.061 391.929 488.636 398.311 486.508 398.753C476.355 400.852 472.482 394.757 466.737 393.025C459.688 390.899 467.404 382.026 464.643 370.645C463.108 364.319 475.287 365.828 475.287 365.828L475.708 370.653Z" fill="#4476BD"/>
<path d="M478.272 226.021C477.872 223.799 477.367 221.806 476.758 220.2C470.346 203.503 471.6 196.42 473.999 186.302C474.173 185.612 474.254 184.902 474.241 184.191C474.78 182.384 475.285 180.558 475.728 178.719L473.552 159.039L457.86 140.373C446.1 157.635 454.037 179.111 452.272 190.953C450.507 202.795 430.808 217.902 430.808 217.902L431.449 222.103C431.869 224.874 433.361 227.369 435.603 229.046C437.844 230.724 440.655 231.451 443.427 231.069C451.549 229.941 462.202 227.673 466.943 223.265C471.528 219 475.589 222.3 478.272 226.021Z" fill="#96CFE0"/>
<path d="M435.412 217.23C435.412 217.23 426.712 219.666 425.672 220.212C424.632 220.758 424.057 223.638 424.057 223.638C424.057 223.638 419.078 227.968 420.985 229.501C422.893 231.035 426.299 234.92 430.804 233.114C433.567 232.004 435.711 221.832 437.522 221.75C439.334 221.667 435.412 217.23 435.412 217.23Z" fill="#F09959"/>
<path d="M460.038 138.103C469.348 138.368 477.79 155.164 480.731 169.735C483.672 184.307 486.768 205.024 486.768 205.024C486.768 205.024 471.339 217.222 456.095 220.786C442.796 223.895 436.006 225.112 436.006 225.112L433.309 217.507L465.128 198.784C465.128 198.784 453.428 176.706 452.264 160.047C451.1 143.388 452.963 137.903 460.038 138.103Z" fill="#A2DFF2"/>
<path d="M419.733 96.3554C420.248 113.081 439.751 111.8 445.095 110.768C450.438 109.737 438.59 146.056 448.767 148.151C456.241 149.688 454.558 137.977 462.862 138.76C466.535 139.107 470.225 144.795 470.225 144.795C470.225 144.795 469.676 141.301 466.871 138.76C464.066 136.219 456.71 120.708 454.777 109.602C452.843 98.497 439.749 91.3135 435.879 91.0907C432.01 90.8679 422.52 95.2856 422.52 95.2856L419.733 96.3554Z" fill="#303C60"/>
<path d="M448.597 151.938C448.328 151.938 448.059 151.909 447.796 151.852C444.538 151.158 442.959 147.727 442.824 141.06C442.708 135.344 443.652 128.014 444.65 120.242C445.05 117.103 445.471 113.857 445.816 110.716C445.823 110.652 445.842 110.591 445.873 110.534C445.904 110.478 445.946 110.429 445.995 110.388C446.045 110.348 446.103 110.318 446.164 110.3C446.226 110.282 446.29 110.277 446.354 110.284C446.418 110.291 446.479 110.31 446.535 110.341C446.592 110.372 446.641 110.414 446.681 110.464C446.721 110.514 446.751 110.571 446.769 110.633C446.787 110.694 446.793 110.759 446.786 110.823C446.441 113.974 446.022 117.223 445.62 120.366C443.686 135.394 441.861 149.586 447.998 150.895C448.186 150.935 448.377 150.956 448.569 150.955C452.094 150.955 455.268 144.074 457.117 137.373C457.155 137.252 457.239 137.151 457.35 137.091C457.461 137.03 457.591 137.015 457.713 137.049C457.835 137.083 457.939 137.163 458.004 137.272C458.068 137.381 458.088 137.51 458.059 137.634C456.837 142.055 453.55 151.938 448.597 151.938Z" fill="#303C60"/>
<path d="M447.295 155.824C446.75 155.826 446.212 155.713 445.714 155.491C445.217 155.269 444.772 154.944 444.409 154.538C437.761 147.499 444.335 112.177 444.61 110.676C444.622 110.613 444.646 110.553 444.681 110.5C444.716 110.446 444.761 110.4 444.814 110.364C444.867 110.328 444.927 110.302 444.989 110.289C445.052 110.276 445.117 110.276 445.18 110.288C445.243 110.3 445.302 110.324 445.356 110.359C445.41 110.394 445.456 110.44 445.492 110.493C445.528 110.546 445.553 110.605 445.566 110.668C445.579 110.731 445.579 110.796 445.567 110.859C445.499 111.222 438.801 147.188 445.109 153.867C445.435 154.237 445.85 154.517 446.314 154.682C446.779 154.848 447.277 154.893 447.763 154.813C451.216 154.357 453.21 149.664 454.967 145.524C456.672 141.509 458.277 137.716 461.136 137.816C461.261 137.828 461.377 137.886 461.46 137.98C461.543 138.074 461.586 138.197 461.582 138.322C461.577 138.448 461.524 138.566 461.435 138.654C461.345 138.742 461.226 138.792 461.1 138.794H461.03C458.888 138.794 457.424 142.252 455.865 145.909C454.005 150.291 451.895 155.254 447.892 155.784C447.694 155.811 447.494 155.824 447.295 155.824Z" fill="#303C60"/>
<path d="M445.812 113.98C444.437 115.754 442.283 116.388 441.003 115.385C439.722 114.381 439.801 112.141 441.171 110.367C442.542 108.593 444.698 107.959 445.98 108.962C447.263 109.966 447.186 112.198 445.812 113.98Z" fill="#F09959"/>
<path d="M294.289 175.917C299.05 185.457 295.109 196.438 285.741 200.31C276.324 204.216 266.008 201.998 261.247 192.46C256.487 182.922 260.023 171.486 269.146 166.915C278.269 162.345 289.528 166.39 294.289 175.917Z" fill="#303C60"/>
<path d="M268.621 201.474C267.571 201.474 265.499 201.101 262.866 198.76C260.706 196.839 259.154 193.895 258.498 190.471C257.669 186.146 258.21 181.174 260.101 175.695C260.12 175.631 260.152 175.573 260.194 175.522C260.236 175.472 260.288 175.43 260.347 175.4C260.405 175.37 260.469 175.353 260.535 175.348C260.601 175.343 260.666 175.352 260.729 175.374C260.791 175.395 260.848 175.429 260.897 175.473C260.946 175.517 260.985 175.571 261.013 175.63C261.04 175.69 261.056 175.755 261.058 175.821C261.06 175.887 261.049 175.952 261.025 176.014C259.188 181.33 258.661 186.132 259.456 190.286C260.073 193.498 261.514 196.251 263.514 198.03C266.854 200.996 269.092 200.456 269.124 200.45C269.247 200.421 269.377 200.441 269.486 200.505C269.594 200.57 269.674 200.674 269.708 200.796C269.741 200.918 269.727 201.049 269.666 201.16C269.606 201.272 269.505 201.355 269.385 201.394C269.135 201.453 268.878 201.48 268.621 201.474Z" fill="#303C60"/>
<path d="M283.168 213.035C288.578 214.251 295.429 229.335 298.779 238.997C302.158 248.743 307.886 260.834 311.637 264.592C315.388 268.349 340.028 277.058 340.028 277.058C340.028 277.058 279.137 277.176 280.383 277.058C281.629 276.939 283.168 213.035 283.168 213.035Z" fill="#A8CEFF"/>
<path d="M315.509 272.204C312.176 271.727 300.15 273.276 305.27 271.131C310.389 268.985 309.678 266.241 309.678 266.241C309.678 266.241 302.414 272.323 301.106 267.004C299.976 262.418 299.543 246.226 295.257 229.999C291.716 221.95 287.084 213.902 283.184 213.027C283.184 213.027 283.048 218.739 282.822 226.751C284.316 244.482 286.855 270.531 287.498 277.096C295.569 277.108 309.079 277.096 320.378 277.082L327.894 276.723C327.894 276.723 318.843 272.68 315.509 272.204Z" fill="#93BBF0"/>
<path d="M263.251 209.683C263.251 209.683 246.019 219.331 241.996 221.382C237.972 223.434 253.253 283.659 256.651 286.238C260.049 288.817 289.957 286.684 293.361 283.428C296.766 280.173 290.756 270.197 293.696 250.217C296.635 230.236 284.707 212.985 283.174 213.025C281.641 213.065 271.635 209.681 271.635 209.681L263.251 209.683Z" fill="#A8CEFF"/>
<path d="M256.659 286.234C260.065 288.815 281.457 288.874 290.568 286.033C291.596 285.714 296.265 283.85 296.379 282.098C295.279 281.897 290.913 282.417 289.142 282.009C282.98 280.59 279.588 272.945 279.588 272.945C279.588 272.945 276.193 271.723 268.603 268.503C261.013 265.284 264.139 255.533 263.961 251.242C263.782 246.951 256.459 232.905 242.707 222.262L241.447 222.827C240.457 232.616 253.515 283.848 256.659 286.234Z" fill="#93BBF0"/>
<path d="M375.08 238.987H333.574L314.671 279.284H360.39L377.502 242.806C377.694 242.398 377.78 241.947 377.751 241.497C377.723 241.046 377.581 240.61 377.339 240.229C377.098 239.848 376.764 239.535 376.369 239.317C375.974 239.1 375.531 238.986 375.08 238.987Z" fill="#75A1DE"/>
<path d="M317.152 279.872H292.175C291.431 279.872 290.718 279.576 290.192 279.049C289.665 278.522 289.37 277.807 289.37 277.062C289.37 276.316 289.665 275.602 290.192 275.075C290.718 274.548 291.431 274.252 292.175 274.252H315.362L331.038 240.462C331.19 240.123 331.408 239.818 331.679 239.564C331.95 239.31 332.269 239.112 332.617 238.983C332.965 238.853 333.335 238.794 333.706 238.809C334.077 238.823 334.441 238.911 334.778 239.068C335.114 239.225 335.416 239.447 335.667 239.721C335.917 239.996 336.11 240.317 336.236 240.667C336.361 241.017 336.416 241.389 336.397 241.76C336.378 242.131 336.286 242.495 336.125 242.83L319.695 278.252C319.468 278.736 319.109 279.146 318.659 279.433C318.208 279.72 317.686 279.872 317.152 279.872Z" fill="#3E6BAB"/>
<path d="M273.831 271.261C284.665 273.288 287.33 275.781 293.235 276.735C299.93 277.814 299.134 279.298 294.161 279.298C289.188 279.298 276.692 279.498 272.404 278.537C268.116 277.576 273.831 271.261 273.831 271.261Z" fill="#F09959"/>
<path d="M240.649 222.508C232.346 249.105 220.574 279.282 222.449 279.282C224.325 279.282 272.005 281.212 273.881 279.605C275.756 277.997 275.219 271.825 274.953 271.02C274.686 270.215 247.844 265.443 247.844 265.443C247.844 265.443 251.379 258.544 252.72 245.06C254.06 231.576 242.216 217.466 240.649 222.508Z" fill="#A8CEFF"/>
<path d="M269.563 186.577L262.875 211.064C262.875 211.064 274.178 228.726 277.283 227.167C280.389 225.607 275.548 212.802 275.548 211.064C275.548 209.326 280.391 191.394 280.391 191.394L269.563 186.577Z" fill="#F09959"/>
<path d="M275.775 212.312C275.658 211.905 275.581 211.486 275.544 211.064C275.544 209.326 280.387 191.394 280.387 191.394L269.567 186.577L267.363 194.68C269.278 203.051 272.767 208.627 275.775 212.312Z" fill="#E38540"/>
<path d="M294.59 186.174C295.864 193.273 295.024 202.702 288.731 205.101C282.437 207.499 274.855 202.911 271.795 194.864C268.735 186.818 271.36 178.336 277.656 175.937C283.952 173.539 293.067 177.69 294.59 186.174Z" fill="#F09959"/>
<path d="M273.29 190.168C274.172 192.651 273.406 195.186 271.579 195.842C269.751 196.498 267.553 195.011 266.672 192.528C265.79 190.045 266.555 187.51 268.383 186.854C270.21 186.198 272.408 187.687 273.29 190.168Z" fill="#F09959"/>
<path d="M294.67 177.252C292.526 193.911 272.318 191.767 272.318 191.767C272.318 191.767 268.15 186.28 266.275 189.158C264.399 192.036 268.88 172.266 280.471 171.642C284.282 171.439 294.67 177.252 294.67 177.252Z" fill="#303C60"/>
<path d="M263.191 180.496C269.235 180.496 274.135 175.89 274.135 170.209C274.135 164.528 269.235 159.923 263.191 159.923C257.147 159.923 252.247 164.528 252.247 170.209C252.247 175.89 257.147 180.496 263.191 180.496Z" fill="#303C60"/>
<path d="M241.37 400.359H243.895L260.045 325.353H254.535L241.37 400.359Z" fill="#2E5B9A"/>
<path d="M319.196 400.359H316.691L297.876 322.703H303.386L319.196 400.359Z" fill="#2E5B9A"/>
<path d="M269.944 328.163C259.925 328.163 253.565 326.356 249.506 322.404C244.482 317.501 243.442 309.906 243.426 300.009C243.414 292.221 243.226 287.149 242.809 283.051C242.743 282.315 242.969 281.583 243.439 281.013C243.908 280.443 244.582 280.081 245.316 280.005C246.049 279.929 246.783 280.146 247.358 280.608C247.934 281.071 248.304 281.741 248.389 282.475C248.832 286.772 249.025 292.015 249.037 300.001C249.053 310.037 250.323 315.353 253.421 318.378C256.601 321.479 262.348 322.76 272.056 322.515C281.427 322.284 287.885 320.971 293.061 319.905C299.874 318.517 304.805 317.515 310.646 320.307C310.985 320.462 311.289 320.683 311.542 320.957C311.795 321.231 311.991 321.553 312.118 321.904C312.245 322.255 312.301 322.627 312.283 323C312.265 323.373 312.173 323.738 312.013 324.075C311.852 324.412 311.626 324.713 311.348 324.961C311.07 325.21 310.745 325.4 310.392 325.521C310.04 325.642 309.667 325.692 309.295 325.667C308.924 325.642 308.56 325.544 308.227 325.377C304.081 323.392 300.565 324.108 294.179 325.409C288.781 326.507 282.06 327.876 272.194 328.121C271.426 328.149 270.676 328.163 269.944 328.163Z" fill="#2E5B9A"/>
<path d="M247.161 279.611L262.508 280.249L258.422 322.693C258.422 322.693 246.981 315.379 247.161 307.508C247.342 299.636 247.161 279.611 247.161 279.611Z" fill="#2E5B9A"/>
<path d="M322.922 283.565C335.899 281.592 340.309 282.214 348.252 297.012C356.195 311.811 366.764 338.475 372.846 341.917C381.999 347.102 385.032 359.815 388.791 359.243C392.55 358.671 394.971 360.337 390.879 363.743C386.788 367.149 380.185 370.047 377.925 369.443C375.665 368.839 373.918 359.062 368.015 355.887C362.112 352.712 363.889 350.106 364.276 347.298C364.662 344.491 347.056 331.563 333.783 315.486C325.672 305.663 321.494 299.178 320.877 293.301C320.26 287.424 322.922 283.565 322.922 283.565Z" fill="#F09959"/>
<path d="M355.083 337.255C352.077 329.596 349.047 316.955 346.204 305.366C342.162 288.886 337.928 284.974 335.243 283.215C331.999 282.401 328.156 282.774 322.912 283.571C322.912 283.571 320.247 287.438 320.867 293.313C321.486 299.188 325.662 305.675 333.773 315.498C340.76 323.964 348.949 331.555 355.083 337.255Z" fill="#E38540"/>
<path d="M326.87 296.591C326.87 296.591 323.417 322.683 320.203 325.339C317.903 327.237 316.274 327.362 314.667 319.58C313.06 311.799 317.166 282.748 317.166 282.748L326.87 296.591Z" fill="#2E5B9A"/>
<path d="M324.125 310.721L292.165 316.1L310.199 290.188L323.944 287.378L332.18 289.285L324.125 310.721Z" fill="#F09959"/>
<path d="M364.28 347.311C363.244 351.491 363.368 354.584 365.169 356.132C366.971 357.679 373.769 369.192 373.769 369.192L375.889 368.871L370.984 358.338L364.28 347.311Z" fill="#2E5B9A"/>
<path d="M377.925 369.449C380.185 370.051 386.79 367.153 390.879 363.749C394.969 360.345 392.55 358.679 388.791 359.249C388.582 359.281 388.368 359.271 388.162 359.219C386.285 363.42 380.109 366.571 378.117 362.133C376.142 357.735 367.682 348.982 364.274 347.108C364.282 347.174 364.282 347.242 364.274 347.309C363.887 350.118 362.114 352.728 368.013 355.897C373.912 359.066 375.667 368.843 377.925 369.449Z" fill="#2E5B9A"/>
<path d="M257.701 284.608C246.364 304.989 254.108 317.943 267.888 319.263C281.667 320.584 303.42 318.059 316.102 307.508C328.783 296.956 339.189 285.793 337.742 284.127C336.295 282.461 257.701 284.608 257.701 284.608Z" fill="#E38540"/>
<path d="M322.001 299.822C324.323 292.846 326.998 287.493 332.18 287.396C337.628 287.294 340.98 290.134 341.213 299.062C341.489 309.699 341.864 344.902 341.373 360.558C341.002 372.399 344.451 376.213 344.158 388.557C343.94 397.862 353.842 393.161 350.017 397.99C347.386 401.308 339.556 400.224 334.747 399.612C330.461 399.066 336.965 386.2 331.034 382.752C325.944 379.8 325.844 375.009 329.058 371.38C332.272 367.751 329.415 357.019 327.273 349.502C325.131 341.986 321.804 333.859 319.622 316.094C318.995 311.038 320.572 304.083 322.001 299.822Z" fill="#F09959"/>
<path d="M346.627 394.177C344.986 394.678 342.964 395.23 341.201 395.291C337.628 395.409 336.558 391.477 336.319 386.126C336.119 381.458 332.727 374.108 329.254 371.127C329.192 371.211 329.126 371.294 329.054 371.372C325.848 375.001 325.94 379.802 331.03 382.744C336.961 386.184 330.457 399.05 334.743 399.604C339.551 400.206 347.382 401.3 350.013 397.982C352.502 394.839 349.416 394.592 346.627 394.177Z" fill="#2E5B9A"/>
<path d="M329.855 370.051C329.855 370.051 324.646 375.5 325.123 377.766C325.599 380.033 327.206 385.757 327.475 390.168C327.743 394.58 327.98 399.648 327.98 399.648C327.98 399.648 329.855 399.648 330.004 399.114C330.152 398.58 331.196 381.179 331.196 381.179L329.855 370.051Z" fill="#2E5B9A"/>
<path d="M252.231 282.762C252.231 282.762 245.506 311.349 254.002 319.273C262.498 327.197 297.78 320.076 306.089 319.594C311.716 319.273 317.162 326.15 317.162 326.15C317.162 326.15 313.234 310.201 315.911 297.319C318.588 284.438 322.915 283.575 322.915 283.575L317.162 282.772L252.231 282.762Z" fill="#75A1DE"/>
<path d="M250.708 275.275C253.583 281.387 247.612 291.934 249.706 294.983C251.8 298.032 263.778 295.409 271.629 289.08C279.479 282.752 294.343 281.359 294.343 281.359L250.708 275.275Z" fill="#A8CEFF"/>
<path d="M262.87 327.36C286.623 328.255 311.625 327.832 311.625 324.287C311.625 320.742 310.555 318.238 292.159 319.671C273.763 321.104 261.263 323.069 255.727 321.816C250.191 320.564 262.87 327.36 262.87 327.36Z" fill="#2E5B9A"/>
<path d="M516.171 279.29H181.511C180.082 279.29 178.924 280.45 178.924 281.881V283.175C178.924 284.606 180.082 285.767 181.511 285.767H516.171C517.6 285.767 518.758 284.606 518.758 283.175V281.881C518.758 280.45 517.6 279.29 516.171 279.29Z" fill="#2E5B9A"/>
<path d="M560.646 192.482C562.946 200.609 557.326 208.982 551.134 210.747C544.943 212.511 540.527 206.985 538.224 198.859C535.922 190.732 539.078 182.717 545.267 180.959C551.457 179.201 558.344 184.355 560.646 192.482Z" fill="#F09959"/>
<path d="M525.941 349.96C525.941 349.96 541.809 374.647 543.951 375.719C546.093 376.791 551.453 377.06 549.443 381.086C547.433 385.113 546.638 400.943 544.756 401.747C542.875 402.552 526.807 404.431 529.219 401.747C531.632 399.064 533.113 400.405 534.329 395.576C535.545 390.746 537.254 381.622 534.978 379.743C532.702 377.865 518.772 360.961 518.772 360.961L525.941 349.96Z" fill="#F09959"/>
<path d="M446.072 360.558C446.072 360.558 426.784 392.4 423.214 395.262C419.643 398.125 407.853 402.418 417.497 403.134C427.141 403.851 431.786 399.923 437.857 398.117C443.928 396.31 451.43 395.254 448.573 390.604C445.716 385.953 446.902 375.798 453.063 369.359C459.225 362.92 446.072 360.558 446.072 360.558Z" fill="#F09959"/>
<path d="M544.496 286.716C544.496 286.716 496.749 285.465 477.818 301.027C466.745 317.842 439.959 367.462 437.875 372.927C439.306 374.358 447.341 376.942 450.913 376.582C461.451 363.998 475.377 353.117 480.917 343.246C487.742 331.081 489.846 324.998 500.919 323.926C511.991 322.854 536.986 319.273 544.496 319.273C552.006 319.273 544.496 286.716 544.496 286.716Z" fill="#6791C9"/>
<path d="M586.134 403.209H583.629L565.695 328.203H571.186L586.134 403.209Z" fill="#2E5B9A"/>
<path d="M511.154 403.209H513.678L534.257 325.554H528.746L511.154 403.209Z" fill="#2E5B9A"/>
<path d="M571.707 283.444L543.945 288.245C543.945 288.245 507.056 288.584 490.195 291.73C474.852 294.592 472.592 312.054 490.195 336.087C500.193 349.735 508.647 360.638 525.935 372.923C530.333 369.688 532.017 368.466 533.231 360.68C531.979 358.962 528.74 348.206 527.735 346.102C518.173 326.079 505.409 318.806 505.233 316.827C507.375 313.34 561.999 335.011 572.859 322.262C583.228 310.109 571.707 283.444 571.707 283.444Z" fill="#75A1DE"/>
<path d="M572.849 220.481C565.537 219.454 558.091 220.846 551.126 225.9C545.041 232.122 538.156 242.359 538.579 259.263C539.114 280.739 535.263 282.108 539.28 288.01C556.04 294.943 584.701 324.727 577.952 292.795C573.065 269.676 588.67 252.44 576.081 226.796C575.065 224.704 573.777 222.679 572.849 220.481Z" fill="#F37168"/>
<path d="M538.585 267.347C538.26 278.537 536.681 281.835 537.888 285.343C544.72 286.041 557.218 288.779 560.342 293.159C563.912 298.176 567.485 298.885 565.818 295.186C564.151 291.487 559.746 286.242 566.533 268.234C573.32 250.227 576.534 238.043 569.867 225.529L538.585 267.347Z" fill="#D54A41"/>
<path d="M572.849 220.481C568.346 209.805 567.238 197.801 567.238 197.801L555.452 201.289C555.452 201.289 562.149 216.316 555.721 221.683C554.119 223.006 552.585 224.409 551.124 225.886C558.091 220.847 565.537 219.454 572.849 220.481Z" fill="#F09959"/>
<path d="M567.599 200.657C566.9 200.035 566.026 199.252 565.108 198.449L555.49 201.295C555.49 201.311 555.476 201.329 555.47 201.347C555.703 201.879 558.151 207.602 558.476 213.107C561.341 211.367 564.477 208.529 568.064 203.569C567.872 202.465 567.717 201.484 567.599 200.657Z" fill="#E38540"/>
<path d="M564.573 223.833C552.435 228.086 553.781 240.894 542.608 259.788C536.826 269.567 531.456 269.423 531.456 269.423C521.44 269.371 511.436 268.736 501.494 267.522C491.223 266.265 490.571 269.328 497.715 271.885C512.122 277.046 527.071 282.599 539.126 281.257C551.18 279.914 571.797 249.107 572.861 241.088C574.332 229.995 570.689 221.691 564.573 223.833Z" fill="#F09959"/>
<path d="M558.322 331.013C557.568 331.013 556.796 331.003 556.005 330.985C546.139 330.74 539.421 329.379 534.02 328.273C527.637 326.973 524.118 326.266 519.972 328.241C519.303 328.547 518.541 328.577 517.85 328.326C517.159 328.074 516.594 327.561 516.277 326.896C515.96 326.231 515.916 325.469 516.155 324.772C516.394 324.075 516.896 323.5 517.554 323.171C523.395 320.375 528.322 321.377 535.138 322.77C540.322 323.825 546.772 325.138 556.144 325.369C566.697 325.632 573.153 324.046 576.452 320.383C579.397 317.112 580.259 311.656 579.181 303.218C578.814 300.36 578.447 297.984 578.125 295.886C577.215 290.004 576.616 286.118 577.357 280.127C578.049 274.541 579.898 267.08 584.182 252.629C584.395 251.914 584.882 251.314 585.537 250.959C586.191 250.604 586.96 250.524 587.674 250.737C588.387 250.95 588.987 251.438 589.341 252.094C589.695 252.75 589.775 253.52 589.562 254.235C581.547 281.277 581.948 283.916 583.669 295.029C583.998 297.159 584.37 299.573 584.747 302.504C586.053 312.69 584.747 319.564 580.617 324.149C576.367 328.863 569.438 331.013 558.322 331.013Z" fill="#2E5B9A"/>
<path d="M447.395 387.393C434.595 393.663 427.708 397.256 423.604 396.914C422.637 396.832 421.833 396.734 421.16 396.629C416.595 399.331 409.312 402.524 417.507 403.132C427.151 403.847 431.796 399.921 437.867 398.115C443.938 396.308 451.44 395.252 448.583 390.602C448.001 389.611 447.599 388.524 447.395 387.393Z" fill="#D54A41"/>
<path d="M545.338 376.233C545.025 386.383 543.632 396.441 537.435 398.341C535.992 398.797 534.469 398.934 532.968 398.743C531.995 399.947 530.804 399.965 529.209 401.741C526.805 404.425 542.871 402.544 544.746 401.741C546.622 400.939 547.423 385.104 549.433 381.08C551.084 377.769 547.764 376.998 545.338 376.233Z" fill="#D54A41"/>
<path d="M496.046 279.872H455.388C454.853 279.871 454.33 279.718 453.88 279.43C453.429 279.142 453.07 278.731 452.845 278.246L436.414 242.824C436.254 242.489 436.162 242.125 436.143 241.754C436.124 241.383 436.178 241.011 436.304 240.661C436.429 240.311 436.623 239.99 436.873 239.715C437.123 239.441 437.425 239.219 437.762 239.062C438.098 238.905 438.463 238.817 438.834 238.803C439.204 238.788 439.575 238.847 439.922 238.977C440.27 239.106 440.589 239.304 440.86 239.558C441.131 239.812 441.349 240.117 441.502 240.456L457.179 274.252H496.052C496.796 274.252 497.509 274.548 498.035 275.075C498.561 275.602 498.857 276.316 498.857 277.062C498.857 277.807 498.561 278.522 498.035 279.049C497.509 279.576 496.796 279.872 496.052 279.872H496.046Z" fill="#75A1DE"/>
<path d="M571.647 210.747L572.849 220.489C572.849 220.489 562.217 221.123 556.927 224.102C551.637 227.081 543.831 235.699 543.831 235.699L550.209 224.698L551.126 217.673L571.647 210.747Z" fill="#F2E5DE"/>
<path d="M504.541 267.889C496.326 267.771 488.179 262.871 484.131 263.58C480.084 264.288 466.867 273.479 468.534 273.836C470.201 274.193 480.679 268.754 481.035 268.672C481.392 268.59 483.654 272.439 489.251 273.854C494.847 275.269 489.291 269.653 506.637 274.9C517.922 278.312 504.541 267.889 504.541 267.889Z" fill="#F09959"/>
<path d="M567.118 222.669C559.221 221.188 555.569 228.275 550.449 239.844C545.33 251.413 536.595 265.463 534.852 267.273C533.109 269.083 505.563 267.273 505.563 267.273C505.563 267.273 504.73 275.263 505.563 276.219C506.397 277.174 511.16 277.054 511.16 277.054C511.16 277.054 513.063 278.577 514.849 279.783C516.634 280.99 531.756 283.256 538.781 282.896C545.806 282.537 552.234 281.943 553.188 280.869C554.142 279.795 573.31 250.219 574.5 239.605C575.69 228.991 571.148 223.426 567.118 222.669Z" fill="#F2E5DE"/>
<path d="M543.835 174.017C528.901 174.733 531.243 197.237 531.243 197.237C531.243 197.237 535.122 198.441 543.248 197.094C542.622 194.686 542.891 188.508 542.891 188.508C542.891 188.508 543.835 193.526 545.033 196.556C546.752 197.345 548.694 196.647 551.998 195.846C553.695 202.997 558.49 206.018 561.772 207.052C565.399 208.194 569.238 209.557 573.524 207.411C577.81 205.265 575.454 183.326 573.178 178.91C569.771 172.286 564.085 166.357 554.26 169.489C549.335 171.046 543.835 174.017 543.835 174.017Z" fill="#303C60"/>
<path d="M569.803 200.731L575.909 209.663C575.909 209.663 569.142 226.599 588.823 234.272C604.235 240.281 602.418 250.869 595.455 261.517C588.492 272.164 599.621 281.461 599.621 281.461C599.621 281.461 601.32 269.667 616.294 267.442C636.714 264.405 642.495 236.946 627.244 223.215C614.621 211.851 610.784 221.262 602.242 211.064C593.7 200.866 577.572 207.756 577.572 207.756L571.661 199.126L569.803 200.731Z" fill="#303C60"/>
<path d="M634.263 250.829C634.181 250.829 634.101 250.808 634.029 250.769C633.972 250.738 633.922 250.697 633.881 250.648C633.84 250.598 633.81 250.541 633.791 250.479C633.773 250.418 633.766 250.353 633.773 250.289C633.779 250.225 633.798 250.163 633.829 250.106C638.974 240.685 634.774 229.27 632.662 226.177C632.44 225.852 632.228 225.521 632.003 225.174C629.927 221.928 627.345 217.888 613.569 215.405C610.269 214.803 607.594 212.842 604.752 210.759C598.877 206.437 592.219 201.542 577.752 208.212C577.693 208.245 577.627 208.266 577.56 208.272C577.492 208.279 577.424 208.272 577.36 208.251C577.295 208.229 577.236 208.195 577.185 208.15C577.135 208.104 577.094 208.049 577.066 207.987C577.038 207.925 577.024 207.858 577.023 207.79C577.022 207.722 577.036 207.654 577.063 207.592C577.089 207.529 577.129 207.473 577.179 207.427C577.228 207.38 577.287 207.345 577.351 207.323C592.341 200.414 599.246 205.49 605.337 209.97C608.077 211.977 610.665 213.888 613.741 214.442C627.932 217.001 630.645 221.24 632.823 224.646C633.041 224.991 633.249 225.316 633.464 225.629C634.736 227.492 636.309 231.352 636.952 235.773C637.511 239.609 637.57 245.289 634.68 250.58C634.638 250.654 634.578 250.716 634.505 250.76C634.432 250.804 634.348 250.827 634.263 250.829Z" fill="#303C60"/>
<path d="M566.537 209.823C565.478 209.817 564.421 209.732 563.375 209.569C558.165 208.788 551.186 205.821 550.637 189.16C550.635 189.096 550.646 189.032 550.668 188.972C550.691 188.912 550.725 188.857 550.769 188.811C550.812 188.764 550.865 188.726 550.923 188.7C550.981 188.673 551.044 188.659 551.108 188.656C551.173 188.653 551.237 188.663 551.297 188.685C551.358 188.707 551.413 188.741 551.46 188.785C551.507 188.829 551.545 188.882 551.572 188.941C551.598 189 551.612 189.064 551.613 189.128C551.84 196.025 553.216 201.129 555.677 204.3C557.556 206.708 560.049 208.081 563.519 208.601C568.381 209.33 571.603 208.426 573.099 205.918C573.13 205.858 573.172 205.806 573.224 205.763C573.276 205.721 573.336 205.69 573.4 205.671C573.464 205.653 573.531 205.648 573.597 205.657C573.664 205.666 573.727 205.688 573.785 205.722C573.842 205.756 573.892 205.802 573.931 205.856C573.97 205.911 573.997 205.972 574.011 206.038C574.026 206.103 574.026 206.171 574.014 206.236C574.001 206.302 573.975 206.364 573.937 206.419C572.586 208.683 570.104 209.823 566.537 209.823Z" fill="#303C60"/>
<path d="M100.477 221.655C83.1551 231.583 59.0361 272.853 64.1196 279.591C69.2031 286.329 96.5321 268.616 96.5321 268.616L100.477 221.655Z" fill="#96CFE0"/>
<path d="M132.862 173.796C126.25 173.617 128.698 168.688 121.088 170.657C117.08 171.69 120.04 173.34 114.84 172.802C109.641 172.264 107.084 171.728 106.425 175.129C105.765 178.529 105.453 179.6 102.952 180.146C100.451 180.692 99.3233 185.164 102.952 188.195C106.581 191.226 104.818 192.49 104.014 194.993C103.211 197.496 105.95 197.676 107.438 200.011C108.927 202.345 106.068 202.777 108.212 204.792C110.356 206.807 113.36 206.63 113.36 206.63L122.376 189.303L132.862 173.796Z" fill="#303C60"/>
<path d="M267.699 381.773C267.699 381.773 277.343 382.042 284.843 379.091C292.343 376.141 297.433 371.577 296.094 376.944C294.756 382.311 288.594 391.517 283.236 392.414C277.878 393.312 276.003 399.214 273.057 399.214C270.112 399.214 265.824 392.414 258.324 389.016C251.497 385.917 267.699 381.773 267.699 381.773Z" fill="#2E5B9A"/>
<path d="M191.712 380.869C191.712 380.869 195.767 386.473 202.824 390.369C210.114 394.383 218.526 396.332 213.31 398.153C208.094 399.973 200.472 401.388 193.034 399.225C187.824 397.707 181.701 397.388 180.086 394.919C178.471 392.451 181.988 386.253 180.525 376.986C179.353 369.563 191.712 380.869 191.712 380.869Z" fill="#2E5B9A"/>
<path d="M146.553 290.83C146.553 290.83 202.416 311.783 206.918 317.639C211.42 323.496 270.14 376.849 270.14 380.789C270.14 384.729 260.137 391.88 260.137 391.88C260.137 391.88 209.775 360.933 197.274 345.189C184.773 329.445 154.262 321.858 138.04 320.399C121.817 318.94 146.553 290.83 146.553 290.83Z" fill="#3E6BAB"/>
<path d="M148.695 290.83C148.695 290.83 186.915 289.399 195.13 290.83C203.345 292.262 221.365 292.235 209.579 325.566C200.34 351.682 197.292 384.747 197.292 384.747L178.934 389.257C178.934 389.257 179.661 329.801 188.428 313.968C182.034 315.022 170.318 317.079 154.088 321.74C123.965 330.371 107.45 326.047 107.45 326.047L102.956 310.299L148.695 290.83Z" fill="#4476BD"/>
<path d="M116.78 191.978L107.442 219.618L119.24 227.406L125.925 203.521L116.78 191.978Z" fill="#A86B48"/>
<path d="M120.294 223.632L125.925 203.525L116.78 191.988L113.374 202.098C114.544 211.22 117.391 218.779 120.294 223.632Z" fill="#7A4E34"/>
<path d="M140.6 196.655C140.903 205.061 136.781 212.336 130.229 212.985C123.677 213.633 117.7 207.365 116.874 198.999C116.049 190.633 120.695 183.318 127.245 182.671C133.796 182.025 140.123 183.392 140.6 196.655Z" fill="#A86B48"/>
<path d="M102.956 218.815C74.2926 238.206 92.1219 269.541 98.4156 292.44C103.776 311.943 103.601 323.729 104.405 323.729C105.208 323.729 124.923 320.779 136.174 310.582C147.425 300.386 155.031 290.511 155.031 290.511C155.031 290.511 140.616 287.94 135.906 269.262C133.513 259.778 134.601 254.63 129.149 239.605C123.697 224.58 102.956 218.815 102.956 218.815Z" fill="#A2DFF2"/>
<path d="M102.956 218.815L106.028 211.291C106.028 211.291 115.76 217.729 119.653 220.77C123.547 223.811 125.933 224.528 125.933 224.528C125.933 224.528 127.336 235.314 126.426 234.336C114.928 222.003 102.956 218.815 102.956 218.815Z" fill="#A2DFF2"/>
<path d="M90.2524 403.209H92.7551L110.705 328.203H105.196L90.2524 403.209Z" fill="#2E5B9A"/>
<path d="M165.228 403.209H162.726L142.129 325.554H147.635L165.228 403.209Z" fill="#2E5B9A"/>
<path d="M118.134 331.013C108.116 331.013 101.756 329.206 97.6963 325.254C92.6729 320.351 91.633 312.756 91.6169 302.859C91.5849 282.057 90.4367 277.756 84.5898 265.051C84.4356 264.716 84.3488 264.354 84.3344 263.985C84.32 263.616 84.3782 263.248 84.5058 262.902C84.7634 262.203 85.2877 261.635 85.9634 261.323C86.6391 261.011 87.4108 260.981 88.1088 261.239C88.8068 261.497 89.3739 262.022 89.6853 262.699C95.8649 276.126 97.1954 281.062 97.2274 302.851C97.2434 312.887 98.5138 318.203 101.612 321.228C104.79 324.329 110.536 325.608 120.246 325.365C129.618 325.134 136.076 323.821 141.252 322.766C148.064 321.377 152.995 320.375 158.836 323.167C159.175 323.322 159.48 323.543 159.733 323.817C159.986 324.091 160.181 324.413 160.309 324.764C160.436 325.115 160.492 325.487 160.474 325.86C160.456 326.233 160.364 326.598 160.203 326.935C160.043 327.272 159.817 327.573 159.538 327.821C159.26 328.07 158.936 328.26 158.583 328.381C158.231 328.502 157.858 328.552 157.486 328.527C157.114 328.503 156.751 328.404 156.418 328.237C152.272 326.254 148.754 326.968 142.37 328.269C136.97 329.367 130.251 330.736 120.385 330.981C119.617 331.002 118.866 331.013 118.134 331.013Z" fill="#2E5B9A"/>
<path d="M241.992 279.53H201.334C200.59 279.53 199.876 279.234 199.35 278.707C198.824 278.18 198.528 277.466 198.528 276.72C198.528 275.975 198.824 275.261 199.35 274.734C199.876 274.207 200.59 273.911 201.334 273.911H240.206L255.877 240.115C256.196 239.448 256.765 238.934 257.46 238.684C258.155 238.434 258.92 238.469 259.59 238.781C260.259 239.092 260.779 239.656 261.036 240.349C261.294 241.042 261.268 241.809 260.965 242.483L244.534 277.905C244.309 278.39 243.95 278.801 243.5 279.089C243.049 279.377 242.526 279.53 241.992 279.53Z" fill="#3E6BAB"/>
<path d="M104.018 247.035C104.018 247.035 111.161 268.861 120.002 277.895C128.842 286.929 146.634 289.963 152.204 289.618C147.764 287.83 139.306 282.742 135.906 269.258C133.513 259.774 134.601 254.626 129.149 239.601C125.103 228.445 112.632 222.398 106.475 220.022C114.161 225.551 123.771 234.659 126.724 241.59C130.003 249.275 104.018 247.035 104.018 247.035Z" fill="#96CFE0"/>
<path d="M202.618 266.203C202.618 266.203 214.939 260.569 216.28 261.105C217.62 261.641 231.28 269.904 231.28 271.273C231.28 272.642 219.225 266.171 219.225 266.171C219.225 266.171 220.566 269.75 219.762 271.464C218.959 273.178 209.691 273.18 201.328 272.644C192.964 272.108 202.618 266.203 202.618 266.203Z" fill="#A86B48"/>
<path d="M104.413 230.176C93.0536 253.496 132.018 277.142 155.133 279.237C178.249 281.333 205.714 273.764 205.714 273.764L202.618 266.193C202.618 266.193 156.306 260.14 155.129 259.291C153.953 258.442 108.573 221.635 104.413 230.176Z" fill="#A2DFF2"/>
<path d="M119.18 192.765C120.234 195.537 119.461 198.405 117.457 199.17C115.453 199.934 112.973 198.303 111.919 195.531C110.865 192.759 111.638 189.889 113.644 189.126C115.65 188.363 118.128 189.991 119.18 192.765Z" fill="#A86B48"/>
<path d="M140.616 175.02C143.754 173.707 147.289 172.303 146.197 177.643C145.72 179.968 146.197 179.313 147.03 181.457C147.864 183.601 144.928 185.291 143.977 186.475C143.025 187.659 145.363 188.964 143.458 190.395C141.552 191.826 139.049 189.863 137.266 190.395C131.968 191.978 132.623 187.803 129.652 186.934C126.68 186.065 125.218 186.202 124.653 188.109C124.088 190.015 126.734 196.298 124.472 195.701C122.21 195.105 121.701 200.173 121.094 203.035C120.487 205.898 118.932 201.06 119.032 197.787C119.186 192.769 117.942 190.656 116.097 189.251C114.251 187.846 113.464 175.068 122.392 174.599C131.321 174.129 131.379 173.258 135.188 172.451C138.997 171.644 139.186 175.606 140.616 175.02Z" fill="#303C60"/>
<path d="M641.256 320.897C646.949 326.103 644.474 331.31 640.265 340.982C636.055 350.654 635.315 386.359 635.315 386.359L638.78 385.863C638.78 385.863 638.285 349.165 642.988 339.246C647.69 329.327 649.672 324.367 653.88 327.591C658.088 330.814 641.256 320.897 641.256 320.897Z" fill="#74B570"/>
<path d="M638.131 314.153C638.822 311.066 642.928 307.73 648.42 304.894C647.602 309.446 644.985 316.889 647.694 318.414C651.347 320.474 648.049 310.083 649.46 304.364C654.876 301.741 660.617 299.851 666.532 298.745L666.508 298.807C663.29 306.99 659.082 310.213 660.815 311.452C662.117 312.385 666.363 302.931 671.972 298.086C676.18 297.861 679.74 298.433 681.848 300.093C685.102 302.676 687.288 304.967 684.014 312.828C681.909 314.294 679.459 315.184 676.905 315.41C669.479 316.152 666.013 316.401 671.21 318.88C673.757 320.084 678.023 318.812 681.484 318.031C680.361 320.102 678.981 322.446 677.306 325.118C676.307 326.716 675.14 328.203 673.825 329.552C671.433 330.011 669.345 330.017 668.241 329.552C664.774 328.062 655.864 323.352 653.636 325.337C651.456 327.28 670.14 328.508 668.846 333.443C659.789 338.662 649.424 336.183 647.592 331.384C645.132 324.957 636.049 323.442 638.131 314.153Z" fill="#9CD499"/>
<path d="M680.109 305.001C662.396 309.741 649.412 321.092 646.991 323.847C644.571 326.603 644.571 327.374 644.571 327.374L646.442 330.9L647.322 330.461C647.322 330.461 645.891 327.484 649.632 323.627C656.084 316.975 663.937 311.725 669.327 309.41C674.717 307.096 680.109 305.001 680.109 305.001Z" fill="#74B570"/>
<path d="M656.846 349.418C646.943 341.98 636.794 348.922 631.599 356.856C626.403 364.79 630.114 382.646 630.114 382.646C630.114 382.646 632.095 382.646 632.095 381.901C632.095 381.156 626.649 360.826 639.521 351.65C647.574 345.91 653.383 348.673 654.127 351.401C654.87 354.129 650.909 359.088 650.909 359.088L656.846 349.418Z" fill="#74B570"/>
<path d="M634.063 334.124C643.965 334.124 647.183 349.496 644.46 358.424C641.737 367.352 638.024 383.956 638.024 383.956L635.548 381.476C635.548 381.476 644.965 358.167 642.727 347.756C640.489 337.345 635.053 335.607 634.063 335.607C633.073 335.607 634.063 334.124 634.063 334.124Z" fill="#9CD499"/>
<path d="M642.379 358.49C643.058 357.56 643.952 356.807 644.983 356.296C644.85 357.014 644.679 357.723 644.468 358.422C643.228 362.488 641.781 368.152 640.575 373.112C640.465 372.476 640.295 371.506 640.034 369.987C639.972 369.632 639.924 369.244 639.89 368.833C640.91 365.434 641.74 361.981 642.379 358.49Z" fill="#74B570"/>
<path d="M645.084 358.57C663.897 350.636 653.984 339.748 670.571 346.929C671.739 347.435 673.162 348.714 674.589 350.474C672.887 350.992 671.095 351.135 669.333 350.895C664.382 350.153 666.115 354.119 674.284 355.11C675.585 355.24 676.868 355.509 678.111 355.913C682.004 363.4 683.758 373.253 675.522 376.677C673.899 377.351 671.894 377.738 669.659 377.881C667.119 375.858 670.281 364.15 666.363 365.766C662.6 367.317 667.542 375.802 666.864 377.941C663.151 377.873 659.05 377.267 655.112 376.291C653.557 375.418 652.369 374.248 652.005 372.709C650.766 367.502 658.935 364.279 659.184 359.815C659.41 355.712 656.188 368.847 647.654 370.774C639.936 367.181 636.289 362.284 645.084 358.57Z" fill="#9CD499"/>
<path d="M631.679 344.541C633.658 340.326 628.461 339.334 628.707 342.558C628.927 345.414 628.952 352.358 626.026 354.247C620.983 353.701 614.12 351.666 608.932 348.561C608.866 348.118 608.943 347.665 609.151 347.268C611.379 342.807 625.738 339.085 621.281 337.598C617.733 336.414 611.513 343.407 606.504 346.931C603.498 344.643 601.476 341.913 601.476 338.873C601.476 334.754 606.474 330.09 612.936 327.862C615.845 328.155 618.546 329.748 622.766 332.143C629 335.681 627.559 329.961 621.664 326.565C626.751 326.828 631.825 329.008 635.566 334.208C635.566 334.208 635.213 336.432 637.57 339.872C643.982 349.255 636.584 354.735 627.739 354.378C628.232 351.905 630.31 347.455 631.679 344.541Z" fill="#9CD499"/>
<path d="M656.244 348.997C661.086 352.744 666.464 357.123 673.064 360.1C679.664 363.076 678.346 372.775 678.346 372.775C678.346 372.775 679.336 364.399 673.835 361.535C668.335 358.671 664.702 355.253 660.52 354.59C656.339 353.928 654.03 353.268 654.03 353.268C654.03 353.268 655.349 350.624 654.579 349.631C653.81 348.637 656.244 348.997 656.244 348.997Z" fill="#74B570"/>
<path d="M637.97 403.229H631.194C628.883 403.229 626.666 402.309 625.032 400.672C623.398 399.035 622.479 396.815 622.479 394.5V378.925H646.683V394.5C646.683 396.814 645.765 399.034 644.131 400.671C642.497 402.308 640.281 403.228 637.97 403.229Z" fill="#75A1DE"/>
<path d="M646.697 381.692H622.501V383.398H646.697V381.692Z" fill="white"/>
<path d="M646.697 384.803H622.501V385.807H646.697V384.803Z" fill="white"/>
<path d="M344.182 53.6481C344.183 44.833 340.717 36.3724 334.535 30.0987C328.353 23.825 319.952 20.2433 311.153 20.1293C292.788 19.8945 277.546 34.709 277.253 53.1041C277.102 61.7115 280.274 70.045 286.108 76.3666C288.693 79.1752 290.128 82.8551 290.129 86.6751V101.7C290.129 111.423 298.07 119.377 307.774 119.377H313.657C318.333 119.363 322.814 117.496 326.12 114.184C329.427 110.872 331.29 106.384 331.304 101.7V86.6751C331.319 82.8262 332.776 79.1232 335.386 76.2983C341.054 70.1227 344.194 62.0368 344.182 53.6481Z" fill="#F5DC95"/>
<path opacity="0.5" d="M339.513 55.898C339.513 48.3146 336.531 41.0364 331.213 35.6391C325.895 30.2418 318.668 27.1596 311.098 27.0599C295.299 26.8592 282.186 39.6023 281.934 55.4284C281.803 62.8329 284.531 70.0022 289.548 75.4413C291.772 77.8576 293.007 81.024 293.007 84.3107V97.2385C293.019 101.267 294.622 105.127 297.466 107.976C300.31 110.825 304.163 112.431 308.185 112.444H313.246C317.269 112.432 321.122 110.826 323.967 107.977C326.811 105.128 328.414 101.267 328.427 97.2385V84.3107C328.44 80.9992 329.694 77.8134 331.939 75.3831C336.817 70.0714 339.521 63.1154 339.513 55.898Z" fill="white"/>
<path d="M315.669 92.7004H304.648C304.398 92.7015 304.156 92.6085 303.971 92.4399C303.785 92.2712 303.67 92.0391 303.647 91.7892C303.627 91.5745 301.569 70.2629 292.057 64.2918C291.94 64.2248 291.837 64.1348 291.755 64.0271C291.674 63.9194 291.615 63.7962 291.582 63.6651C291.549 63.5339 291.542 63.3974 291.563 63.2638C291.584 63.1302 291.632 63.0022 291.704 62.8875C291.775 62.7729 291.869 62.6739 291.98 62.5966C292.091 62.5192 292.216 62.4651 292.348 62.4375C292.481 62.4099 292.617 62.4093 292.749 62.4358C292.882 62.4623 293.007 62.5154 293.119 62.5918C302.4 68.4124 305.037 86.368 305.542 90.6913H314.603C314.571 87.9822 314.874 85.2794 315.505 82.6448C316.645 77.6953 319.44 70.2268 326.283 62.7744C326.372 62.6773 326.479 62.5987 326.599 62.5431C326.718 62.4875 326.847 62.456 326.979 62.4504C327.11 62.4448 327.241 62.4652 327.365 62.5105C327.489 62.5558 327.602 62.625 327.699 62.7142C327.796 62.8034 327.875 62.9109 327.93 63.0305C327.986 63.1501 328.017 63.2795 328.023 63.4112C328.028 63.543 328.008 63.6746 327.963 63.7985C327.918 63.9223 327.849 64.0361 327.759 64.1332C315.25 77.7715 316.643 91.456 316.657 91.5925C316.673 91.7327 316.659 91.8747 316.617 92.0092C316.574 92.1438 316.504 92.2678 316.41 92.3733C316.316 92.4765 316.202 92.5589 316.074 92.6153C315.946 92.6716 315.808 92.7006 315.669 92.7004Z" fill="#94BDF2"/>
<path d="M323.904 65.6687C320.183 65.6687 315.112 63.0213 309.768 60.1511C302.869 63.8322 296.423 67.1339 292.816 64.9421C291.121 63.9125 290.312 61.8993 290.338 58.7823C290.366 55.8499 291.203 53.8729 292.834 52.9075C296.441 50.7639 302.905 54.182 309.772 57.8751C316.773 54.1338 323.367 50.6495 326.968 52.8473C328.585 53.8327 329.385 55.8379 329.349 58.8044C329.308 61.8913 328.423 63.9687 326.714 64.9762C325.857 65.4572 324.886 65.6965 323.904 65.6687ZM311.898 59.0091C317.4 61.9375 323.155 64.7414 325.696 63.2421C326.76 62.6139 327.315 61.1105 327.345 58.7722C327.373 56.5644 326.896 55.1474 325.926 54.5573C323.47 53.064 317.504 56.0366 311.898 59.0091ZM295.547 54.2422C294.96 54.2187 294.377 54.3539 293.86 54.6336C292.876 55.2177 292.367 56.6186 292.347 58.8003C292.327 61.1145 292.836 62.6139 293.86 63.226C296.333 64.7273 302.108 61.9375 307.648 59.0111C303.162 56.6166 298.463 54.2422 295.547 54.2422Z" fill="#94BDF2"/>
<path d="M314.246 115.315H307.834C305.566 115.315 303.727 117.157 303.727 119.429V120.031C303.727 122.304 305.566 124.146 307.834 124.146H314.246C316.515 124.146 318.354 122.304 318.354 120.031V119.429C318.354 117.157 316.515 115.315 314.246 115.315Z" fill="#94BDF2"/>
<path d="M289.159 90.894V101.532C289.159 111.712 297.475 120.041 307.64 120.041H313.793C323.958 120.041 332.274 111.712 332.274 101.532V90.894H289.159Z" fill="#94BDF2"/>
<path d="M332.094 89.1539H289.881C288.553 89.1539 287.476 90.2322 287.476 91.5624V91.8294C287.476 93.1596 288.553 94.2379 289.881 94.2379H332.094C333.422 94.2379 334.498 93.1596 334.498 91.8294V91.5624C334.498 90.2322 333.422 89.1539 332.094 89.1539Z" fill="#9EC8FF"/>
<path d="M332.24 98.0514L290.342 103.234C289.709 103.312 289.071 103.136 288.569 102.743C288.066 102.35 287.739 101.774 287.661 101.14L287.627 100.873C287.588 100.559 287.611 100.241 287.696 99.9362C287.78 99.6313 287.923 99.346 288.117 99.0967C288.312 98.8473 288.553 98.6387 288.828 98.4828C289.102 98.3268 289.405 98.2266 289.719 98.1879L331.619 93.0056C332.251 92.9273 332.889 93.1038 333.392 93.4963C333.895 93.8889 334.221 94.4653 334.3 95.099L334.332 95.3659C334.371 95.6798 334.347 95.9983 334.263 96.3032C334.179 96.608 334.035 96.8933 333.841 97.1427C333.647 97.392 333.406 97.6006 333.131 97.7566C332.856 97.9125 332.553 98.0127 332.24 98.0514Z" fill="#9EC8FF"/>
<path d="M332.24 105.395L290.342 110.58C290.028 110.619 289.71 110.595 289.406 110.511C289.102 110.426 288.817 110.283 288.568 110.088C288.319 109.894 288.111 109.652 287.955 109.377C287.799 109.102 287.699 108.798 287.661 108.484L287.627 108.217C287.588 107.904 287.611 107.585 287.696 107.28C287.78 106.975 287.923 106.69 288.117 106.441C288.312 106.191 288.553 105.983 288.828 105.827C289.102 105.671 289.405 105.571 289.719 105.532L331.619 100.356C331.932 100.317 332.25 100.34 332.554 100.425C332.859 100.509 333.144 100.653 333.393 100.847C333.641 101.042 333.85 101.283 334.005 101.559C334.161 101.834 334.261 102.137 334.3 102.451L334.332 102.716C334.408 103.349 334.231 103.987 333.839 104.489C333.447 104.991 332.872 105.317 332.24 105.395Z" fill="#9EC8FF"/>
<path d="M329.655 113.255L294.764 117.573C294.476 117.609 294.184 117.587 293.905 117.51C293.625 117.433 293.364 117.301 293.135 117.122C292.907 116.944 292.716 116.722 292.573 116.469C292.43 116.216 292.339 115.938 292.303 115.65L292.221 114.991C292.185 114.703 292.207 114.411 292.284 114.131C292.361 113.851 292.492 113.589 292.67 113.36C292.849 113.131 293.07 112.94 293.323 112.797C293.575 112.654 293.853 112.562 294.141 112.527L329.034 108.209C329.322 108.173 329.613 108.195 329.893 108.272C330.172 108.349 330.434 108.481 330.662 108.659C330.891 108.838 331.082 109.06 331.225 109.313C331.368 109.566 331.459 109.844 331.494 110.132L331.575 110.791C331.61 111.079 331.589 111.371 331.512 111.651C331.435 111.931 331.304 112.193 331.125 112.422C330.947 112.651 330.725 112.842 330.473 112.985C330.221 113.128 329.943 113.22 329.655 113.255Z" fill="#9EC8FF"/>
<path d="M631.739 122.783H654.229C654.229 135.141 644.076 145.311 631.739 145.311C619.402 145.311 609.251 135.141 609.251 122.783C609.251 110.425 619.402 100.255 631.739 100.255V122.783Z" fill="#9EC8FF"/>
<path d="M658.004 119.624C658.004 113.649 655.634 107.919 651.417 103.694C647.199 99.4695 641.478 97.096 635.514 97.096V119.624H658.004Z" fill="#F39892"/>
<path d="M613.024 119.624C613.024 125.598 615.394 131.328 619.612 135.552C623.829 139.776 629.549 142.15 635.514 142.15C623.177 142.156 613.024 131.988 613.024 119.624Z" fill="#F39892"/>
<path d="M635.506 97.1021C629.542 97.1021 623.823 99.4747 619.605 103.698C615.388 107.922 613.017 113.65 613.016 119.624C613.016 107.27 623.169 97.1021 635.506 97.1021Z" fill="#F39892"/>
<path d="M635.506 142.156C638.46 142.156 641.384 141.573 644.113 140.44C646.842 139.308 649.322 137.648 651.41 135.556C653.498 133.464 655.155 130.98 656.285 128.246C657.415 125.512 657.996 122.583 657.996 119.624C657.996 131.988 647.843 142.156 635.506 142.156Z" fill="#F39892"/>
<path d="M196.515 107.882H191.603V122.119H196.515V107.882Z" fill="#9EC8FF"/>
<path d="M259.466 112.515H254.555V122.119H259.466V112.515Z" fill="#9EC8FF"/>
<path d="M217.328 88.8107H212.416V122.119H217.328V88.8107Z" fill="#9EC8FF"/>
<path d="M227.747 107.148H222.836V122.119H227.747V107.148Z" fill="#9EC8FF"/>
<path d="M238.146 102.909H233.235V122.119H238.146V102.909Z" fill="#9EC8FF"/>
<path d="M206.928 98.4829H202.017V122.119H206.928V98.4829Z" fill="#9EC8FF"/>
<path d="M248.586 93.0075H243.675V122.119H248.586V93.0075Z" fill="#9EC8FF"/>
<path d="M60.6932 80.8385L34.9332 65.0605L30.2745 94.9364C36.1677 95.855 42.2006 95.0066 47.6135 92.4979C53.0263 89.9892 57.5773 85.9325 60.6932 80.8385Z" fill="#A2DFF2"/>
<path d="M60.7133 80.8023C60.7834 80.6899 60.8736 80.5333 60.8716 80.5394C63.5372 76.0558 64.9996 70.9577 65.1165 65.7406C65.2334 60.5234 64.0009 55.3648 61.5388 50.7659C52.4238 55.5508 57.8519 52.6445 34.9272 65.0605C60.7353 80.8645 56.7278 78.4279 60.7133 80.8023Z" fill="#9CD499"/>
<path d="M6.61234 54.6095L34.9272 65.0605L61.4907 50.6735C49.0716 27.656 15.6292 30.4158 6.61234 54.6095Z" fill="#9EC8FF"/>
<path d="M30.2745 94.9364L34.9332 65.0545L6.61232 54.6095C-0.116238 72.6916 11.8361 92.0321 30.2745 94.9364Z" fill="#F39892"/>
<path d="M4.76489 59.557C5.26556 59.5548 5.75833 59.682 6.19556 59.9263C6.442 58.5621 6.78551 57.2173 7.22347 55.9021L22.6002 61.5782C22.6002 61.5782 22.6002 61.5682 22.6002 61.5642C22.5785 60.8758 22.8176 60.2046 23.2694 59.6855L21.7285 59.1155L7.92478 54.0214C9.02925 51.3182 10.5276 48.794 12.3711 46.5309C11.7262 46.2899 11.184 45.8333 10.8362 45.2383C8.84682 47.6818 7.2321 50.4086 6.04528 53.329H6.02925L5.68059 54.2643L5.32794 55.1956H5.34397C4.86102 56.6378 4.48464 58.1137 4.21786 59.6112C4.39798 59.5751 4.58121 59.557 4.76489 59.557Z" fill="white"/>
<path d="M62.8372 51.087H62.8553L62.3784 50.2039L62.3483 50.1497L61.9596 49.4251H61.9436C58.938 44.1926 54.652 40.0218 49.4983 37.3323C43.9925 34.5091 37.7818 33.3627 31.633 34.0347C25.4841 34.7067 19.6663 37.1676 14.8978 41.1137C15.482 41.476 15.9295 42.0225 16.1702 42.6672C20.9379 38.6861 26.8454 36.3258 33.0396 35.9273C44.2145 35.1485 54.4997 40.628 60.1242 50.2782L52.2795 54.5272C50.6605 55.4003 48.3963 56.6266 44.6052 58.6819L35.2077 63.774L34.9652 63.9044L34.1757 63.4227L34.1337 63.6977L28.6074 61.6585C28.6036 62.3512 28.3405 63.0173 27.87 63.5251L33.8171 65.7209L29.4429 93.7803C22.8464 92.4805 16.8945 88.9538 12.5805 83.7888C8.2666 78.6238 5.85163 72.133 5.73869 65.3997C5.42678 65.515 5.09733 65.5754 4.76488 65.5784C4.41308 65.5776 4.06427 65.5137 3.73495 65.3897C3.84627 72.6027 6.43102 79.5579 11.0554 85.088C15.6799 90.6182 22.0625 94.3867 29.1323 95.7613V95.7794L30.1202 95.9339L31.112 96.0905V96.0744C32.3883 96.2335 33.6731 96.314 34.9592 96.3153C40.1366 96.3041 45.2302 95.0049 49.7824 92.5344C54.3346 90.0639 58.2029 86.4994 61.0399 82.1611L61.0599 82.1732L61.2603 81.85L61.5789 81.3262C61.629 81.2459 61.6871 81.1455 61.7211 81.0893L61.7412 81.0532L61.7572 81.0271L62.0738 80.5073L62.0598 80.4972C64.5799 76.0323 65.9685 71.0164 66.104 65.8891C66.2396 60.7617 65.1179 55.6793 62.8372 51.087ZM31.4206 94.0914L35.6926 66.7023L46.8053 73.5105L55.4635 78.8133L59.3106 81.1616C56.3315 85.7111 52.1397 89.3338 47.2104 91.619C42.281 93.9043 36.8111 94.7608 31.4206 94.0914ZM60.3646 79.4234L60.1743 79.313C59.1223 78.6868 58.6634 78.4159 56.5675 77.1353L36.9409 65.1147L53.2333 56.2834C55.6258 54.9949 56.6056 54.477 59.0442 53.2085L61.114 52.1247C63.207 56.3951 64.2324 61.1112 64.1018 65.8667C63.9713 70.6222 62.6887 75.2747 60.3646 79.4234Z" fill="#E7F3FE"/>
<path d="M200.115 31.5056H117.048C116.144 31.5056 115.411 32.2398 115.411 33.1454V68.9503C115.411 69.8559 116.144 70.5901 117.048 70.5901H200.115C201.02 70.5901 201.752 69.8559 201.752 68.9503V33.1454C201.752 32.2398 201.02 31.5056 200.115 31.5056Z" fill="#9EC8FF"/>
<path d="M198.07 41.774H119.094C118.364 41.774 117.772 42.3671 117.772 43.0987V67.4309C117.772 68.1625 118.364 68.7556 119.094 68.7556H198.07C198.8 68.7556 199.392 68.1625 199.392 67.4309V43.0987C199.392 42.3671 198.8 41.774 198.07 41.774Z" fill="white"/>
<path d="M121.619 34.3818H119.703C119.298 34.3818 118.97 34.7107 118.97 35.1164V36.696C118.97 37.1017 119.298 37.4306 119.703 37.4306H121.619C122.024 37.4306 122.352 37.1017 122.352 36.696V35.1164C122.352 34.7107 122.024 34.3818 121.619 34.3818Z" fill="white"/>
<path d="M127.768 34.3818H125.853C125.448 34.3818 125.119 34.7107 125.119 35.1164V36.696C125.119 37.1017 125.448 37.4306 125.853 37.4306H127.768C128.173 37.4306 128.502 37.1017 128.502 36.696V35.1164C128.502 34.7107 128.173 34.3818 127.768 34.3818Z" fill="white"/>
<path d="M133.92 34.3818H132.004C131.599 34.3818 131.271 34.7107 131.271 35.1164V36.696C131.271 37.1017 131.599 37.4306 132.004 37.4306H133.92C134.325 37.4306 134.653 37.1017 134.653 36.696V35.1164C134.653 34.7107 134.325 34.3818 133.92 34.3818Z" fill="white"/>
<path d="M196.07 47.689H152.897C152.564 47.6758 152.248 47.5338 152.016 47.2926C151.785 47.0514 151.656 46.7299 151.656 46.3954C151.656 46.0609 151.785 45.7393 152.016 45.4982C152.248 45.257 152.564 45.115 152.897 45.1018H196.07C196.244 45.0949 196.417 45.1233 196.58 45.1852C196.743 45.2472 196.891 45.3413 197.016 45.4621C197.142 45.5829 197.242 45.7279 197.31 45.8882C197.378 46.0486 197.413 46.2211 197.413 46.3954C197.413 46.5697 197.378 46.7422 197.31 46.9026C197.242 47.0629 197.142 47.2078 197.016 47.3286C196.891 47.4494 196.743 47.5436 196.58 47.6055C196.417 47.6675 196.244 47.6958 196.07 47.689Z" fill="#9EC8FF"/>
<path d="M163.599 67.6396H120.425C120.251 67.6465 120.077 67.6181 119.915 67.5562C119.752 67.4943 119.604 67.4001 119.478 67.2793C119.353 67.1585 119.253 67.0136 119.185 66.8532C119.117 66.6928 119.081 66.5203 119.081 66.346C119.081 66.1717 119.117 65.9992 119.185 65.8389C119.253 65.6785 119.353 65.5336 119.478 65.4128C119.604 65.292 119.752 65.1978 119.915 65.1359C120.077 65.074 120.251 65.0456 120.425 65.0525H163.599C163.933 65.0656 164.249 65.2077 164.48 65.4488C164.711 65.69 164.841 66.0115 164.841 66.346C164.841 66.6806 164.711 67.0021 164.48 67.2433C164.249 67.4844 163.933 67.6265 163.599 67.6396Z" fill="#9EC8FF"/>
<path d="M171.552 65.0605H167.084C166.84 65.0605 166.643 65.2582 166.643 65.5021V67.2061C166.643 67.45 166.84 67.6477 167.084 67.6477H171.552C171.796 67.6477 171.993 67.45 171.993 67.2061V65.5021C171.993 65.2582 171.796 65.0605 171.552 65.0605Z" fill="#9EC8FF"/>
<path d="M178.287 65.0605H173.818C173.575 65.0605 173.378 65.2582 173.378 65.5021V67.2061C173.378 67.45 173.575 67.6477 173.818 67.6477H178.287C178.53 67.6477 178.727 67.45 178.727 67.2061V65.5021C178.727 65.2582 178.53 65.0605 178.287 65.0605Z" fill="#9EC8FF"/>
<path d="M196.487 53.3249H124.993C124.875 53.3306 124.756 53.3121 124.645 53.2705C124.533 53.229 124.432 53.1652 124.346 53.0831C124.26 53.001 124.191 52.9023 124.145 52.7929C124.098 52.6835 124.074 52.5658 124.074 52.4468C124.074 52.3278 124.098 52.2101 124.145 52.1007C124.191 51.9913 124.26 51.8926 124.346 51.8105C124.432 51.7284 124.533 51.6646 124.645 51.6231C124.756 51.5815 124.875 51.563 124.993 51.5687H196.487C196.712 51.5795 196.924 51.6767 197.08 51.8402C197.236 52.0037 197.322 52.2209 197.322 52.4468C197.322 52.6727 197.236 52.8899 197.08 53.0534C196.924 53.2169 196.712 53.3141 196.487 53.3249Z" fill="#9EC8FF"/>
<path d="M196.487 57.1144H124.993C124.875 57.12 124.756 57.1015 124.645 57.06C124.533 57.0184 124.432 56.9546 124.346 56.8725C124.26 56.7904 124.191 56.6917 124.145 56.5823C124.098 56.473 124.074 56.3552 124.074 56.2362C124.074 56.1173 124.098 55.9995 124.145 55.8901C124.191 55.7808 124.26 55.682 124.346 55.5999C124.432 55.5178 124.533 55.4541 124.645 55.4125C124.756 55.3709 124.875 55.3524 124.993 55.3581H196.487C196.712 55.3689 196.924 55.4661 197.08 55.6296C197.236 55.7931 197.322 56.0103 197.322 56.2362C197.322 56.4621 197.236 56.6793 197.08 56.8428C196.924 57.0063 196.712 57.1036 196.487 57.1144Z" fill="#9EC8FF"/>
<path d="M412.169 45.7039H375.3V24.1777H403.028L412.169 33.3341V45.7039Z" fill="#FFB8B3"/>
<path d="M402.351 24.1777V35.6684H412.169V33.4606L402.972 24.2399L402.351 24.1777Z" fill="#F39892"/>
<path d="M403.032 24.1777V33.4606H412.169L403.032 24.1777Z" fill="#FFB8B3"/>
<path d="M395.899 32.2563H379.468C379.295 32.2563 379.13 32.1876 379.008 32.0652C378.885 31.9429 378.817 31.777 378.817 31.604C378.817 31.431 378.885 31.265 379.008 31.1427C379.13 31.0204 379.295 30.9517 379.468 30.9517H395.899C396.071 30.9517 396.237 31.0204 396.359 31.1427C396.481 31.265 396.55 31.431 396.55 31.604C396.55 31.777 396.481 31.9429 396.359 32.0652C396.237 32.1876 396.071 32.2563 395.899 32.2563Z" fill="white"/>
<path d="M395.899 35.5921H379.468C379.295 35.5921 379.13 35.5234 379.008 35.401C378.885 35.2787 378.817 35.1128 378.817 34.9398C378.817 34.7668 378.885 34.6009 379.008 34.4785C379.13 34.3562 379.295 34.2875 379.468 34.2875H395.899C396.071 34.2875 396.237 34.3562 396.359 34.4785C396.481 34.6009 396.55 34.7668 396.55 34.9398C396.55 35.1128 396.481 35.2787 396.359 35.401C396.237 35.5234 396.071 35.5921 395.899 35.5921Z" fill="white"/>
<path d="M395.899 39.1046H379.468C379.295 39.1046 379.13 39.0358 379.008 38.9135C378.885 38.7912 378.817 38.6252 378.817 38.4522C378.817 38.2792 378.885 38.1133 379.008 37.991C379.13 37.8687 379.295 37.7999 379.468 37.7999H395.899C396.071 37.7999 396.237 37.8687 396.359 37.991C396.481 38.1133 396.55 38.2792 396.55 38.4522C396.55 38.6252 396.481 38.7912 396.359 38.9135C396.237 39.0358 396.071 39.1046 395.899 39.1046Z" fill="white"/>
<path d="M392.633 26.9374C393.241 26.9374 393.735 26.4432 393.735 25.8335C393.735 25.2239 393.241 24.7296 392.633 24.7296C392.024 24.7296 391.531 25.2239 391.531 25.8335C391.531 26.4432 392.024 26.9374 392.633 26.9374Z" fill="#3E6BAB"/>
<path d="M253.637 25.2511L230.632 20.7968L225.27 48.5827L248.276 53.0371L253.637 25.2511Z" fill="#FAE8B6"/>
<path d="M248.764 37.244L236.567 34.8816C236.489 34.8676 236.414 34.8381 236.347 34.7949C236.28 34.7516 236.222 34.6955 236.177 34.6296C236.132 34.5638 236.1 34.4897 236.084 34.4115C236.068 34.3333 236.067 34.2527 236.082 34.1743C236.098 34.0959 236.128 34.0214 236.172 33.9549C236.217 33.8885 236.273 33.8315 236.34 33.7873C236.406 33.7431 236.481 33.7126 236.559 33.6975C236.637 33.6824 236.718 33.683 236.796 33.6994L248.992 36.0618C249.071 36.0757 249.146 36.1052 249.213 36.1485C249.28 36.1917 249.338 36.2479 249.383 36.3137C249.428 36.3795 249.459 36.4537 249.476 36.5318C249.492 36.61 249.493 36.6906 249.477 36.769C249.462 36.8474 249.432 36.922 249.387 36.9884C249.343 37.0549 249.286 37.1119 249.22 37.1561C249.154 37.2003 249.079 37.2308 249.001 37.2459C248.923 37.261 248.842 37.2603 248.764 37.244Z" fill="#9EC8FF"/>
<path d="M248.183 40.2968L235.986 37.9344C235.908 37.9204 235.833 37.891 235.766 37.8477C235.699 37.8044 235.641 37.7483 235.596 37.6825C235.551 37.6166 235.519 37.5425 235.503 37.4643C235.487 37.3862 235.486 37.3055 235.501 37.2272C235.516 37.1488 235.547 37.0742 235.591 37.0077C235.635 36.9413 235.692 36.8843 235.759 36.8401C235.825 36.7959 235.9 36.7654 235.978 36.7503C236.056 36.7352 236.137 36.7359 236.215 36.7522L248.411 39.1126C248.49 39.1266 248.565 39.156 248.632 39.1993C248.699 39.2425 248.757 39.2987 248.802 39.3645C248.847 39.4303 248.878 39.5045 248.895 39.5827C248.911 39.6608 248.911 39.7414 248.896 39.8198C248.881 39.8982 248.851 39.9728 248.806 40.0393C248.762 40.1057 248.705 40.1627 248.639 40.2069C248.573 40.2511 248.498 40.2816 248.42 40.2967C248.341 40.3118 248.261 40.3111 248.183 40.2948V40.2968Z" fill="#9EC8FF"/>
<path d="M247.582 43.4359L235.385 41.0755C235.232 41.0415 235.099 40.9492 235.013 40.8183C234.927 40.6874 234.896 40.5281 234.925 40.3743C234.955 40.2205 235.043 40.0842 235.171 39.9944C235.299 39.9046 235.457 39.8683 235.612 39.8933L247.81 42.2537C247.889 42.2677 247.964 42.2971 248.031 42.3404C248.098 42.3837 248.155 42.4398 248.201 42.5056C248.246 42.5715 248.277 42.6456 248.294 42.7238C248.31 42.8019 248.31 42.8826 248.295 42.9609C248.28 43.0393 248.25 43.1139 248.205 43.1804C248.161 43.2468 248.104 43.3038 248.038 43.348C247.971 43.3922 247.897 43.4227 247.819 43.4378C247.74 43.4529 247.66 43.4522 247.582 43.4359Z" fill="#9EC8FF"/>
<path d="M240.509 24.5048C240.471 24.6995 240.377 24.8787 240.238 25.0198C240.1 25.161 239.922 25.2578 239.728 25.2981C239.535 25.3383 239.333 25.3202 239.15 25.246C238.966 25.1719 238.809 25.0449 238.697 24.8812C238.586 24.7175 238.525 24.5244 238.523 24.3262C238.521 24.128 238.577 23.9337 238.685 23.7676C238.793 23.6016 238.948 23.4713 239.13 23.3931C239.312 23.315 239.513 23.2926 239.707 23.3287C239.837 23.3528 239.961 23.4024 240.072 23.4746C240.182 23.5469 240.278 23.6403 240.352 23.7497C240.427 23.859 240.479 23.982 240.506 24.1116C240.533 24.2412 240.534 24.3748 240.509 24.5048Z" fill="#3E6BAB"/>
<path d="M429.181 75.8207L393.574 72.0553L395.931 49.7061L424.163 52.6867L430.76 60.8516L429.181 75.8207Z" fill="#9EC8FF"/>
<path d="M423.65 54.2803L397.161 51.4844L395.177 70.3473L428.119 73.8236L429.281 62.7785L422.829 62.098L423.65 54.2803Z" fill="white"/>
<path d="M420.064 61.1346L402.896 59.3282C402.708 59.3058 402.537 59.2102 402.419 59.0623C402.301 58.9143 402.246 58.7258 402.266 58.5375C402.285 58.3492 402.378 58.1762 402.524 58.056C402.67 57.9358 402.858 57.878 403.046 57.8951L420.214 59.7015C420.309 59.7102 420.401 59.7376 420.486 59.7823C420.57 59.8269 420.644 59.8879 420.705 59.9617C420.765 60.0355 420.811 60.1205 420.838 60.212C420.866 60.3034 420.874 60.3994 420.865 60.4944C420.855 60.5894 420.826 60.6814 420.78 60.7651C420.734 60.8489 420.672 60.9227 420.598 60.9823C420.523 61.0418 420.438 61.086 420.346 61.1121C420.255 61.1383 420.159 61.1459 420.064 61.1346Z" fill="#9EC8FF"/>
<path d="M419.663 64.924L402.495 63.1176C402.305 63.0974 402.131 63.0025 402.012 62.8538C401.892 62.7052 401.836 62.5149 401.856 62.3248C401.876 62.1348 401.971 61.9606 402.119 61.8405C402.268 61.7204 402.458 61.6643 402.647 61.6846L419.815 63.491C420.005 63.5112 420.179 63.6061 420.299 63.7548C420.419 63.9034 420.475 64.0937 420.455 64.2838C420.434 64.4738 420.34 64.648 420.191 64.7681C420.043 64.8882 419.853 64.9443 419.663 64.924Z" fill="#9EC8FF"/>
<path d="M419.262 68.8801L402.094 67.0737C401.999 67.065 401.907 67.0376 401.823 66.9929C401.738 66.9483 401.664 66.8873 401.603 66.8135C401.543 66.7397 401.498 66.6546 401.47 66.5632C401.443 66.4717 401.434 66.3757 401.444 66.2808C401.454 66.1858 401.482 66.0938 401.528 66.01C401.574 65.9263 401.636 65.8525 401.71 65.7929C401.785 65.7333 401.871 65.6892 401.962 65.6631C402.054 65.6369 402.15 65.6293 402.244 65.6406L419.413 67.447C419.6 67.4694 419.772 67.565 419.89 67.7129C420.007 67.8609 420.062 68.0494 420.043 68.2377C420.023 68.426 419.93 68.599 419.784 68.7192C419.638 68.8394 419.451 68.8972 419.262 68.8801Z" fill="#9EC8FF"/>
<path d="M409.264 55.9723C409.872 55.9723 410.366 55.4781 410.366 54.8684C410.366 54.2587 409.872 53.7645 409.264 53.7645C408.655 53.7645 408.162 54.2587 408.162 54.8684C408.162 55.4781 408.655 55.9723 409.264 55.9723Z" fill="#3E6BAB"/>
<path d="M606.091 37.4306C606.091 39.8661 605.371 42.247 604.02 44.2722C602.67 46.2975 600.75 47.8761 598.504 48.8083C596.257 49.7406 593.786 49.9848 591.401 49.5099C589.016 49.035 586.826 47.8624 585.106 46.1404C583.387 44.4184 582.216 42.2243 581.741 39.8356C581.267 37.447 581.51 34.971 582.441 32.7209C583.371 30.4707 584.947 28.5475 586.968 27.1943C588.99 25.8412 591.367 25.119 593.798 25.119C597.058 25.119 600.184 26.416 602.49 28.7249C604.795 31.0337 606.09 34.1652 606.091 37.4306Z" fill="#9CD499"/>
<path d="M592.586 41.6456H592.564C592.482 41.6429 592.402 41.6238 592.329 41.5893C592.255 41.5548 592.189 41.5056 592.135 41.4448L588.797 37.6454C588.744 37.5861 588.704 37.517 588.678 37.442C588.652 37.367 588.641 37.2877 588.645 37.2085C588.65 37.1293 588.67 37.0518 588.705 36.9804C588.739 36.909 588.787 36.8451 588.847 36.7924C588.906 36.7396 588.975 36.6991 589.05 36.6731C589.125 36.6471 589.204 36.6361 589.283 36.6408C589.362 36.6454 589.439 36.6657 589.511 36.7003C589.582 36.7349 589.646 36.7832 589.698 36.8425L592.618 40.1683L599.298 33.6191C599.413 33.5136 599.564 33.4569 599.72 33.4611C599.876 33.4652 600.024 33.5298 600.133 33.6412C600.243 33.7527 600.304 33.9023 600.306 34.0584C600.307 34.2146 600.247 34.3651 600.14 34.4782L593.006 41.4729C592.894 41.5835 592.743 41.6454 592.586 41.6456Z" fill="white"/>
<path d="M39.9345 151.726H110.809C112.632 151.726 114.111 150.245 114.111 148.418V123.052C114.111 121.225 112.632 119.744 110.809 119.744L39.9345 119.744C38.1108 119.744 36.6323 121.225 36.6323 123.052V148.418C36.6323 150.245 38.1108 151.726 39.9345 151.726Z" fill="#9EC8FF"/>
<path d="M104.751 146.921V164.565L84.4536 144.223C84.4536 144.223 104.339 146.921 104.751 146.921Z" fill="#9EC8FF"/>
<path d="M43.439 148.556H107.304C108.85 148.556 110.103 147.301 110.103 145.752V125.721C110.103 124.173 108.85 122.918 107.304 122.918H43.439C41.893 122.918 40.6398 124.173 40.6398 125.721V145.752C40.6398 147.301 41.893 148.556 43.439 148.556Z" fill="white"/>
<path d="M72.2748 129.268H103.651C104.016 129.268 104.367 129.123 104.625 128.864C104.883 128.606 105.028 128.255 105.028 127.889C105.028 127.523 104.883 127.173 104.625 126.914C104.367 126.656 104.016 126.51 103.651 126.51H72.2748C71.9097 126.51 71.5596 126.656 71.3014 126.914C71.0433 127.173 70.8983 127.523 70.8983 127.889C70.8983 128.255 71.0433 128.606 71.3014 128.864C71.5596 129.123 71.9097 129.268 72.2748 129.268Z" fill="#9EC8FF"/>
<path d="M46.0659 134.539H104.261C104.683 134.539 105.026 134.195 105.026 133.772V133.756C105.026 133.332 104.683 132.989 104.261 132.989H46.0659C45.6432 132.989 45.3005 133.332 45.3005 133.756V133.772C45.3005 134.195 45.6432 134.539 46.0659 134.539Z" fill="#9EC8FF"/>
<path d="M46.0659 137.539H104.261C104.683 137.539 105.026 137.196 105.026 136.773V136.757C105.026 136.333 104.683 135.99 104.261 135.99H46.0659C45.6432 135.99 45.3005 136.333 45.3005 136.757V136.773C45.3005 137.196 45.6432 137.539 46.0659 137.539Z" fill="#9EC8FF"/>
<path d="M564.109 129.392H567.821C568.606 129.392 569.242 128.755 569.242 127.969V124.907C569.242 124.121 568.606 123.484 567.821 123.484H564.109C563.324 123.484 562.688 124.121 562.688 124.907V127.969C562.688 128.755 563.324 129.392 564.109 129.392Z" fill="#9EC8FF"/>
<path d="M552.186 129.392H555.899C556.684 129.392 557.32 128.755 557.32 127.969V124.907C557.32 124.121 556.684 123.484 555.899 123.484H552.186C551.402 123.484 550.766 124.121 550.766 124.907V127.969C550.766 128.755 551.402 129.392 552.186 129.392Z" fill="#9EC8FF"/>
<path d="M540.284 129.392H543.997C544.782 129.392 545.418 128.755 545.418 127.969V124.907C545.418 124.121 544.782 123.484 543.997 123.484H540.284C539.5 123.484 538.864 124.121 538.864 124.907V127.969C538.864 128.755 539.5 129.392 540.284 129.392Z" fill="#9EC8FF"/>
</g>
<defs>
<clipPath id="clip0_5_6">
<rect width="686" height="429" fill="white"/>
</clipPath>
</defs>
</svg>
