<svg xmlns="http://www.w3.org/2000/svg" xmlns:xlink="http://www.w3.org/1999/xlink" width="1920" zoomAndPan="magnify" viewBox="0 0 1440 361.499994" height="482" preserveAspectRatio="xMidYMid meet" version="1.0"><defs><clipPath id="af7b5f6e5e"><path d="M 238.589844 36.175781 L 1403 36.175781 L 1403 324.976562 L 238.589844 324.976562 Z M 238.589844 36.175781 " clip-rule="nonzero"/></clipPath><clipPath id="a59537be39"><path d="M 313.484375 36.175781 L 1328.007812 36.175781 C 1347.871094 36.175781 1366.921875 44.066406 1380.96875 58.113281 C 1395.015625 72.15625 1402.90625 91.207031 1402.90625 111.070312 L 1402.90625 250.078125 C 1402.90625 269.941406 1395.015625 288.992188 1380.96875 303.039062 C 1366.921875 317.085938 1347.871094 324.976562 1328.007812 324.976562 L 313.484375 324.976562 C 293.621094 324.976562 274.570312 317.085938 260.527344 303.039062 C 246.480469 288.992188 238.589844 269.941406 238.589844 250.078125 L 238.589844 111.070312 C 238.589844 91.207031 246.480469 72.15625 260.527344 58.113281 C 274.570312 44.066406 293.621094 36.175781 313.484375 36.175781 Z M 313.484375 36.175781 " clip-rule="nonzero"/></clipPath><clipPath id="d98f13bc42"><path d="M 137 24 L 1438.851562 24 L 1438.851562 337 L 137 337 Z M 137 24 " clip-rule="nonzero"/></clipPath><clipPath id="7b399f3a4c"><path d="M 2 0 L 364 0 L 364 361 L 2 361 Z M 2 0 " clip-rule="nonzero"/></clipPath></defs><g clip-path="url(#af7b5f6e5e)"><g clip-path="url(#a59537be39)"><path fill="#ffffff" d="M 238.589844 36.175781 L 1402.816406 36.175781 L 1402.816406 324.976562 L 238.589844 324.976562 Z M 238.589844 36.175781 " fill-opacity="1" fill-rule="nonzero"/></g></g><path fill="#ffffff" d="M 282.609375 40.800781 L 1293.289062 40.800781 C 1295.394531 40.800781 1297.5 40.851562 1299.601562 40.957031 C 1301.707031 41.058594 1303.804688 41.214844 1305.902344 41.417969 C 1308 41.625 1310.085938 41.882812 1312.171875 42.191406 C 1314.253906 42.5 1316.328125 42.863281 1318.394531 43.273438 C 1320.460938 43.683594 1322.515625 44.144531 1324.558594 44.65625 C 1326.601562 45.167969 1328.628906 45.730469 1330.644531 46.339844 C 1332.660156 46.953125 1334.660156 47.613281 1336.644531 48.320312 C 1338.625 49.03125 1340.589844 49.789062 1342.535156 50.59375 C 1344.484375 51.398438 1346.40625 52.253906 1348.3125 53.152344 C 1350.214844 54.054688 1352.097656 55 1353.953125 55.992188 C 1355.8125 56.984375 1357.644531 58.023438 1359.449219 59.105469 C 1361.257812 60.1875 1363.035156 61.3125 1364.785156 62.484375 C 1366.539062 63.652344 1368.257812 64.863281 1369.949219 66.117188 C 1371.640625 67.375 1373.300781 68.667969 1374.929688 70.003906 C 1376.558594 71.339844 1378.152344 72.714844 1379.714844 74.128906 C 1381.273438 75.542969 1382.796875 76.992188 1384.289062 78.484375 C 1385.777344 79.972656 1387.230469 81.496094 1388.644531 83.054688 C 1390.058594 84.617188 1391.433594 86.210938 1392.769531 87.839844 C 1394.105469 89.464844 1395.402344 91.125 1396.65625 92.816406 C 1397.910156 94.507812 1399.121094 96.226562 1400.292969 97.980469 C 1401.460938 99.730469 1402.589844 101.507812 1403.671875 103.3125 C 1404.753906 105.121094 1405.792969 106.953125 1406.785156 108.808594 C 1407.777344 110.664062 1408.726562 112.546875 1409.625 114.449219 C 1410.527344 116.351562 1411.378906 118.277344 1412.183594 120.222656 C 1412.992188 122.167969 1413.75 124.132812 1414.457031 126.113281 C 1415.167969 128.097656 1415.828125 130.09375 1416.441406 132.109375 C 1417.050781 134.125 1417.613281 136.152344 1418.125 138.195312 C 1418.636719 140.238281 1419.097656 142.292969 1419.507812 144.355469 C 1419.917969 146.421875 1420.277344 148.496094 1420.589844 150.578125 C 1420.898438 152.660156 1421.15625 154.75 1421.363281 156.847656 C 1421.566406 158.941406 1421.722656 161.042969 1421.828125 163.144531 C 1421.929688 165.246094 1421.980469 167.351562 1421.980469 169.457031 L 1421.980469 191.546875 C 1421.980469 193.652344 1421.929688 195.753906 1421.828125 197.859375 C 1421.722656 199.960938 1421.566406 202.058594 1421.363281 204.15625 C 1421.15625 206.25 1420.898438 208.339844 1420.589844 210.421875 C 1420.277344 212.503906 1419.917969 214.578125 1419.507812 216.644531 C 1419.097656 218.710938 1418.636719 220.761719 1418.125 222.804688 C 1417.613281 224.847656 1417.050781 226.878906 1416.441406 228.890625 C 1415.828125 230.90625 1415.167969 232.90625 1414.457031 234.886719 C 1413.75 236.871094 1412.992188 238.835938 1412.183594 240.78125 C 1411.378906 242.726562 1410.527344 244.648438 1409.625 246.554688 C 1408.726562 248.457031 1407.777344 250.335938 1406.785156 252.195312 C 1405.792969 254.050781 1404.753906 255.882812 1403.671875 257.6875 C 1402.589844 259.492188 1401.460938 261.273438 1400.292969 263.023438 C 1399.121094 264.773438 1397.910156 266.496094 1396.65625 268.1875 C 1395.402344 269.878906 1394.105469 271.535156 1392.769531 273.164062 C 1391.433594 274.792969 1390.058594 276.386719 1388.644531 277.945312 C 1387.230469 279.503906 1385.777344 281.03125 1384.289062 282.519531 C 1382.796875 284.007812 1381.273438 285.460938 1379.714844 286.875 C 1378.152344 288.289062 1376.558594 289.664062 1374.929688 291 C 1373.300781 292.332031 1371.640625 293.628906 1369.949219 294.882812 C 1368.257812 296.136719 1366.539062 297.347656 1364.785156 298.519531 C 1363.035156 299.6875 1361.257812 300.816406 1359.449219 301.898438 C 1357.644531 302.980469 1355.8125 304.019531 1353.953125 305.011719 C 1352.097656 306.003906 1350.214844 306.949219 1348.3125 307.847656 C 1346.40625 308.75 1344.484375 309.601562 1342.535156 310.410156 C 1340.589844 311.214844 1338.625 311.972656 1336.644531 312.679688 C 1334.660156 313.390625 1332.660156 314.050781 1330.644531 314.660156 C 1328.628906 315.273438 1326.601562 315.835938 1324.558594 316.347656 C 1322.515625 316.859375 1320.460938 317.320312 1318.394531 317.730469 C 1316.328125 318.140625 1314.253906 318.5 1312.171875 318.808594 C 1310.085938 319.117188 1308 319.375 1305.902344 319.582031 C 1303.804688 319.789062 1301.707031 319.945312 1299.601562 320.046875 C 1297.5 320.148438 1295.394531 320.203125 1293.289062 320.203125 L 282.609375 320.203125 C 280.503906 320.203125 278.398438 320.148438 276.292969 320.046875 C 274.191406 319.945312 272.089844 319.789062 269.996094 319.582031 C 267.898438 319.375 265.808594 319.117188 263.726562 318.808594 C 261.640625 318.5 259.566406 318.140625 257.5 317.730469 C 255.4375 317.320312 253.382812 316.859375 251.339844 316.347656 C 249.296875 315.835938 247.265625 315.273438 245.25 314.660156 C 243.234375 314.050781 241.234375 313.390625 239.253906 312.679688 C 237.269531 311.972656 235.304688 311.214844 233.359375 310.410156 C 231.414062 309.601562 229.488281 308.75 227.585938 307.847656 C 225.679688 306.949219 223.800781 306.003906 221.941406 305.011719 C 220.085938 304.019531 218.253906 302.980469 216.445312 301.898438 C 214.640625 300.816406 212.859375 299.6875 211.109375 298.519531 C 209.359375 297.347656 207.636719 296.136719 205.945312 294.882812 C 204.253906 293.628906 202.59375 292.332031 200.964844 291 C 199.339844 289.664062 197.742188 288.289062 196.183594 286.875 C 194.621094 285.460938 193.097656 284.007812 191.609375 282.519531 C 190.117188 281.03125 188.667969 279.503906 187.253906 277.945312 C 185.839844 276.386719 184.464844 274.792969 183.128906 273.164062 C 181.789062 271.535156 180.496094 269.878906 179.242188 268.1875 C 177.984375 266.496094 176.773438 264.773438 175.605469 263.023438 C 174.433594 261.273438 173.308594 259.492188 172.222656 257.6875 C 171.140625 255.882812 170.105469 254.050781 169.109375 252.195312 C 168.117188 250.335938 167.171875 248.457031 166.269531 246.554688 C 165.371094 244.648438 164.515625 242.726562 163.710938 240.78125 C 162.90625 238.835938 162.148438 236.871094 161.4375 234.886719 C 160.726562 232.90625 160.066406 230.90625 159.457031 228.890625 C 158.84375 226.878906 158.285156 224.847656 157.773438 222.804688 C 157.261719 220.761719 156.796875 218.710938 156.386719 216.644531 C 155.976562 214.578125 155.617188 212.503906 155.308594 210.421875 C 155 208.339844 154.742188 206.25 154.535156 204.15625 C 154.328125 202.058594 154.171875 199.960938 154.070312 197.859375 C 153.964844 195.753906 153.914062 193.652344 153.914062 191.546875 L 153.914062 169.457031 C 153.914062 167.351562 153.964844 165.246094 154.070312 163.144531 C 154.171875 161.042969 154.328125 158.941406 154.535156 156.847656 C 154.742188 154.75 155 152.660156 155.308594 150.578125 C 155.617188 148.496094 155.976562 146.421875 156.386719 144.355469 C 156.796875 142.292969 157.261719 140.238281 157.773438 138.195312 C 158.285156 136.152344 158.84375 134.125 159.457031 132.109375 C 160.066406 130.09375 160.726562 128.097656 161.4375 126.113281 C 162.148438 124.132812 162.90625 122.167969 163.710938 120.222656 C 164.515625 118.277344 165.371094 116.351562 166.269531 114.449219 C 167.171875 112.546875 168.117188 110.664062 169.109375 108.808594 C 170.105469 106.953125 171.140625 105.121094 172.222656 103.3125 C 173.308594 101.507812 174.433594 99.730469 175.605469 97.980469 C 176.773438 96.226562 177.984375 94.507812 179.242188 92.816406 C 180.496094 91.125 181.789062 89.464844 183.128906 87.839844 C 184.464844 86.210938 185.839844 84.617188 187.253906 83.054688 C 188.667969 81.496094 190.117188 79.972656 191.609375 78.484375 C 193.097656 76.992188 194.621094 75.542969 196.183594 74.128906 C 197.742188 72.714844 199.339844 71.339844 200.964844 70.003906 C 202.59375 68.667969 204.253906 67.375 205.945312 66.117188 C 207.636719 64.863281 209.359375 63.652344 211.109375 62.484375 C 212.859375 61.3125 214.640625 60.1875 216.445312 59.105469 C 218.253906 58.023438 220.085938 56.984375 221.941406 55.992188 C 223.800781 55 225.679688 54.054688 227.585938 53.152344 C 229.488281 52.253906 231.414062 51.398438 233.359375 50.59375 C 235.304688 49.789062 237.269531 49.03125 239.253906 48.320312 C 241.234375 47.613281 243.234375 46.953125 245.25 46.339844 C 247.265625 45.730469 249.296875 45.167969 251.339844 44.65625 C 253.382812 44.144531 255.4375 43.683594 257.5 43.273438 C 259.566406 42.863281 261.640625 42.5 263.726562 42.191406 C 265.808594 41.882812 267.898438 41.625 269.996094 41.417969 C 272.089844 41.214844 274.191406 41.058594 276.292969 40.957031 C 278.398438 40.851562 280.503906 40.800781 282.609375 40.800781 Z M 282.609375 40.800781 " fill-opacity="1" fill-rule="nonzero"/><g clip-path="url(#d98f13bc42)"><path fill="#0ea5e9" d="M 1293.289062 336.597656 L 282.609375 336.597656 C 202.605469 336.597656 137.515625 271.527344 137.515625 191.542969 L 137.515625 169.457031 C 137.515625 89.472656 202.605469 24.402344 282.609375 24.402344 L 1293.289062 24.402344 C 1373.292969 24.402344 1438.382812 89.472656 1438.382812 169.457031 L 1438.382812 191.542969 C 1438.382812 271.527344 1373.292969 336.597656 1293.289062 336.597656 Z M 282.609375 57.191406 C 220.691406 57.191406 170.3125 107.554688 170.3125 169.457031 L 170.3125 191.546875 C 170.3125 253.449219 220.691406 303.808594 282.609375 303.808594 L 1293.289062 303.808594 C 1355.210938 303.808594 1405.585938 253.449219 1405.585938 191.546875 L 1405.585938 169.457031 C 1405.585938 107.554688 1355.210938 57.191406 1293.289062 57.191406 Z M 282.609375 57.191406 " fill-opacity="1" fill-rule="nonzero"/></g><path fill="#0ea5e9" d="M 363.175781 180.5 C 363.175781 183.453125 363.105469 186.40625 362.960938 189.355469 C 362.816406 192.304688 362.597656 195.25 362.308594 198.1875 C 362.019531 201.128906 361.65625 204.058594 361.222656 206.980469 C 360.789062 209.902344 360.285156 212.8125 359.707031 215.707031 C 359.132812 218.605469 358.484375 221.484375 357.765625 224.351562 C 357.050781 227.214844 356.261719 230.0625 355.40625 232.886719 C 354.546875 235.714844 353.621094 238.519531 352.625 241.296875 C 351.628906 244.078125 350.566406 246.835938 349.4375 249.5625 C 348.304688 252.292969 347.109375 254.992188 345.84375 257.660156 C 344.582031 260.332031 343.253906 262.96875 341.863281 265.574219 C 340.46875 268.175781 339.011719 270.746094 337.496094 273.28125 C 335.976562 275.8125 334.394531 278.308594 332.753906 280.761719 C 331.113281 283.21875 329.414062 285.632812 327.652344 288.003906 C 325.890625 290.378906 324.074219 292.707031 322.203125 294.988281 C 320.328125 297.273438 318.398438 299.507812 316.414062 301.695312 C 314.429688 303.882812 312.394531 306.023438 310.304688 308.109375 C 308.214844 310.199219 306.078125 312.234375 303.886719 314.21875 C 301.699219 316.203125 299.460938 318.132812 297.179688 320.003906 C 294.894531 321.878906 292.566406 323.695312 290.191406 325.453125 C 287.820312 327.214844 285.40625 328.914062 282.949219 330.554688 C 280.492188 332.195312 277.996094 333.773438 275.464844 335.292969 C 272.929688 336.8125 270.359375 338.265625 267.753906 339.660156 C 265.148438 341.050781 262.511719 342.378906 259.839844 343.640625 C 257.167969 344.90625 254.46875 346.101562 251.738281 347.230469 C 249.011719 348.363281 246.253906 349.425781 243.472656 350.417969 C 240.691406 351.414062 237.886719 352.339844 235.058594 353.199219 C 232.230469 354.054688 229.386719 354.84375 226.519531 355.5625 C 223.652344 356.277344 220.773438 356.925781 217.875 357.5 C 214.976562 358.078125 212.066406 358.582031 209.144531 359.015625 C 206.222656 359.449219 203.292969 359.8125 200.351562 360.101562 C 197.410156 360.390625 194.464844 360.605469 191.515625 360.753906 C 188.5625 360.898438 185.613281 360.96875 182.65625 360.96875 C 179.703125 360.96875 176.75 360.898438 173.800781 360.753906 C 170.847656 360.605469 167.902344 360.390625 164.964844 360.101562 C 162.023438 359.8125 159.089844 359.449219 156.167969 359.015625 C 153.246094 358.582031 150.335938 358.078125 147.441406 357.5 C 144.542969 356.925781 141.660156 356.277344 138.792969 355.5625 C 135.929688 354.84375 133.082031 354.054688 130.253906 353.199219 C 127.429688 352.339844 124.625 351.414062 121.839844 350.417969 C 119.058594 349.425781 116.304688 348.363281 113.574219 347.230469 C 110.84375 346.101562 108.144531 344.90625 105.476562 343.640625 C 102.804688 342.378906 100.167969 341.050781 97.5625 339.660156 C 94.953125 338.265625 92.386719 336.8125 89.851562 335.292969 C 87.316406 333.773438 84.820312 332.195312 82.367188 330.554688 C 79.910156 328.914062 77.496094 327.214844 75.121094 325.453125 C 72.75 323.695312 70.421875 321.878906 68.136719 320.003906 C 65.851562 318.132812 63.617188 316.203125 61.425781 314.21875 C 59.238281 312.234375 57.097656 310.199219 55.011719 308.109375 C 52.921875 306.023438 50.882812 303.882812 48.902344 301.695312 C 46.917969 299.507812 44.988281 297.273438 43.113281 294.988281 C 41.238281 292.707031 39.421875 290.378906 37.660156 288.003906 C 35.902344 285.632812 34.203125 283.21875 32.558594 280.761719 C 30.917969 278.308594 29.339844 275.8125 27.820312 273.28125 C 26.300781 270.746094 24.84375 268.175781 23.453125 265.574219 C 22.058594 262.96875 20.730469 260.332031 19.46875 257.660156 C 18.207031 254.992188 17.007812 252.292969 15.878906 249.5625 C 14.746094 246.835938 13.683594 244.078125 12.6875 241.296875 C 11.695312 238.515625 10.769531 235.714844 9.910156 232.886719 C 9.050781 230.0625 8.265625 227.214844 7.546875 224.351562 C 6.828125 221.484375 6.183594 218.605469 5.605469 215.707031 C 5.027344 212.8125 4.523438 209.902344 4.089844 206.980469 C 3.65625 204.058594 3.296875 201.128906 3.007812 198.1875 C 2.714844 195.25 2.5 192.304688 2.355469 189.355469 C 2.210938 186.40625 2.136719 183.453125 2.136719 180.5 C 2.136719 177.546875 2.210938 174.59375 2.355469 171.644531 C 2.5 168.695312 2.714844 165.75 3.007812 162.8125 C 3.296875 159.871094 3.65625 156.941406 4.089844 154.019531 C 4.523438 151.097656 5.027344 148.1875 5.605469 145.292969 C 6.183594 142.394531 6.828125 139.515625 7.546875 136.648438 C 8.265625 133.785156 9.050781 130.9375 9.910156 128.113281 C 10.769531 125.285156 11.695312 122.484375 12.6875 119.703125 C 13.683594 116.921875 14.746094 114.167969 15.878906 111.4375 C 17.007812 108.707031 18.207031 106.007812 19.46875 103.339844 C 20.730469 100.667969 22.058594 98.03125 23.453125 95.425781 C 24.84375 92.824219 26.300781 90.253906 27.820312 87.71875 C 29.339844 85.1875 30.917969 82.691406 32.558594 80.238281 C 34.203125 77.78125 35.902344 75.367188 37.660156 72.996094 C 39.421875 70.621094 41.238281 68.292969 43.113281 66.011719 C 44.988281 63.730469 46.917969 61.492188 48.902344 59.304688 C 50.882812 57.117188 52.921875 54.976562 55.011719 52.890625 C 57.097656 50.800781 59.238281 48.765625 61.425781 46.78125 C 63.617188 44.796875 65.851562 42.871094 68.136719 40.996094 C 70.421875 39.121094 72.75 37.304688 75.121094 35.546875 C 77.496094 33.785156 79.910156 32.085938 82.367188 30.445312 C 84.820312 28.804688 87.316406 27.226562 89.851562 25.707031 C 92.386719 24.1875 94.953125 22.734375 97.5625 21.339844 C 100.167969 19.949219 102.804688 18.621094 105.476562 17.359375 C 108.144531 16.09375 110.84375 14.898438 113.574219 13.769531 C 116.304688 12.636719 119.058594 11.574219 121.839844 10.582031 C 124.625 9.585938 127.429688 8.660156 130.253906 7.800781 C 133.082031 6.945312 135.929688 6.15625 138.792969 5.441406 C 141.660156 4.722656 144.542969 4.074219 147.441406 3.5 C 150.335938 2.921875 153.246094 2.417969 156.167969 1.984375 C 159.089844 1.550781 162.023438 1.191406 164.964844 0.898438 C 167.902344 0.609375 170.847656 0.394531 173.800781 0.25 C 176.75 0.105469 179.703125 0.03125 182.65625 0.03125 C 185.613281 0.03125 188.5625 0.105469 191.515625 0.25 C 194.464844 0.394531 197.410156 0.609375 200.351562 0.898438 C 203.292969 1.191406 206.222656 1.550781 209.144531 1.984375 C 212.066406 2.417969 214.976562 2.921875 217.875 3.5 C 220.773438 4.074219 223.652344 4.722656 226.519531 5.441406 C 229.386719 6.15625 232.230469 6.945312 235.058594 7.800781 C 237.886719 8.660156 240.691406 9.585938 243.472656 10.582031 C 246.253906 11.574219 249.011719 12.636719 251.738281 13.769531 C 254.46875 14.898438 257.167969 16.09375 259.839844 17.359375 C 262.511719 18.621094 265.148438 19.949219 267.753906 21.339844 C 270.359375 22.734375 272.929688 24.1875 275.464844 25.707031 C 277.996094 27.226562 280.492188 28.804688 282.949219 30.445312 C 285.40625 32.085938 287.820312 33.785156 290.191406 35.546875 C 292.566406 37.304688 294.894531 39.121094 297.179688 40.996094 C 299.460938 42.871094 301.699219 44.796875 303.886719 46.78125 C 306.078125 48.765625 308.214844 50.800781 310.304688 52.890625 C 312.394531 54.976562 314.429688 57.117188 316.414062 59.304688 C 318.398438 61.492188 320.328125 63.730469 322.203125 66.011719 C 324.074219 68.292969 325.890625 70.621094 327.652344 72.996094 C 329.414062 75.367188 331.113281 77.78125 332.753906 80.238281 C 334.394531 82.691406 335.976562 85.1875 337.496094 87.71875 C 339.011719 90.253906 340.46875 92.824219 341.863281 95.425781 C 343.253906 98.03125 344.582031 100.667969 345.84375 103.339844 C 347.109375 106.007812 348.304688 108.707031 349.4375 111.4375 C 350.566406 114.167969 351.628906 116.921875 352.625 119.703125 C 353.621094 122.484375 354.546875 125.285156 355.40625 128.113281 C 356.261719 130.9375 357.050781 133.785156 357.765625 136.648438 C 358.484375 139.515625 359.132812 142.394531 359.707031 145.292969 C 360.285156 148.1875 360.789062 151.097656 361.222656 154.019531 C 361.65625 156.941406 362.019531 159.871094 362.308594 162.8125 C 362.597656 165.75 362.816406 168.695312 362.960938 171.644531 C 363.105469 174.59375 363.175781 177.546875 363.175781 180.5 Z M 363.175781 180.5 " fill-opacity="1" fill-rule="nonzero"/><path fill="#ffffff" d="M 275.851562 227.753906 L 249.597656 201.507812 C 243.976562 195.886719 234.890625 195.800781 229.160156 201.3125 L 208.539062 221.148438 C 208.539062 221.148438 186.457031 211.710938 168.949219 194.203125 C 151.4375 176.699219 141.996094 154.625 141.996094 154.625 L 161.839844 134.007812 C 167.351562 128.28125 167.261719 119.195312 161.640625 113.578125 L 135.386719 87.332031 C 129.6875 81.632812 120.449219 81.632812 114.75 87.332031 L 90.058594 112.015625 C 86.289062 115.78125 84.53125 121.132812 85.40625 126.386719 C 96.285156 191.683594 171.46875 266.84375 236.785156 277.722656 C 242.039062 278.597656 247.394531 276.835938 251.160156 273.070312 L 275.851562 248.386719 C 281.550781 242.691406 281.550781 233.453125 275.851562 227.753906 Z M 275.851562 227.753906 " fill-opacity="1" fill-rule="nonzero"/><path fill="#ffffff" d="M 283.695312 80.3125 C 285.335938 81.953125 286.9375 83.636719 288.496094 85.355469 C 290.054688 87.074219 291.570312 88.832031 293.039062 90.625 C 294.511719 92.417969 295.941406 94.246094 297.324219 96.109375 C 298.703125 97.972656 300.039062 99.871094 301.328125 101.800781 C 302.617188 103.730469 303.859375 105.6875 305.054688 107.679688 C 306.246094 109.667969 307.390625 111.6875 308.484375 113.734375 C 309.578125 115.78125 310.621094 117.851562 311.613281 119.949219 C 312.605469 122.046875 313.542969 124.167969 314.433594 126.3125 C 315.320312 128.457031 316.15625 130.621094 316.9375 132.804688 C 317.71875 134.992188 318.445312 137.191406 319.121094 139.414062 C 319.792969 141.632812 320.410156 143.871094 320.976562 146.121094 C 321.539062 148.371094 322.046875 150.636719 322.5 152.910156 C 322.953125 155.1875 323.351562 157.472656 323.691406 159.769531 C 324.03125 162.0625 324.316406 164.367188 324.542969 166.675781 C 324.769531 168.984375 324.941406 171.296875 325.054688 173.613281 C 325.167969 175.933594 325.226562 178.25 325.226562 180.570312 C 325.226562 182.890625 325.167969 185.210938 325.054688 187.527344 C 324.941406 189.847656 324.769531 192.160156 324.542969 194.46875 C 324.316406 196.777344 324.03125 199.082031 323.691406 201.375 C 323.351562 203.671875 322.953125 205.957031 322.5 208.234375 C 322.046875 210.507812 321.539062 212.773438 320.976562 215.023438 C 320.410156 217.273438 319.792969 219.507812 319.121094 221.730469 C 318.445312 223.949219 317.71875 226.152344 316.9375 228.339844 C 316.15625 230.523438 315.320312 232.6875 314.433594 234.832031 C 313.542969 236.976562 312.605469 239.09375 311.613281 241.191406 C 310.621094 243.289062 309.578125 245.363281 308.484375 247.410156 C 307.390625 249.457031 306.246094 251.472656 305.050781 253.464844 C 303.859375 255.453125 302.617188 257.414062 301.328125 259.34375 C 300.039062 261.273438 298.703125 263.171875 297.324219 265.035156 C 295.941406 266.898438 294.511719 268.726562 293.039062 270.519531 C 291.570312 272.3125 290.054688 274.070312 288.496094 275.789062 C 286.9375 277.507812 285.335938 279.1875 283.695312 280.828125 C 282.054688 282.46875 280.375 284.070312 278.65625 285.628906 C 276.9375 287.1875 275.179688 288.703125 273.386719 290.175781 C 271.59375 291.644531 269.765625 293.074219 267.902344 294.457031 C 266.035156 295.835938 264.140625 297.171875 262.210938 298.460938 C 260.28125 299.75 258.320312 300.992188 256.332031 302.1875 C 254.339844 303.378906 252.324219 304.523438 250.277344 305.617188 C 248.230469 306.710938 246.15625 307.753906 244.058594 308.746094 C 241.960938 309.738281 239.84375 310.675781 237.699219 311.566406 C 235.554688 312.453125 233.390625 313.289062 231.207031 314.070312 C 229.019531 314.851562 226.816406 315.578125 224.597656 316.253906 C 222.375 316.925781 220.140625 317.546875 217.890625 318.109375 C 215.640625 318.671875 213.375 319.179688 211.101562 319.632812 C 208.824219 320.085938 206.539062 320.484375 204.242188 320.824219 C 201.949219 321.164062 199.644531 321.449219 197.335938 321.675781 C 195.027344 321.902344 192.714844 322.074219 190.394531 322.1875 C 188.078125 322.300781 185.757812 322.359375 183.4375 322.359375 C 181.117188 322.359375 178.800781 322.300781 176.480469 322.1875 C 174.164062 322.074219 171.851562 321.902344 169.542969 321.675781 C 167.230469 321.449219 164.929688 321.164062 162.632812 320.824219 C 160.339844 320.484375 158.054688 320.085938 155.777344 319.632812 C 153.5 319.179688 151.238281 318.671875 148.988281 318.109375 C 146.738281 317.546875 144.5 316.925781 142.28125 316.253906 C 140.058594 315.578125 137.855469 314.851562 135.671875 314.070312 C 133.488281 313.289062 131.324219 312.453125 129.179688 311.566406 C 127.035156 310.675781 124.914062 309.738281 122.816406 308.746094 C 120.71875 307.753906 118.648438 306.710938 116.601562 305.617188 C 114.554688 304.523438 112.535156 303.378906 110.546875 302.1875 C 108.554688 300.992188 106.597656 299.75 104.667969 298.460938 C 102.738281 297.171875 100.839844 295.835938 98.976562 294.457031 C 97.113281 293.074219 95.285156 291.644531 93.492188 290.175781 C 91.695312 288.703125 89.941406 287.1875 88.222656 285.628906 C 86.503906 284.070312 84.820312 282.46875 83.179688 280.828125 C 81.539062 279.1875 79.941406 277.507812 78.382812 275.789062 C 76.824219 274.070312 75.308594 272.3125 73.835938 270.519531 C 72.363281 268.726562 70.9375 266.898438 69.554688 265.035156 C 68.171875 263.171875 66.835938 261.273438 65.546875 259.34375 C 64.257812 257.414062 63.019531 255.453125 61.824219 253.464844 C 60.632812 251.472656 59.488281 249.457031 58.394531 247.410156 C 57.300781 245.363281 56.257812 243.289062 55.265625 241.191406 C 54.273438 239.09375 53.332031 236.976562 52.445312 234.832031 C 51.558594 232.6875 50.722656 230.523438 49.941406 228.339844 C 49.160156 226.152344 48.433594 223.949219 47.757812 221.730469 C 47.085938 219.507812 46.464844 217.273438 45.902344 215.023438 C 45.339844 212.773438 44.828125 210.507812 44.378906 208.234375 C 43.925781 205.957031 43.527344 203.671875 43.1875 201.375 C 42.847656 199.082031 42.5625 196.777344 42.335938 194.46875 C 42.109375 192.160156 41.9375 189.847656 41.824219 187.527344 C 41.710938 185.210938 41.652344 182.890625 41.652344 180.570312 C 41.652344 178.25 41.710938 175.933594 41.824219 173.613281 C 41.9375 171.296875 42.109375 168.984375 42.335938 166.675781 C 42.5625 164.367188 42.847656 162.0625 43.1875 159.769531 C 43.527344 157.472656 43.925781 155.1875 44.378906 152.910156 C 44.828125 150.636719 45.339844 148.371094 45.902344 146.121094 C 46.464844 143.871094 47.085938 141.632812 47.757812 139.414062 C 48.433594 137.191406 49.160156 134.992188 49.941406 132.804688 C 50.722656 130.621094 51.558594 128.457031 52.445312 126.3125 C 53.332031 124.167969 54.273438 122.046875 55.265625 119.949219 C 56.257812 117.851562 57.300781 115.78125 58.394531 113.734375 C 59.488281 111.6875 60.632812 109.667969 61.824219 107.679688 C 63.019531 105.6875 64.257812 103.730469 65.546875 101.800781 C 66.835938 99.871094 68.171875 97.972656 69.554688 96.109375 C 70.9375 94.246094 72.363281 92.417969 73.835938 90.625 C 75.308594 88.832031 76.824219 87.074219 78.382812 85.355469 C 79.941406 83.636719 81.539062 81.953125 83.179688 80.3125 C 84.820312 78.671875 86.503906 77.074219 88.222656 75.515625 C 89.941406 73.957031 91.695312 72.441406 93.492188 70.96875 C 95.285156 69.496094 97.113281 68.070312 98.976562 66.6875 C 100.839844 65.304688 102.738281 63.96875 104.667969 62.679688 C 106.597656 61.390625 108.554688 60.152344 110.546875 58.957031 C 112.535156 57.765625 114.554688 56.621094 116.601562 55.527344 C 118.648438 54.433594 120.71875 53.390625 122.816406 52.398438 C 124.914062 51.40625 127.035156 50.46875 129.179688 49.578125 C 131.324219 48.691406 133.488281 47.855469 135.671875 47.074219 C 137.855469 46.292969 140.058594 45.566406 142.28125 44.890625 C 144.5 44.21875 146.738281 43.597656 148.988281 43.035156 C 151.238281 42.472656 153.5 41.964844 155.777344 41.511719 C 158.054688 41.058594 160.339844 40.660156 162.632812 40.320312 C 164.929688 39.980469 167.230469 39.695312 169.542969 39.46875 C 171.851562 39.242188 174.164062 39.070312 176.480469 38.957031 C 178.800781 38.84375 181.117188 38.785156 183.4375 38.785156 C 185.757812 38.785156 188.078125 38.84375 190.394531 38.957031 C 192.714844 39.070312 195.027344 39.242188 197.335938 39.46875 C 199.644531 39.695312 201.949219 39.980469 204.242188 40.320312 C 206.539062 40.660156 208.824219 41.058594 211.101562 41.511719 C 213.375 41.964844 215.640625 42.472656 217.890625 43.035156 C 220.140625 43.597656 222.375 44.21875 224.597656 44.890625 C 226.816406 45.566406 229.019531 46.292969 231.207031 47.074219 C 233.390625 47.855469 235.554688 48.691406 237.699219 49.578125 C 239.839844 50.46875 241.960938 51.40625 244.058594 52.398438 C 246.15625 53.390625 248.230469 54.433594 250.277344 55.527344 C 252.324219 56.621094 254.339844 57.765625 256.332031 58.957031 C 258.320312 60.152344 260.28125 61.390625 262.210938 62.679688 C 264.140625 63.96875 266.035156 65.304688 267.902344 66.6875 C 269.765625 68.070312 271.59375 69.496094 273.386719 70.96875 C 275.179688 72.441406 276.9375 73.957031 278.65625 75.515625 C 280.375 77.074219 282.054688 78.671875 283.695312 80.3125 Z M 283.695312 80.3125 " fill-opacity="1" fill-rule="nonzero"/><g clip-path="url(#7b399f3a4c)"><path fill="#0ea5e9" d="M 183.4375 0.0859375 C 83.667969 0.0859375 3.078125 80.5625 2.949219 180.332031 C 2.929688 187.707031 3.359375 195.050781 4.246094 202.371094 C 5.128906 209.6875 6.457031 216.925781 8.230469 224.082031 C 10.003906 231.238281 12.210938 238.257812 14.847656 245.140625 C 17.484375 252.027344 20.535156 258.722656 24 265.230469 C 25.371094 267.808594 26.28125 270.539062 26.730469 273.421875 C 27.175781 276.308594 27.132812 279.1875 26.605469 282.058594 L 14.972656 344.886719 C 14.925781 345.136719 14.894531 345.390625 14.878906 345.648438 C 14.867188 345.902344 14.867188 346.160156 14.886719 346.414062 C 14.902344 346.671875 14.9375 346.925781 14.988281 347.175781 C 15.039062 347.429688 15.105469 347.675781 15.1875 347.917969 C 15.269531 348.160156 15.367188 348.398438 15.476562 348.628906 C 15.589844 348.859375 15.714844 349.082031 15.855469 349.296875 C 15.996094 349.511719 16.148438 349.71875 16.316406 349.914062 C 16.484375 350.109375 16.660156 350.292969 16.851562 350.464844 C 17.039062 350.636719 17.238281 350.796875 17.449219 350.945312 C 17.660156 351.09375 17.878906 351.226562 18.105469 351.34375 C 18.332031 351.464844 18.566406 351.570312 18.808594 351.660156 C 19.046875 351.75 19.292969 351.824219 19.542969 351.882812 C 19.792969 351.941406 20.042969 351.984375 20.300781 352.007812 C 20.554688 352.035156 20.808594 352.046875 21.066406 352.039062 C 21.324219 352.035156 21.578125 352.011719 21.832031 351.972656 C 22.085938 351.933594 22.335938 351.878906 22.582031 351.8125 L 76.714844 336.402344 C 78.332031 335.9375 79.980469 335.640625 81.65625 335.5 C 83.332031 335.363281 85.007812 335.386719 86.679688 335.578125 C 88.351562 335.765625 89.988281 336.117188 91.589844 336.628906 C 93.191406 337.140625 94.730469 337.800781 96.203125 338.613281 C 122.394531 353.101562 152.570312 361.269531 184.671875 361.054688 C 284.058594 360.390625 363.925781 279.957031 363.925781 180.570312 C 363.925781 80.890625 283.121094 0.0859375 183.4375 0.0859375 Z M 183.4375 322.359375 C 105.132812 322.359375 41.65625 258.878906 41.652344 180.574219 C 41.652344 102.355469 105.222656 38.785156 183.441406 38.785156 C 261.746094 38.785156 325.226562 102.265625 325.226562 180.570312 C 325.226562 258.789062 261.65625 322.359375 183.4375 322.359375 Z M 183.4375 322.359375 " fill-opacity="1" fill-rule="nonzero"/></g><path fill="#0ea5e9" d="M 268.429688 124.5 C 268.429688 146.785156 245.488281 164.847656 217.191406 164.847656 C 216.855469 164.847656 216.519531 164.84375 216.183594 164.839844 C 213.28125 164.777344 210.609375 165.539062 208.171875 167.117188 C 192.160156 177.648438 173.976562 179.757812 173.601562 179.800781 C 180.511719 175.847656 184.304688 166.878906 186.316406 159.601562 C 186.417969 159.25 186.457031 158.894531 186.441406 158.53125 C 186.425781 158.167969 186.351562 157.816406 186.226562 157.476562 C 186.097656 157.136719 185.917969 156.824219 185.691406 156.539062 C 185.460938 156.257812 185.195312 156.019531 184.890625 155.820312 C 173.335938 148.421875 165.957031 137.140625 165.957031 124.496094 C 165.957031 102.210938 188.894531 84.148438 217.191406 84.148438 C 245.492188 84.148438 268.429688 102.214844 268.429688 124.5 Z M 268.429688 124.5 " fill-opacity="1" fill-rule="nonzero"/><path fill="#ffffff" d="M 201.460938 126.355469 C 201.460938 126.992188 201.398438 127.621094 201.273438 128.242188 C 201.152344 128.863281 200.96875 129.46875 200.726562 130.054688 C 200.484375 130.640625 200.183594 131.199219 199.832031 131.726562 C 199.480469 132.253906 199.078125 132.742188 198.628906 133.191406 C 198.183594 133.636719 197.695312 134.039062 197.167969 134.390625 C 196.640625 134.742188 196.082031 135.042969 195.496094 135.285156 C 194.910156 135.527344 194.304688 135.710938 193.683594 135.835938 C 193.0625 135.957031 192.433594 136.019531 191.796875 136.019531 C 191.164062 136.019531 190.535156 135.957031 189.914062 135.835938 C 189.289062 135.710938 188.6875 135.527344 188.101562 135.285156 C 187.511719 135.042969 186.957031 134.742188 186.429688 134.390625 C 185.902344 134.039062 185.414062 133.636719 184.964844 133.191406 C 184.515625 132.742188 184.117188 132.253906 183.761719 131.726562 C 183.410156 131.199219 183.113281 130.640625 182.871094 130.054688 C 182.628906 129.46875 182.445312 128.863281 182.320312 128.242188 C 182.195312 127.621094 182.132812 126.992188 182.132812 126.355469 C 182.132812 125.722656 182.195312 125.09375 182.320312 124.472656 C 182.445312 123.847656 182.628906 123.246094 182.871094 122.660156 C 183.113281 122.074219 183.410156 121.515625 183.761719 120.988281 C 184.117188 120.460938 184.515625 119.972656 184.964844 119.523438 C 185.414062 119.074219 185.902344 118.675781 186.429688 118.320312 C 186.957031 117.96875 187.511719 117.671875 188.101562 117.429688 C 188.6875 117.1875 189.289062 117.003906 189.914062 116.878906 C 190.535156 116.753906 191.164062 116.695312 191.796875 116.695312 C 192.433594 116.695312 193.0625 116.753906 193.683594 116.878906 C 194.304688 117.003906 194.910156 117.1875 195.496094 117.429688 C 196.082031 117.671875 196.640625 117.96875 197.167969 118.320312 C 197.695312 118.675781 198.183594 119.074219 198.628906 119.523438 C 199.078125 119.972656 199.480469 120.460938 199.832031 120.988281 C 200.183594 121.515625 200.484375 122.074219 200.726562 122.660156 C 200.96875 123.246094 201.152344 123.847656 201.273438 124.472656 C 201.398438 125.09375 201.460938 125.722656 201.460938 126.355469 Z M 201.460938 126.355469 " fill-opacity="1" fill-rule="nonzero"/><path fill="#ffffff" d="M 226.855469 126.355469 C 226.855469 126.992188 226.792969 127.621094 226.667969 128.242188 C 226.546875 128.863281 226.363281 129.46875 226.121094 130.054688 C 225.875 130.640625 225.578125 131.199219 225.226562 131.726562 C 224.875 132.253906 224.472656 132.742188 224.023438 133.191406 C 223.574219 133.636719 223.085938 134.039062 222.558594 134.390625 C 222.03125 134.742188 221.476562 135.042969 220.890625 135.285156 C 220.304688 135.527344 219.699219 135.710938 219.078125 135.835938 C 218.453125 135.957031 217.824219 136.019531 217.191406 136.019531 C 216.558594 136.019531 215.929688 135.957031 215.304688 135.835938 C 214.683594 135.710938 214.078125 135.527344 213.492188 135.285156 C 212.90625 135.042969 212.351562 134.742188 211.824219 134.390625 C 211.296875 134.039062 210.808594 133.636719 210.359375 133.191406 C 209.910156 132.742188 209.507812 132.253906 209.15625 131.726562 C 208.804688 131.199219 208.507812 130.640625 208.265625 130.054688 C 208.019531 129.46875 207.839844 128.863281 207.714844 128.242188 C 207.589844 127.621094 207.527344 126.992188 207.527344 126.355469 C 207.527344 125.722656 207.589844 125.09375 207.714844 124.472656 C 207.839844 123.847656 208.019531 123.246094 208.265625 122.660156 C 208.507812 122.074219 208.804688 121.515625 209.15625 120.988281 C 209.507812 120.460938 209.910156 119.972656 210.359375 119.523438 C 210.808594 119.074219 211.296875 118.675781 211.824219 118.320312 C 212.351562 117.96875 212.90625 117.671875 213.492188 117.429688 C 214.078125 117.1875 214.683594 117.003906 215.304688 116.878906 C 215.929688 116.753906 216.558594 116.695312 217.191406 116.695312 C 217.824219 116.695312 218.453125 116.753906 219.078125 116.878906 C 219.699219 117.003906 220.304688 117.1875 220.890625 117.429688 C 221.476562 117.671875 222.03125 117.96875 222.558594 118.320312 C 223.085938 118.675781 223.574219 119.074219 224.023438 119.523438 C 224.472656 119.972656 224.875 120.460938 225.226562 120.988281 C 225.578125 121.515625 225.875 122.074219 226.121094 122.660156 C 226.363281 123.246094 226.546875 123.847656 226.667969 124.472656 C 226.792969 125.09375 226.855469 125.722656 226.855469 126.355469 Z M 226.855469 126.355469 " fill-opacity="1" fill-rule="nonzero"/><path fill="#ffffff" d="M 252.25 126.355469 C 252.25 126.992188 252.1875 127.621094 252.0625 128.242188 C 251.9375 128.863281 251.753906 129.46875 251.511719 130.054688 C 251.269531 130.640625 250.972656 131.199219 250.621094 131.726562 C 250.269531 132.253906 249.867188 132.742188 249.417969 133.191406 C 248.96875 133.636719 248.480469 134.039062 247.953125 134.390625 C 247.425781 134.742188 246.871094 135.042969 246.285156 135.285156 C 245.695312 135.527344 245.09375 135.710938 244.46875 135.835938 C 243.847656 135.957031 243.21875 136.019531 242.585938 136.019531 C 241.949219 136.019531 241.324219 135.957031 240.699219 135.835938 C 240.078125 135.710938 239.472656 135.527344 238.886719 135.285156 C 238.300781 135.042969 237.746094 134.742188 237.21875 134.390625 C 236.6875 134.039062 236.203125 133.636719 235.753906 133.191406 C 235.304688 132.742188 234.902344 132.253906 234.550781 131.726562 C 234.199219 131.199219 233.902344 130.640625 233.65625 130.054688 C 233.414062 129.46875 233.230469 128.863281 233.109375 128.242188 C 232.984375 127.621094 232.921875 126.992188 232.921875 126.355469 C 232.921875 125.722656 232.984375 125.09375 233.109375 124.472656 C 233.230469 123.847656 233.414062 123.246094 233.65625 122.660156 C 233.902344 122.074219 234.199219 121.515625 234.550781 120.988281 C 234.902344 120.460938 235.304688 119.972656 235.753906 119.523438 C 236.203125 119.074219 236.6875 118.675781 237.21875 118.320312 C 237.746094 117.96875 238.300781 117.671875 238.886719 117.429688 C 239.472656 117.1875 240.078125 117.003906 240.699219 116.878906 C 241.324219 116.753906 241.949219 116.695312 242.585938 116.695312 C 243.21875 116.695312 243.847656 116.753906 244.46875 116.878906 C 245.09375 117.003906 245.695312 117.1875 246.285156 117.429688 C 246.871094 117.671875 247.425781 117.96875 247.953125 118.320312 C 248.480469 118.675781 248.96875 119.074219 249.417969 119.523438 C 249.867188 119.972656 250.269531 120.460938 250.621094 120.988281 C 250.972656 121.515625 251.269531 122.074219 251.511719 122.660156 C 251.753906 123.246094 251.9375 123.847656 252.0625 124.472656 C 252.1875 125.09375 252.25 125.722656 252.25 126.355469 Z M 252.25 126.355469 " fill-opacity="1" fill-rule="nonzero"/><path fill="#0ea5e9" d="M 135.207031 189.292969 L 131.160156 172.199219 C 131.042969 171.710938 130.902344 171.234375 130.738281 170.761719 C 130.570312 170.289062 130.382812 169.828125 130.167969 169.375 C 129.953125 168.925781 129.714844 168.484375 129.453125 168.058594 C 129.195312 167.632812 128.910156 167.21875 128.605469 166.820312 C 128.304688 166.425781 127.980469 166.046875 127.636719 165.683594 C 127.289062 165.320312 126.929688 164.976562 126.546875 164.652344 C 126.167969 164.324219 125.773438 164.023438 125.359375 163.738281 C 124.945312 163.457031 124.519531 163.195312 124.082031 162.957031 C 123.640625 162.71875 123.191406 162.503906 122.726562 162.3125 C 122.265625 162.121094 121.792969 161.957031 121.316406 161.816406 C 120.835938 161.675781 120.347656 161.558594 119.855469 161.46875 C 119.363281 161.378906 118.871094 161.316406 118.371094 161.277344 C 117.871094 161.242188 117.371094 161.230469 116.871094 161.246094 C 116.371094 161.257812 115.875 161.300781 115.378906 161.367188 C 114.882812 161.433594 114.394531 161.527344 113.90625 161.648438 C 113.421875 161.765625 112.945312 161.910156 112.472656 162.082031 L 103.136719 165.441406 C 102.382812 165.714844 101.652344 166.046875 100.957031 166.441406 C 100.257812 166.839844 99.597656 167.289062 98.972656 167.796875 C 98.351562 168.300781 97.777344 168.859375 97.246094 169.460938 C 96.71875 170.066406 96.242188 170.710938 95.824219 171.394531 C 95.402344 172.078125 95.042969 172.792969 94.746094 173.535156 C 94.445312 174.28125 94.210938 175.046875 94.042969 175.832031 C 93.871094 176.613281 93.769531 177.40625 93.730469 178.210938 C 93.695312 179.011719 93.726562 179.8125 93.824219 180.609375 C 97.082031 207.046875 112.058594 271 180.941406 285.054688 C 182.308594 285.332031 183.6875 285.410156 185.074219 285.285156 C 186.464844 285.160156 187.808594 284.835938 189.101562 284.316406 C 190.398438 283.796875 191.589844 283.101562 192.679688 282.230469 C 193.769531 281.359375 194.714844 280.351562 195.507812 279.207031 L 200.867188 271.464844 C 201.398438 270.695312 201.851562 269.878906 202.222656 269.023438 C 202.597656 268.164062 202.882812 267.277344 203.078125 266.363281 C 203.277344 265.449219 203.382812 264.527344 203.398438 263.589844 C 203.414062 262.65625 203.335938 261.726562 203.171875 260.808594 C 203.003906 259.886719 202.746094 258.992188 202.402344 258.121094 C 202.058594 257.253906 201.636719 256.425781 201.128906 255.636719 C 200.621094 254.851562 200.042969 254.121094 199.394531 253.449219 C 198.742188 252.777344 198.03125 252.175781 197.265625 251.644531 L 197.171875 251.582031 L 185.394531 243.5625 C 184.761719 243.132812 184.097656 242.753906 183.402344 242.429688 C 182.710938 242.105469 181.992188 241.839844 181.257812 241.632812 C 180.519531 241.421875 179.769531 241.273438 179.007812 241.1875 C 178.246094 241.097656 177.484375 241.074219 176.71875 241.109375 C 175.953125 241.144531 175.195312 241.242188 174.445312 241.398438 C 173.695312 241.554688 172.964844 241.773438 172.25 242.050781 C 171.535156 242.324219 170.847656 242.65625 170.183594 243.042969 C 169.523438 243.429688 168.898438 243.867188 168.308594 244.355469 C 167.722656 244.839844 167.097656 245.277344 166.441406 245.664062 C 165.785156 246.050781 165.101562 246.378906 164.394531 246.65625 C 163.683594 246.933594 162.957031 247.152344 162.210938 247.308594 C 161.464844 247.46875 160.714844 247.566406 159.953125 247.605469 C 159.191406 247.644531 158.433594 247.621094 157.675781 247.539062 C 156.917969 247.453125 156.175781 247.3125 155.441406 247.109375 C 154.707031 246.90625 153.992188 246.644531 153.300781 246.324219 C 152.609375 246.007812 151.945312 245.636719 151.3125 245.210938 C 144.148438 240.386719 134.453125 232.382812 128.15625 221.285156 C 127.800781 220.667969 127.496094 220.027344 127.242188 219.363281 C 126.984375 218.699219 126.777344 218.019531 126.621094 217.324219 C 126.464844 216.628906 126.363281 215.925781 126.3125 215.214844 C 126.261719 214.503906 126.265625 213.792969 126.320312 213.085938 C 126.378906 212.375 126.484375 211.671875 126.648438 210.976562 C 126.808594 210.285156 127.019531 209.605469 127.28125 208.945312 C 127.542969 208.28125 127.855469 207.644531 128.210938 207.027344 C 128.570312 206.410156 128.972656 205.824219 129.417969 205.269531 L 132.445312 201.503906 C 133.125 200.660156 133.703125 199.746094 134.171875 198.769531 C 134.644531 197.792969 135 196.777344 135.238281 195.71875 C 135.480469 194.660156 135.597656 193.589844 135.589844 192.503906 C 135.585938 191.417969 135.457031 190.347656 135.207031 189.292969 Z M 135.207031 189.292969 " fill-opacity="1" fill-rule="nonzero"/></svg>